G75*
%MOIN*%
%OFA0B0*%
%FSLAX25Y25*%
%IPPOS*%
%LPD*%
%AMOC8*
5,1,8,0,0,1.08239X$1,22.5*
%
%ADD10C,0.00000*%
%ADD11R,0.05118X0.06102*%
D10*
X0007206Y0003269D02*
X0036733Y0003269D01*
X0036733Y0003761D01*
X0040670Y0007698D02*
X0040794Y0007696D01*
X0040917Y0007690D01*
X0041041Y0007681D01*
X0041163Y0007667D01*
X0041286Y0007650D01*
X0041408Y0007628D01*
X0041529Y0007603D01*
X0041649Y0007574D01*
X0041768Y0007542D01*
X0041887Y0007505D01*
X0042004Y0007465D01*
X0042119Y0007422D01*
X0042234Y0007374D01*
X0042346Y0007323D01*
X0042457Y0007269D01*
X0042567Y0007211D01*
X0042674Y0007150D01*
X0042780Y0007085D01*
X0042883Y0007017D01*
X0042984Y0006946D01*
X0043083Y0006872D01*
X0043180Y0006795D01*
X0043274Y0006714D01*
X0043365Y0006631D01*
X0043454Y0006545D01*
X0043540Y0006456D01*
X0043623Y0006365D01*
X0043704Y0006271D01*
X0043781Y0006174D01*
X0043855Y0006075D01*
X0043926Y0005974D01*
X0043994Y0005871D01*
X0044059Y0005765D01*
X0044120Y0005658D01*
X0044178Y0005548D01*
X0044232Y0005437D01*
X0044283Y0005325D01*
X0044331Y0005210D01*
X0044374Y0005095D01*
X0044414Y0004978D01*
X0044451Y0004859D01*
X0044483Y0004740D01*
X0044512Y0004620D01*
X0044537Y0004499D01*
X0044559Y0004377D01*
X0044576Y0004254D01*
X0044590Y0004132D01*
X0044599Y0004008D01*
X0044605Y0003885D01*
X0044607Y0003761D01*
X0044607Y0003269D01*
X0082009Y0003269D01*
X0082133Y0003271D01*
X0082256Y0003277D01*
X0082380Y0003286D01*
X0082502Y0003300D01*
X0082625Y0003317D01*
X0082747Y0003339D01*
X0082868Y0003364D01*
X0082988Y0003393D01*
X0083107Y0003425D01*
X0083226Y0003462D01*
X0083343Y0003502D01*
X0083458Y0003545D01*
X0083573Y0003593D01*
X0083685Y0003644D01*
X0083796Y0003698D01*
X0083906Y0003756D01*
X0084013Y0003817D01*
X0084119Y0003882D01*
X0084222Y0003950D01*
X0084323Y0004021D01*
X0084422Y0004095D01*
X0084519Y0004172D01*
X0084613Y0004253D01*
X0084704Y0004336D01*
X0084793Y0004422D01*
X0084879Y0004511D01*
X0084962Y0004602D01*
X0085043Y0004696D01*
X0085120Y0004793D01*
X0085194Y0004892D01*
X0085265Y0004993D01*
X0085333Y0005096D01*
X0085398Y0005202D01*
X0085459Y0005309D01*
X0085517Y0005419D01*
X0085571Y0005530D01*
X0085622Y0005642D01*
X0085670Y0005757D01*
X0085713Y0005872D01*
X0085753Y0005989D01*
X0085790Y0006108D01*
X0085822Y0006227D01*
X0085851Y0006347D01*
X0085876Y0006468D01*
X0085898Y0006590D01*
X0085915Y0006713D01*
X0085929Y0006835D01*
X0085938Y0006959D01*
X0085944Y0007082D01*
X0085946Y0007206D01*
X0085946Y0019017D01*
X0085948Y0019141D01*
X0085954Y0019264D01*
X0085963Y0019388D01*
X0085977Y0019510D01*
X0085994Y0019633D01*
X0086016Y0019755D01*
X0086041Y0019876D01*
X0086070Y0019996D01*
X0086102Y0020115D01*
X0086139Y0020234D01*
X0086179Y0020351D01*
X0086222Y0020466D01*
X0086270Y0020581D01*
X0086321Y0020693D01*
X0086375Y0020804D01*
X0086433Y0020914D01*
X0086494Y0021021D01*
X0086559Y0021127D01*
X0086627Y0021230D01*
X0086698Y0021331D01*
X0086772Y0021430D01*
X0086849Y0021527D01*
X0086930Y0021621D01*
X0087013Y0021712D01*
X0087099Y0021801D01*
X0087188Y0021887D01*
X0087279Y0021970D01*
X0087373Y0022051D01*
X0087470Y0022128D01*
X0087569Y0022202D01*
X0087670Y0022273D01*
X0087773Y0022341D01*
X0087879Y0022406D01*
X0087986Y0022467D01*
X0088096Y0022525D01*
X0088207Y0022579D01*
X0088319Y0022630D01*
X0088434Y0022678D01*
X0088549Y0022721D01*
X0088666Y0022761D01*
X0088785Y0022798D01*
X0088904Y0022830D01*
X0089024Y0022859D01*
X0089145Y0022884D01*
X0089267Y0022906D01*
X0089390Y0022923D01*
X0089512Y0022937D01*
X0089636Y0022946D01*
X0089759Y0022952D01*
X0089883Y0022954D01*
X0145001Y0022954D01*
X0145125Y0022952D01*
X0145248Y0022946D01*
X0145372Y0022937D01*
X0145494Y0022923D01*
X0145617Y0022906D01*
X0145739Y0022884D01*
X0145860Y0022859D01*
X0145980Y0022830D01*
X0146099Y0022798D01*
X0146218Y0022761D01*
X0146335Y0022721D01*
X0146450Y0022678D01*
X0146565Y0022630D01*
X0146677Y0022579D01*
X0146788Y0022525D01*
X0146898Y0022467D01*
X0147005Y0022406D01*
X0147111Y0022341D01*
X0147214Y0022273D01*
X0147315Y0022202D01*
X0147414Y0022128D01*
X0147511Y0022051D01*
X0147605Y0021970D01*
X0147696Y0021887D01*
X0147785Y0021801D01*
X0147871Y0021712D01*
X0147954Y0021621D01*
X0148035Y0021527D01*
X0148112Y0021430D01*
X0148186Y0021331D01*
X0148257Y0021230D01*
X0148325Y0021127D01*
X0148390Y0021021D01*
X0148451Y0020914D01*
X0148509Y0020804D01*
X0148563Y0020693D01*
X0148614Y0020581D01*
X0148662Y0020466D01*
X0148705Y0020351D01*
X0148745Y0020234D01*
X0148782Y0020115D01*
X0148814Y0019996D01*
X0148843Y0019876D01*
X0148868Y0019755D01*
X0148890Y0019633D01*
X0148907Y0019510D01*
X0148921Y0019388D01*
X0148930Y0019264D01*
X0148936Y0019141D01*
X0148938Y0019017D01*
X0148938Y0007206D01*
X0148940Y0007082D01*
X0148946Y0006959D01*
X0148955Y0006835D01*
X0148969Y0006713D01*
X0148986Y0006590D01*
X0149008Y0006468D01*
X0149033Y0006347D01*
X0149062Y0006227D01*
X0149094Y0006108D01*
X0149131Y0005989D01*
X0149171Y0005872D01*
X0149214Y0005757D01*
X0149262Y0005642D01*
X0149313Y0005530D01*
X0149367Y0005419D01*
X0149425Y0005309D01*
X0149486Y0005202D01*
X0149551Y0005096D01*
X0149619Y0004993D01*
X0149690Y0004892D01*
X0149764Y0004793D01*
X0149841Y0004696D01*
X0149922Y0004602D01*
X0150005Y0004511D01*
X0150091Y0004422D01*
X0150180Y0004336D01*
X0150271Y0004253D01*
X0150365Y0004172D01*
X0150462Y0004095D01*
X0150561Y0004021D01*
X0150662Y0003950D01*
X0150765Y0003882D01*
X0150871Y0003817D01*
X0150978Y0003756D01*
X0151088Y0003698D01*
X0151199Y0003644D01*
X0151311Y0003593D01*
X0151426Y0003545D01*
X0151541Y0003502D01*
X0151658Y0003462D01*
X0151777Y0003425D01*
X0151896Y0003393D01*
X0152016Y0003364D01*
X0152137Y0003339D01*
X0152259Y0003317D01*
X0152382Y0003300D01*
X0152504Y0003286D01*
X0152628Y0003277D01*
X0152751Y0003271D01*
X0152875Y0003269D01*
X0190276Y0003269D01*
X0190276Y0003761D01*
X0194213Y0007698D02*
X0194337Y0007696D01*
X0194460Y0007690D01*
X0194584Y0007681D01*
X0194706Y0007667D01*
X0194829Y0007650D01*
X0194951Y0007628D01*
X0195072Y0007603D01*
X0195192Y0007574D01*
X0195311Y0007542D01*
X0195430Y0007505D01*
X0195547Y0007465D01*
X0195662Y0007422D01*
X0195777Y0007374D01*
X0195889Y0007323D01*
X0196000Y0007269D01*
X0196110Y0007211D01*
X0196217Y0007150D01*
X0196323Y0007085D01*
X0196426Y0007017D01*
X0196527Y0006946D01*
X0196626Y0006872D01*
X0196723Y0006795D01*
X0196817Y0006714D01*
X0196908Y0006631D01*
X0196997Y0006545D01*
X0197083Y0006456D01*
X0197166Y0006365D01*
X0197247Y0006271D01*
X0197324Y0006174D01*
X0197398Y0006075D01*
X0197469Y0005974D01*
X0197537Y0005871D01*
X0197602Y0005765D01*
X0197663Y0005658D01*
X0197721Y0005548D01*
X0197775Y0005437D01*
X0197826Y0005325D01*
X0197874Y0005210D01*
X0197917Y0005095D01*
X0197957Y0004978D01*
X0197994Y0004859D01*
X0198026Y0004740D01*
X0198055Y0004620D01*
X0198080Y0004499D01*
X0198102Y0004377D01*
X0198119Y0004254D01*
X0198133Y0004132D01*
X0198142Y0004008D01*
X0198148Y0003885D01*
X0198150Y0003761D01*
X0198150Y0003269D01*
X0227678Y0003269D01*
X0227802Y0003271D01*
X0227925Y0003277D01*
X0228049Y0003286D01*
X0228171Y0003300D01*
X0228294Y0003317D01*
X0228416Y0003339D01*
X0228537Y0003364D01*
X0228657Y0003393D01*
X0228776Y0003425D01*
X0228895Y0003462D01*
X0229012Y0003502D01*
X0229127Y0003545D01*
X0229242Y0003593D01*
X0229354Y0003644D01*
X0229465Y0003698D01*
X0229575Y0003756D01*
X0229682Y0003817D01*
X0229788Y0003882D01*
X0229891Y0003950D01*
X0229992Y0004021D01*
X0230091Y0004095D01*
X0230188Y0004172D01*
X0230282Y0004253D01*
X0230373Y0004336D01*
X0230462Y0004422D01*
X0230548Y0004511D01*
X0230631Y0004602D01*
X0230712Y0004696D01*
X0230789Y0004793D01*
X0230863Y0004892D01*
X0230934Y0004993D01*
X0231002Y0005096D01*
X0231067Y0005202D01*
X0231128Y0005309D01*
X0231186Y0005419D01*
X0231240Y0005530D01*
X0231291Y0005642D01*
X0231339Y0005757D01*
X0231382Y0005872D01*
X0231422Y0005989D01*
X0231459Y0006108D01*
X0231491Y0006227D01*
X0231520Y0006347D01*
X0231545Y0006468D01*
X0231567Y0006590D01*
X0231584Y0006713D01*
X0231598Y0006835D01*
X0231607Y0006959D01*
X0231613Y0007082D01*
X0231615Y0007206D01*
X0231615Y0017048D01*
X0229646Y0019017D01*
X0229646Y0038702D01*
X0231615Y0040670D01*
X0231615Y0050513D01*
X0231613Y0050637D01*
X0231607Y0050760D01*
X0231598Y0050884D01*
X0231584Y0051006D01*
X0231567Y0051129D01*
X0231545Y0051251D01*
X0231520Y0051372D01*
X0231491Y0051492D01*
X0231459Y0051611D01*
X0231422Y0051730D01*
X0231382Y0051847D01*
X0231339Y0051962D01*
X0231291Y0052077D01*
X0231240Y0052189D01*
X0231186Y0052300D01*
X0231128Y0052410D01*
X0231067Y0052517D01*
X0231002Y0052623D01*
X0230934Y0052726D01*
X0230863Y0052827D01*
X0230789Y0052926D01*
X0230712Y0053023D01*
X0230631Y0053117D01*
X0230548Y0053208D01*
X0230462Y0053297D01*
X0230373Y0053383D01*
X0230282Y0053466D01*
X0230188Y0053547D01*
X0230091Y0053624D01*
X0229992Y0053698D01*
X0229891Y0053769D01*
X0229788Y0053837D01*
X0229682Y0053902D01*
X0229575Y0053963D01*
X0229465Y0054021D01*
X0229354Y0054075D01*
X0229242Y0054126D01*
X0229127Y0054174D01*
X0229012Y0054217D01*
X0228895Y0054257D01*
X0228776Y0054294D01*
X0228657Y0054326D01*
X0228537Y0054355D01*
X0228416Y0054380D01*
X0228294Y0054402D01*
X0228171Y0054419D01*
X0228049Y0054433D01*
X0227925Y0054442D01*
X0227802Y0054448D01*
X0227678Y0054450D01*
X0211930Y0054450D01*
X0211930Y0053957D01*
X0207993Y0050020D02*
X0207869Y0050022D01*
X0207746Y0050028D01*
X0207622Y0050037D01*
X0207500Y0050051D01*
X0207377Y0050068D01*
X0207255Y0050090D01*
X0207134Y0050115D01*
X0207014Y0050144D01*
X0206895Y0050176D01*
X0206776Y0050213D01*
X0206659Y0050253D01*
X0206544Y0050296D01*
X0206429Y0050344D01*
X0206317Y0050395D01*
X0206206Y0050449D01*
X0206096Y0050507D01*
X0205989Y0050568D01*
X0205883Y0050633D01*
X0205780Y0050701D01*
X0205679Y0050772D01*
X0205580Y0050846D01*
X0205483Y0050923D01*
X0205389Y0051004D01*
X0205298Y0051087D01*
X0205209Y0051173D01*
X0205123Y0051262D01*
X0205040Y0051353D01*
X0204959Y0051447D01*
X0204882Y0051544D01*
X0204808Y0051643D01*
X0204737Y0051744D01*
X0204669Y0051847D01*
X0204604Y0051953D01*
X0204543Y0052060D01*
X0204485Y0052170D01*
X0204431Y0052281D01*
X0204380Y0052393D01*
X0204332Y0052508D01*
X0204289Y0052623D01*
X0204249Y0052740D01*
X0204212Y0052859D01*
X0204180Y0052978D01*
X0204151Y0053098D01*
X0204126Y0053219D01*
X0204104Y0053341D01*
X0204087Y0053464D01*
X0204073Y0053586D01*
X0204064Y0053710D01*
X0204058Y0053833D01*
X0204056Y0053957D01*
X0204056Y0054450D01*
X0178465Y0054450D01*
X0178465Y0053957D01*
X0174528Y0050020D02*
X0174404Y0050022D01*
X0174281Y0050028D01*
X0174157Y0050037D01*
X0174035Y0050051D01*
X0173912Y0050068D01*
X0173790Y0050090D01*
X0173669Y0050115D01*
X0173549Y0050144D01*
X0173430Y0050176D01*
X0173311Y0050213D01*
X0173194Y0050253D01*
X0173079Y0050296D01*
X0172964Y0050344D01*
X0172852Y0050395D01*
X0172741Y0050449D01*
X0172631Y0050507D01*
X0172524Y0050568D01*
X0172418Y0050633D01*
X0172315Y0050701D01*
X0172214Y0050772D01*
X0172115Y0050846D01*
X0172018Y0050923D01*
X0171924Y0051004D01*
X0171833Y0051087D01*
X0171744Y0051173D01*
X0171658Y0051262D01*
X0171575Y0051353D01*
X0171494Y0051447D01*
X0171417Y0051544D01*
X0171343Y0051643D01*
X0171272Y0051744D01*
X0171204Y0051847D01*
X0171139Y0051953D01*
X0171078Y0052060D01*
X0171020Y0052170D01*
X0170966Y0052281D01*
X0170915Y0052393D01*
X0170867Y0052508D01*
X0170824Y0052623D01*
X0170784Y0052740D01*
X0170747Y0052859D01*
X0170715Y0052978D01*
X0170686Y0053098D01*
X0170661Y0053219D01*
X0170639Y0053341D01*
X0170622Y0053464D01*
X0170608Y0053586D01*
X0170599Y0053710D01*
X0170593Y0053833D01*
X0170591Y0053957D01*
X0170591Y0054450D01*
X0064292Y0054450D01*
X0064292Y0053957D01*
X0060355Y0050020D02*
X0060231Y0050022D01*
X0060108Y0050028D01*
X0059984Y0050037D01*
X0059862Y0050051D01*
X0059739Y0050068D01*
X0059617Y0050090D01*
X0059496Y0050115D01*
X0059376Y0050144D01*
X0059257Y0050176D01*
X0059138Y0050213D01*
X0059021Y0050253D01*
X0058906Y0050296D01*
X0058791Y0050344D01*
X0058679Y0050395D01*
X0058568Y0050449D01*
X0058458Y0050507D01*
X0058351Y0050568D01*
X0058245Y0050633D01*
X0058142Y0050701D01*
X0058041Y0050772D01*
X0057942Y0050846D01*
X0057845Y0050923D01*
X0057751Y0051004D01*
X0057660Y0051087D01*
X0057571Y0051173D01*
X0057485Y0051262D01*
X0057402Y0051353D01*
X0057321Y0051447D01*
X0057244Y0051544D01*
X0057170Y0051643D01*
X0057099Y0051744D01*
X0057031Y0051847D01*
X0056966Y0051953D01*
X0056905Y0052060D01*
X0056847Y0052170D01*
X0056793Y0052281D01*
X0056742Y0052393D01*
X0056694Y0052508D01*
X0056651Y0052623D01*
X0056611Y0052740D01*
X0056574Y0052859D01*
X0056542Y0052978D01*
X0056513Y0053098D01*
X0056488Y0053219D01*
X0056466Y0053341D01*
X0056449Y0053464D01*
X0056435Y0053586D01*
X0056426Y0053710D01*
X0056420Y0053833D01*
X0056418Y0053957D01*
X0056418Y0054450D01*
X0030828Y0054450D01*
X0030828Y0053957D01*
X0026891Y0050020D02*
X0026767Y0050022D01*
X0026644Y0050028D01*
X0026520Y0050037D01*
X0026398Y0050051D01*
X0026275Y0050068D01*
X0026153Y0050090D01*
X0026032Y0050115D01*
X0025912Y0050144D01*
X0025793Y0050176D01*
X0025674Y0050213D01*
X0025557Y0050253D01*
X0025442Y0050296D01*
X0025327Y0050344D01*
X0025215Y0050395D01*
X0025104Y0050449D01*
X0024994Y0050507D01*
X0024887Y0050568D01*
X0024781Y0050633D01*
X0024678Y0050701D01*
X0024577Y0050772D01*
X0024478Y0050846D01*
X0024381Y0050923D01*
X0024287Y0051004D01*
X0024196Y0051087D01*
X0024107Y0051173D01*
X0024021Y0051262D01*
X0023938Y0051353D01*
X0023857Y0051447D01*
X0023780Y0051544D01*
X0023706Y0051643D01*
X0023635Y0051744D01*
X0023567Y0051847D01*
X0023502Y0051953D01*
X0023441Y0052060D01*
X0023383Y0052170D01*
X0023329Y0052281D01*
X0023278Y0052393D01*
X0023230Y0052508D01*
X0023187Y0052623D01*
X0023147Y0052740D01*
X0023110Y0052859D01*
X0023078Y0052978D01*
X0023049Y0053098D01*
X0023024Y0053219D01*
X0023002Y0053341D01*
X0022985Y0053464D01*
X0022971Y0053586D01*
X0022962Y0053710D01*
X0022956Y0053833D01*
X0022954Y0053957D01*
X0022954Y0054450D01*
X0007206Y0054450D01*
X0007082Y0054448D01*
X0006959Y0054442D01*
X0006835Y0054433D01*
X0006713Y0054419D01*
X0006590Y0054402D01*
X0006468Y0054380D01*
X0006347Y0054355D01*
X0006227Y0054326D01*
X0006108Y0054294D01*
X0005989Y0054257D01*
X0005872Y0054217D01*
X0005757Y0054174D01*
X0005642Y0054126D01*
X0005530Y0054075D01*
X0005419Y0054021D01*
X0005309Y0053963D01*
X0005202Y0053902D01*
X0005096Y0053837D01*
X0004993Y0053769D01*
X0004892Y0053698D01*
X0004793Y0053624D01*
X0004696Y0053547D01*
X0004602Y0053466D01*
X0004511Y0053383D01*
X0004422Y0053297D01*
X0004336Y0053208D01*
X0004253Y0053117D01*
X0004172Y0053023D01*
X0004095Y0052926D01*
X0004021Y0052827D01*
X0003950Y0052726D01*
X0003882Y0052623D01*
X0003817Y0052517D01*
X0003756Y0052410D01*
X0003698Y0052300D01*
X0003644Y0052189D01*
X0003593Y0052077D01*
X0003545Y0051962D01*
X0003502Y0051847D01*
X0003462Y0051730D01*
X0003425Y0051611D01*
X0003393Y0051492D01*
X0003364Y0051372D01*
X0003339Y0051251D01*
X0003317Y0051129D01*
X0003300Y0051006D01*
X0003286Y0050884D01*
X0003277Y0050760D01*
X0003271Y0050637D01*
X0003269Y0050513D01*
X0003269Y0040670D01*
X0005237Y0038702D01*
X0005237Y0019017D01*
X0003269Y0017048D01*
X0003269Y0007206D01*
X0003271Y0007082D01*
X0003277Y0006959D01*
X0003286Y0006835D01*
X0003300Y0006713D01*
X0003317Y0006590D01*
X0003339Y0006468D01*
X0003364Y0006347D01*
X0003393Y0006227D01*
X0003425Y0006108D01*
X0003462Y0005989D01*
X0003502Y0005872D01*
X0003545Y0005757D01*
X0003593Y0005642D01*
X0003644Y0005530D01*
X0003698Y0005419D01*
X0003756Y0005309D01*
X0003817Y0005202D01*
X0003882Y0005096D01*
X0003950Y0004993D01*
X0004021Y0004892D01*
X0004095Y0004793D01*
X0004172Y0004696D01*
X0004253Y0004602D01*
X0004336Y0004511D01*
X0004422Y0004422D01*
X0004511Y0004336D01*
X0004602Y0004253D01*
X0004696Y0004172D01*
X0004793Y0004095D01*
X0004892Y0004021D01*
X0004993Y0003950D01*
X0005096Y0003882D01*
X0005202Y0003817D01*
X0005309Y0003756D01*
X0005419Y0003698D01*
X0005530Y0003644D01*
X0005642Y0003593D01*
X0005757Y0003545D01*
X0005872Y0003502D01*
X0005989Y0003462D01*
X0006108Y0003425D01*
X0006227Y0003393D01*
X0006347Y0003364D01*
X0006468Y0003339D01*
X0006590Y0003317D01*
X0006713Y0003300D01*
X0006835Y0003286D01*
X0006959Y0003277D01*
X0007082Y0003271D01*
X0007206Y0003269D01*
X0036733Y0003761D02*
X0036735Y0003885D01*
X0036741Y0004008D01*
X0036750Y0004132D01*
X0036764Y0004254D01*
X0036781Y0004377D01*
X0036803Y0004499D01*
X0036828Y0004620D01*
X0036857Y0004740D01*
X0036889Y0004859D01*
X0036926Y0004978D01*
X0036966Y0005095D01*
X0037009Y0005210D01*
X0037057Y0005325D01*
X0037108Y0005437D01*
X0037162Y0005548D01*
X0037220Y0005658D01*
X0037281Y0005765D01*
X0037346Y0005871D01*
X0037414Y0005974D01*
X0037485Y0006075D01*
X0037559Y0006174D01*
X0037636Y0006271D01*
X0037717Y0006365D01*
X0037800Y0006456D01*
X0037886Y0006545D01*
X0037975Y0006631D01*
X0038066Y0006714D01*
X0038160Y0006795D01*
X0038257Y0006872D01*
X0038356Y0006946D01*
X0038457Y0007017D01*
X0038560Y0007085D01*
X0038666Y0007150D01*
X0038773Y0007211D01*
X0038883Y0007269D01*
X0038994Y0007323D01*
X0039106Y0007374D01*
X0039221Y0007422D01*
X0039336Y0007465D01*
X0039453Y0007505D01*
X0039572Y0007542D01*
X0039691Y0007574D01*
X0039811Y0007603D01*
X0039932Y0007628D01*
X0040054Y0007650D01*
X0040177Y0007667D01*
X0040299Y0007681D01*
X0040423Y0007690D01*
X0040546Y0007696D01*
X0040670Y0007698D01*
X0073938Y0013111D02*
X0073940Y0013239D01*
X0073946Y0013367D01*
X0073956Y0013494D01*
X0073970Y0013622D01*
X0073987Y0013748D01*
X0074009Y0013874D01*
X0074035Y0014000D01*
X0074064Y0014124D01*
X0074097Y0014248D01*
X0074134Y0014370D01*
X0074175Y0014491D01*
X0074220Y0014611D01*
X0074268Y0014730D01*
X0074320Y0014847D01*
X0074376Y0014962D01*
X0074435Y0015076D01*
X0074497Y0015187D01*
X0074563Y0015297D01*
X0074632Y0015404D01*
X0074705Y0015510D01*
X0074781Y0015613D01*
X0074860Y0015713D01*
X0074942Y0015812D01*
X0075027Y0015907D01*
X0075115Y0016000D01*
X0075206Y0016090D01*
X0075299Y0016177D01*
X0075396Y0016262D01*
X0075494Y0016343D01*
X0075596Y0016421D01*
X0075699Y0016496D01*
X0075805Y0016568D01*
X0075913Y0016637D01*
X0076023Y0016702D01*
X0076136Y0016763D01*
X0076250Y0016822D01*
X0076365Y0016876D01*
X0076483Y0016927D01*
X0076601Y0016975D01*
X0076722Y0017018D01*
X0076843Y0017058D01*
X0076966Y0017094D01*
X0077090Y0017127D01*
X0077215Y0017155D01*
X0077340Y0017180D01*
X0077466Y0017200D01*
X0077593Y0017217D01*
X0077721Y0017230D01*
X0077848Y0017239D01*
X0077976Y0017244D01*
X0078104Y0017245D01*
X0078232Y0017242D01*
X0078360Y0017235D01*
X0078487Y0017224D01*
X0078614Y0017209D01*
X0078741Y0017191D01*
X0078867Y0017168D01*
X0078992Y0017141D01*
X0079116Y0017111D01*
X0079239Y0017077D01*
X0079362Y0017039D01*
X0079483Y0016997D01*
X0079602Y0016951D01*
X0079720Y0016902D01*
X0079837Y0016849D01*
X0079952Y0016793D01*
X0080065Y0016733D01*
X0080176Y0016670D01*
X0080285Y0016603D01*
X0080392Y0016533D01*
X0080497Y0016459D01*
X0080599Y0016383D01*
X0080699Y0016303D01*
X0080797Y0016220D01*
X0080892Y0016134D01*
X0080984Y0016045D01*
X0081073Y0015954D01*
X0081160Y0015860D01*
X0081243Y0015763D01*
X0081324Y0015663D01*
X0081401Y0015562D01*
X0081476Y0015457D01*
X0081547Y0015351D01*
X0081614Y0015242D01*
X0081679Y0015132D01*
X0081739Y0015019D01*
X0081797Y0014905D01*
X0081850Y0014789D01*
X0081900Y0014671D01*
X0081947Y0014552D01*
X0081990Y0014431D01*
X0082029Y0014309D01*
X0082064Y0014186D01*
X0082095Y0014062D01*
X0082123Y0013937D01*
X0082146Y0013811D01*
X0082166Y0013685D01*
X0082182Y0013558D01*
X0082194Y0013431D01*
X0082202Y0013303D01*
X0082206Y0013175D01*
X0082206Y0013047D01*
X0082202Y0012919D01*
X0082194Y0012791D01*
X0082182Y0012664D01*
X0082166Y0012537D01*
X0082146Y0012411D01*
X0082123Y0012285D01*
X0082095Y0012160D01*
X0082064Y0012036D01*
X0082029Y0011913D01*
X0081990Y0011791D01*
X0081947Y0011670D01*
X0081900Y0011551D01*
X0081850Y0011433D01*
X0081797Y0011317D01*
X0081739Y0011203D01*
X0081679Y0011090D01*
X0081614Y0010980D01*
X0081547Y0010871D01*
X0081476Y0010765D01*
X0081401Y0010660D01*
X0081324Y0010559D01*
X0081243Y0010459D01*
X0081160Y0010362D01*
X0081073Y0010268D01*
X0080984Y0010177D01*
X0080892Y0010088D01*
X0080797Y0010002D01*
X0080699Y0009919D01*
X0080599Y0009839D01*
X0080497Y0009763D01*
X0080392Y0009689D01*
X0080285Y0009619D01*
X0080176Y0009552D01*
X0080065Y0009489D01*
X0079952Y0009429D01*
X0079837Y0009373D01*
X0079720Y0009320D01*
X0079602Y0009271D01*
X0079483Y0009225D01*
X0079362Y0009183D01*
X0079239Y0009145D01*
X0079116Y0009111D01*
X0078992Y0009081D01*
X0078867Y0009054D01*
X0078741Y0009031D01*
X0078614Y0009013D01*
X0078487Y0008998D01*
X0078360Y0008987D01*
X0078232Y0008980D01*
X0078104Y0008977D01*
X0077976Y0008978D01*
X0077848Y0008983D01*
X0077721Y0008992D01*
X0077593Y0009005D01*
X0077466Y0009022D01*
X0077340Y0009042D01*
X0077215Y0009067D01*
X0077090Y0009095D01*
X0076966Y0009128D01*
X0076843Y0009164D01*
X0076722Y0009204D01*
X0076601Y0009247D01*
X0076483Y0009295D01*
X0076365Y0009346D01*
X0076250Y0009400D01*
X0076136Y0009459D01*
X0076023Y0009520D01*
X0075913Y0009585D01*
X0075805Y0009654D01*
X0075699Y0009726D01*
X0075596Y0009801D01*
X0075494Y0009879D01*
X0075396Y0009960D01*
X0075299Y0010045D01*
X0075206Y0010132D01*
X0075115Y0010222D01*
X0075027Y0010315D01*
X0074942Y0010410D01*
X0074860Y0010509D01*
X0074781Y0010609D01*
X0074705Y0010712D01*
X0074632Y0010818D01*
X0074563Y0010925D01*
X0074497Y0011035D01*
X0074435Y0011146D01*
X0074376Y0011260D01*
X0074320Y0011375D01*
X0074268Y0011492D01*
X0074220Y0011611D01*
X0074175Y0011731D01*
X0074134Y0011852D01*
X0074097Y0011974D01*
X0074064Y0012098D01*
X0074035Y0012222D01*
X0074009Y0012348D01*
X0073987Y0012474D01*
X0073970Y0012600D01*
X0073956Y0012728D01*
X0073946Y0012855D01*
X0073940Y0012983D01*
X0073938Y0013111D01*
X0037717Y0026891D02*
X0037719Y0026999D01*
X0037725Y0027108D01*
X0037735Y0027216D01*
X0037749Y0027323D01*
X0037767Y0027430D01*
X0037788Y0027537D01*
X0037814Y0027642D01*
X0037844Y0027747D01*
X0037877Y0027850D01*
X0037914Y0027952D01*
X0037955Y0028052D01*
X0037999Y0028151D01*
X0038048Y0028249D01*
X0038099Y0028344D01*
X0038154Y0028437D01*
X0038213Y0028529D01*
X0038275Y0028618D01*
X0038340Y0028705D01*
X0038408Y0028789D01*
X0038479Y0028871D01*
X0038553Y0028950D01*
X0038630Y0029026D01*
X0038710Y0029100D01*
X0038793Y0029170D01*
X0038878Y0029238D01*
X0038965Y0029302D01*
X0039055Y0029363D01*
X0039147Y0029421D01*
X0039241Y0029475D01*
X0039337Y0029526D01*
X0039434Y0029573D01*
X0039534Y0029617D01*
X0039635Y0029657D01*
X0039737Y0029693D01*
X0039840Y0029725D01*
X0039945Y0029754D01*
X0040051Y0029778D01*
X0040157Y0029799D01*
X0040264Y0029816D01*
X0040372Y0029829D01*
X0040480Y0029838D01*
X0040589Y0029843D01*
X0040697Y0029844D01*
X0040806Y0029841D01*
X0040914Y0029834D01*
X0041022Y0029823D01*
X0041129Y0029808D01*
X0041236Y0029789D01*
X0041342Y0029766D01*
X0041447Y0029740D01*
X0041552Y0029709D01*
X0041654Y0029675D01*
X0041756Y0029637D01*
X0041856Y0029595D01*
X0041955Y0029550D01*
X0042052Y0029501D01*
X0042146Y0029448D01*
X0042239Y0029392D01*
X0042330Y0029333D01*
X0042419Y0029270D01*
X0042505Y0029205D01*
X0042589Y0029136D01*
X0042670Y0029064D01*
X0042748Y0028989D01*
X0042824Y0028911D01*
X0042897Y0028830D01*
X0042967Y0028747D01*
X0043033Y0028662D01*
X0043097Y0028574D01*
X0043157Y0028483D01*
X0043214Y0028391D01*
X0043267Y0028296D01*
X0043317Y0028200D01*
X0043363Y0028102D01*
X0043406Y0028002D01*
X0043445Y0027901D01*
X0043480Y0027798D01*
X0043512Y0027695D01*
X0043539Y0027590D01*
X0043563Y0027484D01*
X0043583Y0027377D01*
X0043599Y0027270D01*
X0043611Y0027162D01*
X0043619Y0027054D01*
X0043623Y0026945D01*
X0043623Y0026837D01*
X0043619Y0026728D01*
X0043611Y0026620D01*
X0043599Y0026512D01*
X0043583Y0026405D01*
X0043563Y0026298D01*
X0043539Y0026192D01*
X0043512Y0026087D01*
X0043480Y0025984D01*
X0043445Y0025881D01*
X0043406Y0025780D01*
X0043363Y0025680D01*
X0043317Y0025582D01*
X0043267Y0025486D01*
X0043214Y0025391D01*
X0043157Y0025299D01*
X0043097Y0025208D01*
X0043033Y0025120D01*
X0042967Y0025035D01*
X0042897Y0024952D01*
X0042824Y0024871D01*
X0042748Y0024793D01*
X0042670Y0024718D01*
X0042589Y0024646D01*
X0042505Y0024577D01*
X0042419Y0024512D01*
X0042330Y0024449D01*
X0042239Y0024390D01*
X0042147Y0024334D01*
X0042052Y0024281D01*
X0041955Y0024232D01*
X0041856Y0024187D01*
X0041756Y0024145D01*
X0041654Y0024107D01*
X0041552Y0024073D01*
X0041447Y0024042D01*
X0041342Y0024016D01*
X0041236Y0023993D01*
X0041129Y0023974D01*
X0041022Y0023959D01*
X0040914Y0023948D01*
X0040806Y0023941D01*
X0040697Y0023938D01*
X0040589Y0023939D01*
X0040480Y0023944D01*
X0040372Y0023953D01*
X0040264Y0023966D01*
X0040157Y0023983D01*
X0040051Y0024004D01*
X0039945Y0024028D01*
X0039840Y0024057D01*
X0039737Y0024089D01*
X0039635Y0024125D01*
X0039534Y0024165D01*
X0039434Y0024209D01*
X0039337Y0024256D01*
X0039241Y0024307D01*
X0039147Y0024361D01*
X0039055Y0024419D01*
X0038965Y0024480D01*
X0038878Y0024544D01*
X0038793Y0024612D01*
X0038710Y0024682D01*
X0038630Y0024756D01*
X0038553Y0024832D01*
X0038479Y0024911D01*
X0038408Y0024993D01*
X0038340Y0025077D01*
X0038275Y0025164D01*
X0038213Y0025253D01*
X0038154Y0025345D01*
X0038099Y0025438D01*
X0038048Y0025533D01*
X0037999Y0025631D01*
X0037955Y0025730D01*
X0037914Y0025830D01*
X0037877Y0025932D01*
X0037844Y0026035D01*
X0037814Y0026140D01*
X0037788Y0026245D01*
X0037767Y0026352D01*
X0037749Y0026459D01*
X0037735Y0026566D01*
X0037725Y0026674D01*
X0037719Y0026783D01*
X0037717Y0026891D01*
X0007009Y0044607D02*
X0007011Y0044735D01*
X0007017Y0044863D01*
X0007027Y0044990D01*
X0007041Y0045118D01*
X0007058Y0045244D01*
X0007080Y0045370D01*
X0007106Y0045496D01*
X0007135Y0045620D01*
X0007168Y0045744D01*
X0007205Y0045866D01*
X0007246Y0045987D01*
X0007291Y0046107D01*
X0007339Y0046226D01*
X0007391Y0046343D01*
X0007447Y0046458D01*
X0007506Y0046572D01*
X0007568Y0046683D01*
X0007634Y0046793D01*
X0007703Y0046900D01*
X0007776Y0047006D01*
X0007852Y0047109D01*
X0007931Y0047209D01*
X0008013Y0047308D01*
X0008098Y0047403D01*
X0008186Y0047496D01*
X0008277Y0047586D01*
X0008370Y0047673D01*
X0008467Y0047758D01*
X0008565Y0047839D01*
X0008667Y0047917D01*
X0008770Y0047992D01*
X0008876Y0048064D01*
X0008984Y0048133D01*
X0009094Y0048198D01*
X0009207Y0048259D01*
X0009321Y0048318D01*
X0009436Y0048372D01*
X0009554Y0048423D01*
X0009672Y0048471D01*
X0009793Y0048514D01*
X0009914Y0048554D01*
X0010037Y0048590D01*
X0010161Y0048623D01*
X0010286Y0048651D01*
X0010411Y0048676D01*
X0010537Y0048696D01*
X0010664Y0048713D01*
X0010792Y0048726D01*
X0010919Y0048735D01*
X0011047Y0048740D01*
X0011175Y0048741D01*
X0011303Y0048738D01*
X0011431Y0048731D01*
X0011558Y0048720D01*
X0011685Y0048705D01*
X0011812Y0048687D01*
X0011938Y0048664D01*
X0012063Y0048637D01*
X0012187Y0048607D01*
X0012310Y0048573D01*
X0012433Y0048535D01*
X0012554Y0048493D01*
X0012673Y0048447D01*
X0012791Y0048398D01*
X0012908Y0048345D01*
X0013023Y0048289D01*
X0013136Y0048229D01*
X0013247Y0048166D01*
X0013356Y0048099D01*
X0013463Y0048029D01*
X0013568Y0047955D01*
X0013670Y0047879D01*
X0013770Y0047799D01*
X0013868Y0047716D01*
X0013963Y0047630D01*
X0014055Y0047541D01*
X0014144Y0047450D01*
X0014231Y0047356D01*
X0014314Y0047259D01*
X0014395Y0047159D01*
X0014472Y0047058D01*
X0014547Y0046953D01*
X0014618Y0046847D01*
X0014685Y0046738D01*
X0014750Y0046628D01*
X0014810Y0046515D01*
X0014868Y0046401D01*
X0014921Y0046285D01*
X0014971Y0046167D01*
X0015018Y0046048D01*
X0015061Y0045927D01*
X0015100Y0045805D01*
X0015135Y0045682D01*
X0015166Y0045558D01*
X0015194Y0045433D01*
X0015217Y0045307D01*
X0015237Y0045181D01*
X0015253Y0045054D01*
X0015265Y0044927D01*
X0015273Y0044799D01*
X0015277Y0044671D01*
X0015277Y0044543D01*
X0015273Y0044415D01*
X0015265Y0044287D01*
X0015253Y0044160D01*
X0015237Y0044033D01*
X0015217Y0043907D01*
X0015194Y0043781D01*
X0015166Y0043656D01*
X0015135Y0043532D01*
X0015100Y0043409D01*
X0015061Y0043287D01*
X0015018Y0043166D01*
X0014971Y0043047D01*
X0014921Y0042929D01*
X0014868Y0042813D01*
X0014810Y0042699D01*
X0014750Y0042586D01*
X0014685Y0042476D01*
X0014618Y0042367D01*
X0014547Y0042261D01*
X0014472Y0042156D01*
X0014395Y0042055D01*
X0014314Y0041955D01*
X0014231Y0041858D01*
X0014144Y0041764D01*
X0014055Y0041673D01*
X0013963Y0041584D01*
X0013868Y0041498D01*
X0013770Y0041415D01*
X0013670Y0041335D01*
X0013568Y0041259D01*
X0013463Y0041185D01*
X0013356Y0041115D01*
X0013247Y0041048D01*
X0013136Y0040985D01*
X0013023Y0040925D01*
X0012908Y0040869D01*
X0012791Y0040816D01*
X0012673Y0040767D01*
X0012554Y0040721D01*
X0012433Y0040679D01*
X0012310Y0040641D01*
X0012187Y0040607D01*
X0012063Y0040577D01*
X0011938Y0040550D01*
X0011812Y0040527D01*
X0011685Y0040509D01*
X0011558Y0040494D01*
X0011431Y0040483D01*
X0011303Y0040476D01*
X0011175Y0040473D01*
X0011047Y0040474D01*
X0010919Y0040479D01*
X0010792Y0040488D01*
X0010664Y0040501D01*
X0010537Y0040518D01*
X0010411Y0040538D01*
X0010286Y0040563D01*
X0010161Y0040591D01*
X0010037Y0040624D01*
X0009914Y0040660D01*
X0009793Y0040700D01*
X0009672Y0040743D01*
X0009554Y0040791D01*
X0009436Y0040842D01*
X0009321Y0040896D01*
X0009207Y0040955D01*
X0009094Y0041016D01*
X0008984Y0041081D01*
X0008876Y0041150D01*
X0008770Y0041222D01*
X0008667Y0041297D01*
X0008565Y0041375D01*
X0008467Y0041456D01*
X0008370Y0041541D01*
X0008277Y0041628D01*
X0008186Y0041718D01*
X0008098Y0041811D01*
X0008013Y0041906D01*
X0007931Y0042005D01*
X0007852Y0042105D01*
X0007776Y0042208D01*
X0007703Y0042314D01*
X0007634Y0042421D01*
X0007568Y0042531D01*
X0007506Y0042642D01*
X0007447Y0042756D01*
X0007391Y0042871D01*
X0007339Y0042988D01*
X0007291Y0043107D01*
X0007246Y0043227D01*
X0007205Y0043348D01*
X0007168Y0043470D01*
X0007135Y0043594D01*
X0007106Y0043718D01*
X0007080Y0043844D01*
X0007058Y0043970D01*
X0007041Y0044096D01*
X0007027Y0044224D01*
X0007017Y0044351D01*
X0007011Y0044479D01*
X0007009Y0044607D01*
X0026891Y0050020D02*
X0027015Y0050022D01*
X0027138Y0050028D01*
X0027262Y0050037D01*
X0027384Y0050051D01*
X0027507Y0050068D01*
X0027629Y0050090D01*
X0027750Y0050115D01*
X0027870Y0050144D01*
X0027989Y0050176D01*
X0028108Y0050213D01*
X0028225Y0050253D01*
X0028340Y0050296D01*
X0028455Y0050344D01*
X0028567Y0050395D01*
X0028678Y0050449D01*
X0028788Y0050507D01*
X0028895Y0050568D01*
X0029001Y0050633D01*
X0029104Y0050701D01*
X0029205Y0050772D01*
X0029304Y0050846D01*
X0029401Y0050923D01*
X0029495Y0051004D01*
X0029586Y0051087D01*
X0029675Y0051173D01*
X0029761Y0051262D01*
X0029844Y0051353D01*
X0029925Y0051447D01*
X0030002Y0051544D01*
X0030076Y0051643D01*
X0030147Y0051744D01*
X0030215Y0051847D01*
X0030280Y0051953D01*
X0030341Y0052060D01*
X0030399Y0052170D01*
X0030453Y0052281D01*
X0030504Y0052393D01*
X0030552Y0052508D01*
X0030595Y0052623D01*
X0030635Y0052740D01*
X0030672Y0052859D01*
X0030704Y0052978D01*
X0030733Y0053098D01*
X0030758Y0053219D01*
X0030780Y0053341D01*
X0030797Y0053464D01*
X0030811Y0053586D01*
X0030820Y0053710D01*
X0030826Y0053833D01*
X0030828Y0053957D01*
X0060355Y0050020D02*
X0060479Y0050022D01*
X0060602Y0050028D01*
X0060726Y0050037D01*
X0060848Y0050051D01*
X0060971Y0050068D01*
X0061093Y0050090D01*
X0061214Y0050115D01*
X0061334Y0050144D01*
X0061453Y0050176D01*
X0061572Y0050213D01*
X0061689Y0050253D01*
X0061804Y0050296D01*
X0061919Y0050344D01*
X0062031Y0050395D01*
X0062142Y0050449D01*
X0062252Y0050507D01*
X0062359Y0050568D01*
X0062465Y0050633D01*
X0062568Y0050701D01*
X0062669Y0050772D01*
X0062768Y0050846D01*
X0062865Y0050923D01*
X0062959Y0051004D01*
X0063050Y0051087D01*
X0063139Y0051173D01*
X0063225Y0051262D01*
X0063308Y0051353D01*
X0063389Y0051447D01*
X0063466Y0051544D01*
X0063540Y0051643D01*
X0063611Y0051744D01*
X0063679Y0051847D01*
X0063744Y0051953D01*
X0063805Y0052060D01*
X0063863Y0052170D01*
X0063917Y0052281D01*
X0063968Y0052393D01*
X0064016Y0052508D01*
X0064059Y0052623D01*
X0064099Y0052740D01*
X0064136Y0052859D01*
X0064168Y0052978D01*
X0064197Y0053098D01*
X0064222Y0053219D01*
X0064244Y0053341D01*
X0064261Y0053464D01*
X0064275Y0053586D01*
X0064284Y0053710D01*
X0064290Y0053833D01*
X0064292Y0053957D01*
X0113308Y0032796D02*
X0113310Y0032924D01*
X0113316Y0033052D01*
X0113326Y0033179D01*
X0113340Y0033307D01*
X0113357Y0033433D01*
X0113379Y0033559D01*
X0113405Y0033685D01*
X0113434Y0033809D01*
X0113467Y0033933D01*
X0113504Y0034055D01*
X0113545Y0034176D01*
X0113590Y0034296D01*
X0113638Y0034415D01*
X0113690Y0034532D01*
X0113746Y0034647D01*
X0113805Y0034761D01*
X0113867Y0034872D01*
X0113933Y0034982D01*
X0114002Y0035089D01*
X0114075Y0035195D01*
X0114151Y0035298D01*
X0114230Y0035398D01*
X0114312Y0035497D01*
X0114397Y0035592D01*
X0114485Y0035685D01*
X0114576Y0035775D01*
X0114669Y0035862D01*
X0114766Y0035947D01*
X0114864Y0036028D01*
X0114966Y0036106D01*
X0115069Y0036181D01*
X0115175Y0036253D01*
X0115283Y0036322D01*
X0115393Y0036387D01*
X0115506Y0036448D01*
X0115620Y0036507D01*
X0115735Y0036561D01*
X0115853Y0036612D01*
X0115971Y0036660D01*
X0116092Y0036703D01*
X0116213Y0036743D01*
X0116336Y0036779D01*
X0116460Y0036812D01*
X0116585Y0036840D01*
X0116710Y0036865D01*
X0116836Y0036885D01*
X0116963Y0036902D01*
X0117091Y0036915D01*
X0117218Y0036924D01*
X0117346Y0036929D01*
X0117474Y0036930D01*
X0117602Y0036927D01*
X0117730Y0036920D01*
X0117857Y0036909D01*
X0117984Y0036894D01*
X0118111Y0036876D01*
X0118237Y0036853D01*
X0118362Y0036826D01*
X0118486Y0036796D01*
X0118609Y0036762D01*
X0118732Y0036724D01*
X0118853Y0036682D01*
X0118972Y0036636D01*
X0119090Y0036587D01*
X0119207Y0036534D01*
X0119322Y0036478D01*
X0119435Y0036418D01*
X0119546Y0036355D01*
X0119655Y0036288D01*
X0119762Y0036218D01*
X0119867Y0036144D01*
X0119969Y0036068D01*
X0120069Y0035988D01*
X0120167Y0035905D01*
X0120262Y0035819D01*
X0120354Y0035730D01*
X0120443Y0035639D01*
X0120530Y0035545D01*
X0120613Y0035448D01*
X0120694Y0035348D01*
X0120771Y0035247D01*
X0120846Y0035142D01*
X0120917Y0035036D01*
X0120984Y0034927D01*
X0121049Y0034817D01*
X0121109Y0034704D01*
X0121167Y0034590D01*
X0121220Y0034474D01*
X0121270Y0034356D01*
X0121317Y0034237D01*
X0121360Y0034116D01*
X0121399Y0033994D01*
X0121434Y0033871D01*
X0121465Y0033747D01*
X0121493Y0033622D01*
X0121516Y0033496D01*
X0121536Y0033370D01*
X0121552Y0033243D01*
X0121564Y0033116D01*
X0121572Y0032988D01*
X0121576Y0032860D01*
X0121576Y0032732D01*
X0121572Y0032604D01*
X0121564Y0032476D01*
X0121552Y0032349D01*
X0121536Y0032222D01*
X0121516Y0032096D01*
X0121493Y0031970D01*
X0121465Y0031845D01*
X0121434Y0031721D01*
X0121399Y0031598D01*
X0121360Y0031476D01*
X0121317Y0031355D01*
X0121270Y0031236D01*
X0121220Y0031118D01*
X0121167Y0031002D01*
X0121109Y0030888D01*
X0121049Y0030775D01*
X0120984Y0030665D01*
X0120917Y0030556D01*
X0120846Y0030450D01*
X0120771Y0030345D01*
X0120694Y0030244D01*
X0120613Y0030144D01*
X0120530Y0030047D01*
X0120443Y0029953D01*
X0120354Y0029862D01*
X0120262Y0029773D01*
X0120167Y0029687D01*
X0120069Y0029604D01*
X0119969Y0029524D01*
X0119867Y0029448D01*
X0119762Y0029374D01*
X0119655Y0029304D01*
X0119546Y0029237D01*
X0119435Y0029174D01*
X0119322Y0029114D01*
X0119207Y0029058D01*
X0119090Y0029005D01*
X0118972Y0028956D01*
X0118853Y0028910D01*
X0118732Y0028868D01*
X0118609Y0028830D01*
X0118486Y0028796D01*
X0118362Y0028766D01*
X0118237Y0028739D01*
X0118111Y0028716D01*
X0117984Y0028698D01*
X0117857Y0028683D01*
X0117730Y0028672D01*
X0117602Y0028665D01*
X0117474Y0028662D01*
X0117346Y0028663D01*
X0117218Y0028668D01*
X0117091Y0028677D01*
X0116963Y0028690D01*
X0116836Y0028707D01*
X0116710Y0028727D01*
X0116585Y0028752D01*
X0116460Y0028780D01*
X0116336Y0028813D01*
X0116213Y0028849D01*
X0116092Y0028889D01*
X0115971Y0028932D01*
X0115853Y0028980D01*
X0115735Y0029031D01*
X0115620Y0029085D01*
X0115506Y0029144D01*
X0115393Y0029205D01*
X0115283Y0029270D01*
X0115175Y0029339D01*
X0115069Y0029411D01*
X0114966Y0029486D01*
X0114864Y0029564D01*
X0114766Y0029645D01*
X0114669Y0029730D01*
X0114576Y0029817D01*
X0114485Y0029907D01*
X0114397Y0030000D01*
X0114312Y0030095D01*
X0114230Y0030194D01*
X0114151Y0030294D01*
X0114075Y0030397D01*
X0114002Y0030503D01*
X0113933Y0030610D01*
X0113867Y0030720D01*
X0113805Y0030831D01*
X0113746Y0030945D01*
X0113690Y0031060D01*
X0113638Y0031177D01*
X0113590Y0031296D01*
X0113545Y0031416D01*
X0113504Y0031537D01*
X0113467Y0031659D01*
X0113434Y0031783D01*
X0113405Y0031907D01*
X0113379Y0032033D01*
X0113357Y0032159D01*
X0113340Y0032285D01*
X0113326Y0032413D01*
X0113316Y0032540D01*
X0113310Y0032668D01*
X0113308Y0032796D01*
X0152678Y0013111D02*
X0152680Y0013239D01*
X0152686Y0013367D01*
X0152696Y0013494D01*
X0152710Y0013622D01*
X0152727Y0013748D01*
X0152749Y0013874D01*
X0152775Y0014000D01*
X0152804Y0014124D01*
X0152837Y0014248D01*
X0152874Y0014370D01*
X0152915Y0014491D01*
X0152960Y0014611D01*
X0153008Y0014730D01*
X0153060Y0014847D01*
X0153116Y0014962D01*
X0153175Y0015076D01*
X0153237Y0015187D01*
X0153303Y0015297D01*
X0153372Y0015404D01*
X0153445Y0015510D01*
X0153521Y0015613D01*
X0153600Y0015713D01*
X0153682Y0015812D01*
X0153767Y0015907D01*
X0153855Y0016000D01*
X0153946Y0016090D01*
X0154039Y0016177D01*
X0154136Y0016262D01*
X0154234Y0016343D01*
X0154336Y0016421D01*
X0154439Y0016496D01*
X0154545Y0016568D01*
X0154653Y0016637D01*
X0154763Y0016702D01*
X0154876Y0016763D01*
X0154990Y0016822D01*
X0155105Y0016876D01*
X0155223Y0016927D01*
X0155341Y0016975D01*
X0155462Y0017018D01*
X0155583Y0017058D01*
X0155706Y0017094D01*
X0155830Y0017127D01*
X0155955Y0017155D01*
X0156080Y0017180D01*
X0156206Y0017200D01*
X0156333Y0017217D01*
X0156461Y0017230D01*
X0156588Y0017239D01*
X0156716Y0017244D01*
X0156844Y0017245D01*
X0156972Y0017242D01*
X0157100Y0017235D01*
X0157227Y0017224D01*
X0157354Y0017209D01*
X0157481Y0017191D01*
X0157607Y0017168D01*
X0157732Y0017141D01*
X0157856Y0017111D01*
X0157979Y0017077D01*
X0158102Y0017039D01*
X0158223Y0016997D01*
X0158342Y0016951D01*
X0158460Y0016902D01*
X0158577Y0016849D01*
X0158692Y0016793D01*
X0158805Y0016733D01*
X0158916Y0016670D01*
X0159025Y0016603D01*
X0159132Y0016533D01*
X0159237Y0016459D01*
X0159339Y0016383D01*
X0159439Y0016303D01*
X0159537Y0016220D01*
X0159632Y0016134D01*
X0159724Y0016045D01*
X0159813Y0015954D01*
X0159900Y0015860D01*
X0159983Y0015763D01*
X0160064Y0015663D01*
X0160141Y0015562D01*
X0160216Y0015457D01*
X0160287Y0015351D01*
X0160354Y0015242D01*
X0160419Y0015132D01*
X0160479Y0015019D01*
X0160537Y0014905D01*
X0160590Y0014789D01*
X0160640Y0014671D01*
X0160687Y0014552D01*
X0160730Y0014431D01*
X0160769Y0014309D01*
X0160804Y0014186D01*
X0160835Y0014062D01*
X0160863Y0013937D01*
X0160886Y0013811D01*
X0160906Y0013685D01*
X0160922Y0013558D01*
X0160934Y0013431D01*
X0160942Y0013303D01*
X0160946Y0013175D01*
X0160946Y0013047D01*
X0160942Y0012919D01*
X0160934Y0012791D01*
X0160922Y0012664D01*
X0160906Y0012537D01*
X0160886Y0012411D01*
X0160863Y0012285D01*
X0160835Y0012160D01*
X0160804Y0012036D01*
X0160769Y0011913D01*
X0160730Y0011791D01*
X0160687Y0011670D01*
X0160640Y0011551D01*
X0160590Y0011433D01*
X0160537Y0011317D01*
X0160479Y0011203D01*
X0160419Y0011090D01*
X0160354Y0010980D01*
X0160287Y0010871D01*
X0160216Y0010765D01*
X0160141Y0010660D01*
X0160064Y0010559D01*
X0159983Y0010459D01*
X0159900Y0010362D01*
X0159813Y0010268D01*
X0159724Y0010177D01*
X0159632Y0010088D01*
X0159537Y0010002D01*
X0159439Y0009919D01*
X0159339Y0009839D01*
X0159237Y0009763D01*
X0159132Y0009689D01*
X0159025Y0009619D01*
X0158916Y0009552D01*
X0158805Y0009489D01*
X0158692Y0009429D01*
X0158577Y0009373D01*
X0158460Y0009320D01*
X0158342Y0009271D01*
X0158223Y0009225D01*
X0158102Y0009183D01*
X0157979Y0009145D01*
X0157856Y0009111D01*
X0157732Y0009081D01*
X0157607Y0009054D01*
X0157481Y0009031D01*
X0157354Y0009013D01*
X0157227Y0008998D01*
X0157100Y0008987D01*
X0156972Y0008980D01*
X0156844Y0008977D01*
X0156716Y0008978D01*
X0156588Y0008983D01*
X0156461Y0008992D01*
X0156333Y0009005D01*
X0156206Y0009022D01*
X0156080Y0009042D01*
X0155955Y0009067D01*
X0155830Y0009095D01*
X0155706Y0009128D01*
X0155583Y0009164D01*
X0155462Y0009204D01*
X0155341Y0009247D01*
X0155223Y0009295D01*
X0155105Y0009346D01*
X0154990Y0009400D01*
X0154876Y0009459D01*
X0154763Y0009520D01*
X0154653Y0009585D01*
X0154545Y0009654D01*
X0154439Y0009726D01*
X0154336Y0009801D01*
X0154234Y0009879D01*
X0154136Y0009960D01*
X0154039Y0010045D01*
X0153946Y0010132D01*
X0153855Y0010222D01*
X0153767Y0010315D01*
X0153682Y0010410D01*
X0153600Y0010509D01*
X0153521Y0010609D01*
X0153445Y0010712D01*
X0153372Y0010818D01*
X0153303Y0010925D01*
X0153237Y0011035D01*
X0153175Y0011146D01*
X0153116Y0011260D01*
X0153060Y0011375D01*
X0153008Y0011492D01*
X0152960Y0011611D01*
X0152915Y0011731D01*
X0152874Y0011852D01*
X0152837Y0011974D01*
X0152804Y0012098D01*
X0152775Y0012222D01*
X0152749Y0012348D01*
X0152727Y0012474D01*
X0152710Y0012600D01*
X0152696Y0012728D01*
X0152686Y0012855D01*
X0152680Y0012983D01*
X0152678Y0013111D01*
X0190276Y0003761D02*
X0190278Y0003885D01*
X0190284Y0004008D01*
X0190293Y0004132D01*
X0190307Y0004254D01*
X0190324Y0004377D01*
X0190346Y0004499D01*
X0190371Y0004620D01*
X0190400Y0004740D01*
X0190432Y0004859D01*
X0190469Y0004978D01*
X0190509Y0005095D01*
X0190552Y0005210D01*
X0190600Y0005325D01*
X0190651Y0005437D01*
X0190705Y0005548D01*
X0190763Y0005658D01*
X0190824Y0005765D01*
X0190889Y0005871D01*
X0190957Y0005974D01*
X0191028Y0006075D01*
X0191102Y0006174D01*
X0191179Y0006271D01*
X0191260Y0006365D01*
X0191343Y0006456D01*
X0191429Y0006545D01*
X0191518Y0006631D01*
X0191609Y0006714D01*
X0191703Y0006795D01*
X0191800Y0006872D01*
X0191899Y0006946D01*
X0192000Y0007017D01*
X0192103Y0007085D01*
X0192209Y0007150D01*
X0192316Y0007211D01*
X0192426Y0007269D01*
X0192537Y0007323D01*
X0192649Y0007374D01*
X0192764Y0007422D01*
X0192879Y0007465D01*
X0192996Y0007505D01*
X0193115Y0007542D01*
X0193234Y0007574D01*
X0193354Y0007603D01*
X0193475Y0007628D01*
X0193597Y0007650D01*
X0193720Y0007667D01*
X0193842Y0007681D01*
X0193966Y0007690D01*
X0194089Y0007696D01*
X0194213Y0007698D01*
X0191260Y0026891D02*
X0191262Y0026999D01*
X0191268Y0027108D01*
X0191278Y0027216D01*
X0191292Y0027323D01*
X0191310Y0027430D01*
X0191331Y0027537D01*
X0191357Y0027642D01*
X0191387Y0027747D01*
X0191420Y0027850D01*
X0191457Y0027952D01*
X0191498Y0028052D01*
X0191542Y0028151D01*
X0191591Y0028249D01*
X0191642Y0028344D01*
X0191697Y0028437D01*
X0191756Y0028529D01*
X0191818Y0028618D01*
X0191883Y0028705D01*
X0191951Y0028789D01*
X0192022Y0028871D01*
X0192096Y0028950D01*
X0192173Y0029026D01*
X0192253Y0029100D01*
X0192336Y0029170D01*
X0192421Y0029238D01*
X0192508Y0029302D01*
X0192598Y0029363D01*
X0192690Y0029421D01*
X0192784Y0029475D01*
X0192880Y0029526D01*
X0192977Y0029573D01*
X0193077Y0029617D01*
X0193178Y0029657D01*
X0193280Y0029693D01*
X0193383Y0029725D01*
X0193488Y0029754D01*
X0193594Y0029778D01*
X0193700Y0029799D01*
X0193807Y0029816D01*
X0193915Y0029829D01*
X0194023Y0029838D01*
X0194132Y0029843D01*
X0194240Y0029844D01*
X0194349Y0029841D01*
X0194457Y0029834D01*
X0194565Y0029823D01*
X0194672Y0029808D01*
X0194779Y0029789D01*
X0194885Y0029766D01*
X0194990Y0029740D01*
X0195095Y0029709D01*
X0195197Y0029675D01*
X0195299Y0029637D01*
X0195399Y0029595D01*
X0195498Y0029550D01*
X0195595Y0029501D01*
X0195689Y0029448D01*
X0195782Y0029392D01*
X0195873Y0029333D01*
X0195962Y0029270D01*
X0196048Y0029205D01*
X0196132Y0029136D01*
X0196213Y0029064D01*
X0196291Y0028989D01*
X0196367Y0028911D01*
X0196440Y0028830D01*
X0196510Y0028747D01*
X0196576Y0028662D01*
X0196640Y0028574D01*
X0196700Y0028483D01*
X0196757Y0028391D01*
X0196810Y0028296D01*
X0196860Y0028200D01*
X0196906Y0028102D01*
X0196949Y0028002D01*
X0196988Y0027901D01*
X0197023Y0027798D01*
X0197055Y0027695D01*
X0197082Y0027590D01*
X0197106Y0027484D01*
X0197126Y0027377D01*
X0197142Y0027270D01*
X0197154Y0027162D01*
X0197162Y0027054D01*
X0197166Y0026945D01*
X0197166Y0026837D01*
X0197162Y0026728D01*
X0197154Y0026620D01*
X0197142Y0026512D01*
X0197126Y0026405D01*
X0197106Y0026298D01*
X0197082Y0026192D01*
X0197055Y0026087D01*
X0197023Y0025984D01*
X0196988Y0025881D01*
X0196949Y0025780D01*
X0196906Y0025680D01*
X0196860Y0025582D01*
X0196810Y0025486D01*
X0196757Y0025391D01*
X0196700Y0025299D01*
X0196640Y0025208D01*
X0196576Y0025120D01*
X0196510Y0025035D01*
X0196440Y0024952D01*
X0196367Y0024871D01*
X0196291Y0024793D01*
X0196213Y0024718D01*
X0196132Y0024646D01*
X0196048Y0024577D01*
X0195962Y0024512D01*
X0195873Y0024449D01*
X0195782Y0024390D01*
X0195690Y0024334D01*
X0195595Y0024281D01*
X0195498Y0024232D01*
X0195399Y0024187D01*
X0195299Y0024145D01*
X0195197Y0024107D01*
X0195095Y0024073D01*
X0194990Y0024042D01*
X0194885Y0024016D01*
X0194779Y0023993D01*
X0194672Y0023974D01*
X0194565Y0023959D01*
X0194457Y0023948D01*
X0194349Y0023941D01*
X0194240Y0023938D01*
X0194132Y0023939D01*
X0194023Y0023944D01*
X0193915Y0023953D01*
X0193807Y0023966D01*
X0193700Y0023983D01*
X0193594Y0024004D01*
X0193488Y0024028D01*
X0193383Y0024057D01*
X0193280Y0024089D01*
X0193178Y0024125D01*
X0193077Y0024165D01*
X0192977Y0024209D01*
X0192880Y0024256D01*
X0192784Y0024307D01*
X0192690Y0024361D01*
X0192598Y0024419D01*
X0192508Y0024480D01*
X0192421Y0024544D01*
X0192336Y0024612D01*
X0192253Y0024682D01*
X0192173Y0024756D01*
X0192096Y0024832D01*
X0192022Y0024911D01*
X0191951Y0024993D01*
X0191883Y0025077D01*
X0191818Y0025164D01*
X0191756Y0025253D01*
X0191697Y0025345D01*
X0191642Y0025438D01*
X0191591Y0025533D01*
X0191542Y0025631D01*
X0191498Y0025730D01*
X0191457Y0025830D01*
X0191420Y0025932D01*
X0191387Y0026035D01*
X0191357Y0026140D01*
X0191331Y0026245D01*
X0191310Y0026352D01*
X0191292Y0026459D01*
X0191278Y0026566D01*
X0191268Y0026674D01*
X0191262Y0026783D01*
X0191260Y0026891D01*
X0219607Y0044607D02*
X0219609Y0044735D01*
X0219615Y0044863D01*
X0219625Y0044990D01*
X0219639Y0045118D01*
X0219656Y0045244D01*
X0219678Y0045370D01*
X0219704Y0045496D01*
X0219733Y0045620D01*
X0219766Y0045744D01*
X0219803Y0045866D01*
X0219844Y0045987D01*
X0219889Y0046107D01*
X0219937Y0046226D01*
X0219989Y0046343D01*
X0220045Y0046458D01*
X0220104Y0046572D01*
X0220166Y0046683D01*
X0220232Y0046793D01*
X0220301Y0046900D01*
X0220374Y0047006D01*
X0220450Y0047109D01*
X0220529Y0047209D01*
X0220611Y0047308D01*
X0220696Y0047403D01*
X0220784Y0047496D01*
X0220875Y0047586D01*
X0220968Y0047673D01*
X0221065Y0047758D01*
X0221163Y0047839D01*
X0221265Y0047917D01*
X0221368Y0047992D01*
X0221474Y0048064D01*
X0221582Y0048133D01*
X0221692Y0048198D01*
X0221805Y0048259D01*
X0221919Y0048318D01*
X0222034Y0048372D01*
X0222152Y0048423D01*
X0222270Y0048471D01*
X0222391Y0048514D01*
X0222512Y0048554D01*
X0222635Y0048590D01*
X0222759Y0048623D01*
X0222884Y0048651D01*
X0223009Y0048676D01*
X0223135Y0048696D01*
X0223262Y0048713D01*
X0223390Y0048726D01*
X0223517Y0048735D01*
X0223645Y0048740D01*
X0223773Y0048741D01*
X0223901Y0048738D01*
X0224029Y0048731D01*
X0224156Y0048720D01*
X0224283Y0048705D01*
X0224410Y0048687D01*
X0224536Y0048664D01*
X0224661Y0048637D01*
X0224785Y0048607D01*
X0224908Y0048573D01*
X0225031Y0048535D01*
X0225152Y0048493D01*
X0225271Y0048447D01*
X0225389Y0048398D01*
X0225506Y0048345D01*
X0225621Y0048289D01*
X0225734Y0048229D01*
X0225845Y0048166D01*
X0225954Y0048099D01*
X0226061Y0048029D01*
X0226166Y0047955D01*
X0226268Y0047879D01*
X0226368Y0047799D01*
X0226466Y0047716D01*
X0226561Y0047630D01*
X0226653Y0047541D01*
X0226742Y0047450D01*
X0226829Y0047356D01*
X0226912Y0047259D01*
X0226993Y0047159D01*
X0227070Y0047058D01*
X0227145Y0046953D01*
X0227216Y0046847D01*
X0227283Y0046738D01*
X0227348Y0046628D01*
X0227408Y0046515D01*
X0227466Y0046401D01*
X0227519Y0046285D01*
X0227569Y0046167D01*
X0227616Y0046048D01*
X0227659Y0045927D01*
X0227698Y0045805D01*
X0227733Y0045682D01*
X0227764Y0045558D01*
X0227792Y0045433D01*
X0227815Y0045307D01*
X0227835Y0045181D01*
X0227851Y0045054D01*
X0227863Y0044927D01*
X0227871Y0044799D01*
X0227875Y0044671D01*
X0227875Y0044543D01*
X0227871Y0044415D01*
X0227863Y0044287D01*
X0227851Y0044160D01*
X0227835Y0044033D01*
X0227815Y0043907D01*
X0227792Y0043781D01*
X0227764Y0043656D01*
X0227733Y0043532D01*
X0227698Y0043409D01*
X0227659Y0043287D01*
X0227616Y0043166D01*
X0227569Y0043047D01*
X0227519Y0042929D01*
X0227466Y0042813D01*
X0227408Y0042699D01*
X0227348Y0042586D01*
X0227283Y0042476D01*
X0227216Y0042367D01*
X0227145Y0042261D01*
X0227070Y0042156D01*
X0226993Y0042055D01*
X0226912Y0041955D01*
X0226829Y0041858D01*
X0226742Y0041764D01*
X0226653Y0041673D01*
X0226561Y0041584D01*
X0226466Y0041498D01*
X0226368Y0041415D01*
X0226268Y0041335D01*
X0226166Y0041259D01*
X0226061Y0041185D01*
X0225954Y0041115D01*
X0225845Y0041048D01*
X0225734Y0040985D01*
X0225621Y0040925D01*
X0225506Y0040869D01*
X0225389Y0040816D01*
X0225271Y0040767D01*
X0225152Y0040721D01*
X0225031Y0040679D01*
X0224908Y0040641D01*
X0224785Y0040607D01*
X0224661Y0040577D01*
X0224536Y0040550D01*
X0224410Y0040527D01*
X0224283Y0040509D01*
X0224156Y0040494D01*
X0224029Y0040483D01*
X0223901Y0040476D01*
X0223773Y0040473D01*
X0223645Y0040474D01*
X0223517Y0040479D01*
X0223390Y0040488D01*
X0223262Y0040501D01*
X0223135Y0040518D01*
X0223009Y0040538D01*
X0222884Y0040563D01*
X0222759Y0040591D01*
X0222635Y0040624D01*
X0222512Y0040660D01*
X0222391Y0040700D01*
X0222270Y0040743D01*
X0222152Y0040791D01*
X0222034Y0040842D01*
X0221919Y0040896D01*
X0221805Y0040955D01*
X0221692Y0041016D01*
X0221582Y0041081D01*
X0221474Y0041150D01*
X0221368Y0041222D01*
X0221265Y0041297D01*
X0221163Y0041375D01*
X0221065Y0041456D01*
X0220968Y0041541D01*
X0220875Y0041628D01*
X0220784Y0041718D01*
X0220696Y0041811D01*
X0220611Y0041906D01*
X0220529Y0042005D01*
X0220450Y0042105D01*
X0220374Y0042208D01*
X0220301Y0042314D01*
X0220232Y0042421D01*
X0220166Y0042531D01*
X0220104Y0042642D01*
X0220045Y0042756D01*
X0219989Y0042871D01*
X0219937Y0042988D01*
X0219889Y0043107D01*
X0219844Y0043227D01*
X0219803Y0043348D01*
X0219766Y0043470D01*
X0219733Y0043594D01*
X0219704Y0043718D01*
X0219678Y0043844D01*
X0219656Y0043970D01*
X0219639Y0044096D01*
X0219625Y0044224D01*
X0219615Y0044351D01*
X0219609Y0044479D01*
X0219607Y0044607D01*
X0211930Y0053957D02*
X0211928Y0053833D01*
X0211922Y0053710D01*
X0211913Y0053586D01*
X0211899Y0053464D01*
X0211882Y0053341D01*
X0211860Y0053219D01*
X0211835Y0053098D01*
X0211806Y0052978D01*
X0211774Y0052859D01*
X0211737Y0052740D01*
X0211697Y0052623D01*
X0211654Y0052508D01*
X0211606Y0052393D01*
X0211555Y0052281D01*
X0211501Y0052170D01*
X0211443Y0052060D01*
X0211382Y0051953D01*
X0211317Y0051847D01*
X0211249Y0051744D01*
X0211178Y0051643D01*
X0211104Y0051544D01*
X0211027Y0051447D01*
X0210946Y0051353D01*
X0210863Y0051262D01*
X0210777Y0051173D01*
X0210688Y0051087D01*
X0210597Y0051004D01*
X0210503Y0050923D01*
X0210406Y0050846D01*
X0210307Y0050772D01*
X0210206Y0050701D01*
X0210103Y0050633D01*
X0209997Y0050568D01*
X0209890Y0050507D01*
X0209780Y0050449D01*
X0209669Y0050395D01*
X0209557Y0050344D01*
X0209442Y0050296D01*
X0209327Y0050253D01*
X0209210Y0050213D01*
X0209091Y0050176D01*
X0208972Y0050144D01*
X0208852Y0050115D01*
X0208731Y0050090D01*
X0208609Y0050068D01*
X0208486Y0050051D01*
X0208364Y0050037D01*
X0208240Y0050028D01*
X0208117Y0050022D01*
X0207993Y0050020D01*
X0178465Y0053957D02*
X0178463Y0053833D01*
X0178457Y0053710D01*
X0178448Y0053586D01*
X0178434Y0053464D01*
X0178417Y0053341D01*
X0178395Y0053219D01*
X0178370Y0053098D01*
X0178341Y0052978D01*
X0178309Y0052859D01*
X0178272Y0052740D01*
X0178232Y0052623D01*
X0178189Y0052508D01*
X0178141Y0052393D01*
X0178090Y0052281D01*
X0178036Y0052170D01*
X0177978Y0052060D01*
X0177917Y0051953D01*
X0177852Y0051847D01*
X0177784Y0051744D01*
X0177713Y0051643D01*
X0177639Y0051544D01*
X0177562Y0051447D01*
X0177481Y0051353D01*
X0177398Y0051262D01*
X0177312Y0051173D01*
X0177223Y0051087D01*
X0177132Y0051004D01*
X0177038Y0050923D01*
X0176941Y0050846D01*
X0176842Y0050772D01*
X0176741Y0050701D01*
X0176638Y0050633D01*
X0176532Y0050568D01*
X0176425Y0050507D01*
X0176315Y0050449D01*
X0176204Y0050395D01*
X0176092Y0050344D01*
X0175977Y0050296D01*
X0175862Y0050253D01*
X0175745Y0050213D01*
X0175626Y0050176D01*
X0175507Y0050144D01*
X0175387Y0050115D01*
X0175266Y0050090D01*
X0175144Y0050068D01*
X0175021Y0050051D01*
X0174899Y0050037D01*
X0174775Y0050028D01*
X0174652Y0050022D01*
X0174528Y0050020D01*
D11*
G36*
X0179551Y0043135D02*
X0174914Y0040972D01*
X0172335Y0046501D01*
X0176972Y0048664D01*
X0179551Y0043135D01*
G37*
G36*
X0196959Y0035647D02*
X0192322Y0033484D01*
X0189743Y0039013D01*
X0194380Y0041176D01*
X0196959Y0035647D01*
G37*
G36*
X0163494Y0035647D02*
X0158857Y0033484D01*
X0156278Y0039013D01*
X0160915Y0041176D01*
X0163494Y0035647D01*
G37*
G36*
X0213015Y0043135D02*
X0208378Y0040972D01*
X0205799Y0046501D01*
X0210436Y0048664D01*
X0213015Y0043135D01*
G37*
G36*
X0226243Y0014768D02*
X0221606Y0012605D01*
X0219027Y0018134D01*
X0223664Y0020297D01*
X0226243Y0014768D01*
G37*
G36*
X0210186Y0007281D02*
X0205549Y0005118D01*
X0202970Y0010647D01*
X0207607Y0012810D01*
X0210186Y0007281D01*
G37*
G36*
X0192778Y0014768D02*
X0188141Y0012605D01*
X0185562Y0018134D01*
X0190199Y0020297D01*
X0192778Y0014768D01*
G37*
G36*
X0176722Y0007281D02*
X0172085Y0005118D01*
X0169506Y0010647D01*
X0174143Y0012810D01*
X0176722Y0007281D01*
G37*
G36*
X0060741Y0012810D02*
X0065378Y0010647D01*
X0062799Y0005118D01*
X0058162Y0007281D01*
X0060741Y0012810D01*
G37*
G36*
X0044684Y0020297D02*
X0049321Y0018134D01*
X0046742Y0012605D01*
X0042105Y0014768D01*
X0044684Y0020297D01*
G37*
G36*
X0011219Y0020297D02*
X0015856Y0018134D01*
X0013277Y0012605D01*
X0008640Y0014768D01*
X0011219Y0020297D01*
G37*
G36*
X0027276Y0012810D02*
X0031913Y0010647D01*
X0029334Y0005118D01*
X0024697Y0007281D01*
X0027276Y0012810D01*
G37*
G36*
X0040504Y0041176D02*
X0045141Y0039013D01*
X0042562Y0033484D01*
X0037925Y0035647D01*
X0040504Y0041176D01*
G37*
G36*
X0024447Y0048664D02*
X0029084Y0046501D01*
X0026505Y0040972D01*
X0021868Y0043135D01*
X0024447Y0048664D01*
G37*
G36*
X0057912Y0048664D02*
X0062549Y0046501D01*
X0059970Y0040972D01*
X0055333Y0043135D01*
X0057912Y0048664D01*
G37*
G36*
X0073968Y0041176D02*
X0078605Y0039013D01*
X0076026Y0033484D01*
X0071389Y0035647D01*
X0073968Y0041176D01*
G37*
M02*
