G75*
%MOIN*%
%OFA0B0*%
%FSLAX25Y25*%
%IPPOS*%
%LPD*%
%AMOC8*
5,1,8,0,0,1.08239X$1,22.5*
%
%ADD10C,0.00000*%
%ADD11C,0.07400*%
%ADD12C,0.01000*%
%ADD13R,0.03150X0.03150*%
%ADD14R,0.05118X0.06102*%
%ADD15C,0.00600*%
%ADD16C,0.02581*%
%ADD17C,0.01200*%
D10*
X0007206Y0003269D02*
X0036733Y0003269D01*
X0036733Y0003761D01*
X0040670Y0007698D02*
X0040794Y0007696D01*
X0040917Y0007690D01*
X0041041Y0007681D01*
X0041163Y0007667D01*
X0041286Y0007650D01*
X0041408Y0007628D01*
X0041529Y0007603D01*
X0041649Y0007574D01*
X0041768Y0007542D01*
X0041887Y0007505D01*
X0042004Y0007465D01*
X0042119Y0007422D01*
X0042234Y0007374D01*
X0042346Y0007323D01*
X0042457Y0007269D01*
X0042567Y0007211D01*
X0042674Y0007150D01*
X0042780Y0007085D01*
X0042883Y0007017D01*
X0042984Y0006946D01*
X0043083Y0006872D01*
X0043180Y0006795D01*
X0043274Y0006714D01*
X0043365Y0006631D01*
X0043454Y0006545D01*
X0043540Y0006456D01*
X0043623Y0006365D01*
X0043704Y0006271D01*
X0043781Y0006174D01*
X0043855Y0006075D01*
X0043926Y0005974D01*
X0043994Y0005871D01*
X0044059Y0005765D01*
X0044120Y0005658D01*
X0044178Y0005548D01*
X0044232Y0005437D01*
X0044283Y0005325D01*
X0044331Y0005210D01*
X0044374Y0005095D01*
X0044414Y0004978D01*
X0044451Y0004859D01*
X0044483Y0004740D01*
X0044512Y0004620D01*
X0044537Y0004499D01*
X0044559Y0004377D01*
X0044576Y0004254D01*
X0044590Y0004132D01*
X0044599Y0004008D01*
X0044605Y0003885D01*
X0044607Y0003761D01*
X0044607Y0003269D01*
X0082009Y0003269D01*
X0082133Y0003271D01*
X0082256Y0003277D01*
X0082380Y0003286D01*
X0082502Y0003300D01*
X0082625Y0003317D01*
X0082747Y0003339D01*
X0082868Y0003364D01*
X0082988Y0003393D01*
X0083107Y0003425D01*
X0083226Y0003462D01*
X0083343Y0003502D01*
X0083458Y0003545D01*
X0083573Y0003593D01*
X0083685Y0003644D01*
X0083796Y0003698D01*
X0083906Y0003756D01*
X0084013Y0003817D01*
X0084119Y0003882D01*
X0084222Y0003950D01*
X0084323Y0004021D01*
X0084422Y0004095D01*
X0084519Y0004172D01*
X0084613Y0004253D01*
X0084704Y0004336D01*
X0084793Y0004422D01*
X0084879Y0004511D01*
X0084962Y0004602D01*
X0085043Y0004696D01*
X0085120Y0004793D01*
X0085194Y0004892D01*
X0085265Y0004993D01*
X0085333Y0005096D01*
X0085398Y0005202D01*
X0085459Y0005309D01*
X0085517Y0005419D01*
X0085571Y0005530D01*
X0085622Y0005642D01*
X0085670Y0005757D01*
X0085713Y0005872D01*
X0085753Y0005989D01*
X0085790Y0006108D01*
X0085822Y0006227D01*
X0085851Y0006347D01*
X0085876Y0006468D01*
X0085898Y0006590D01*
X0085915Y0006713D01*
X0085929Y0006835D01*
X0085938Y0006959D01*
X0085944Y0007082D01*
X0085946Y0007206D01*
X0085946Y0019017D01*
X0085948Y0019141D01*
X0085954Y0019264D01*
X0085963Y0019388D01*
X0085977Y0019510D01*
X0085994Y0019633D01*
X0086016Y0019755D01*
X0086041Y0019876D01*
X0086070Y0019996D01*
X0086102Y0020115D01*
X0086139Y0020234D01*
X0086179Y0020351D01*
X0086222Y0020466D01*
X0086270Y0020581D01*
X0086321Y0020693D01*
X0086375Y0020804D01*
X0086433Y0020914D01*
X0086494Y0021021D01*
X0086559Y0021127D01*
X0086627Y0021230D01*
X0086698Y0021331D01*
X0086772Y0021430D01*
X0086849Y0021527D01*
X0086930Y0021621D01*
X0087013Y0021712D01*
X0087099Y0021801D01*
X0087188Y0021887D01*
X0087279Y0021970D01*
X0087373Y0022051D01*
X0087470Y0022128D01*
X0087569Y0022202D01*
X0087670Y0022273D01*
X0087773Y0022341D01*
X0087879Y0022406D01*
X0087986Y0022467D01*
X0088096Y0022525D01*
X0088207Y0022579D01*
X0088319Y0022630D01*
X0088434Y0022678D01*
X0088549Y0022721D01*
X0088666Y0022761D01*
X0088785Y0022798D01*
X0088904Y0022830D01*
X0089024Y0022859D01*
X0089145Y0022884D01*
X0089267Y0022906D01*
X0089390Y0022923D01*
X0089512Y0022937D01*
X0089636Y0022946D01*
X0089759Y0022952D01*
X0089883Y0022954D01*
X0145001Y0022954D01*
X0145125Y0022952D01*
X0145248Y0022946D01*
X0145372Y0022937D01*
X0145494Y0022923D01*
X0145617Y0022906D01*
X0145739Y0022884D01*
X0145860Y0022859D01*
X0145980Y0022830D01*
X0146099Y0022798D01*
X0146218Y0022761D01*
X0146335Y0022721D01*
X0146450Y0022678D01*
X0146565Y0022630D01*
X0146677Y0022579D01*
X0146788Y0022525D01*
X0146898Y0022467D01*
X0147005Y0022406D01*
X0147111Y0022341D01*
X0147214Y0022273D01*
X0147315Y0022202D01*
X0147414Y0022128D01*
X0147511Y0022051D01*
X0147605Y0021970D01*
X0147696Y0021887D01*
X0147785Y0021801D01*
X0147871Y0021712D01*
X0147954Y0021621D01*
X0148035Y0021527D01*
X0148112Y0021430D01*
X0148186Y0021331D01*
X0148257Y0021230D01*
X0148325Y0021127D01*
X0148390Y0021021D01*
X0148451Y0020914D01*
X0148509Y0020804D01*
X0148563Y0020693D01*
X0148614Y0020581D01*
X0148662Y0020466D01*
X0148705Y0020351D01*
X0148745Y0020234D01*
X0148782Y0020115D01*
X0148814Y0019996D01*
X0148843Y0019876D01*
X0148868Y0019755D01*
X0148890Y0019633D01*
X0148907Y0019510D01*
X0148921Y0019388D01*
X0148930Y0019264D01*
X0148936Y0019141D01*
X0148938Y0019017D01*
X0148938Y0007206D01*
X0148940Y0007082D01*
X0148946Y0006959D01*
X0148955Y0006835D01*
X0148969Y0006713D01*
X0148986Y0006590D01*
X0149008Y0006468D01*
X0149033Y0006347D01*
X0149062Y0006227D01*
X0149094Y0006108D01*
X0149131Y0005989D01*
X0149171Y0005872D01*
X0149214Y0005757D01*
X0149262Y0005642D01*
X0149313Y0005530D01*
X0149367Y0005419D01*
X0149425Y0005309D01*
X0149486Y0005202D01*
X0149551Y0005096D01*
X0149619Y0004993D01*
X0149690Y0004892D01*
X0149764Y0004793D01*
X0149841Y0004696D01*
X0149922Y0004602D01*
X0150005Y0004511D01*
X0150091Y0004422D01*
X0150180Y0004336D01*
X0150271Y0004253D01*
X0150365Y0004172D01*
X0150462Y0004095D01*
X0150561Y0004021D01*
X0150662Y0003950D01*
X0150765Y0003882D01*
X0150871Y0003817D01*
X0150978Y0003756D01*
X0151088Y0003698D01*
X0151199Y0003644D01*
X0151311Y0003593D01*
X0151426Y0003545D01*
X0151541Y0003502D01*
X0151658Y0003462D01*
X0151777Y0003425D01*
X0151896Y0003393D01*
X0152016Y0003364D01*
X0152137Y0003339D01*
X0152259Y0003317D01*
X0152382Y0003300D01*
X0152504Y0003286D01*
X0152628Y0003277D01*
X0152751Y0003271D01*
X0152875Y0003269D01*
X0190276Y0003269D01*
X0190276Y0003761D01*
X0194213Y0007698D02*
X0194337Y0007696D01*
X0194460Y0007690D01*
X0194584Y0007681D01*
X0194706Y0007667D01*
X0194829Y0007650D01*
X0194951Y0007628D01*
X0195072Y0007603D01*
X0195192Y0007574D01*
X0195311Y0007542D01*
X0195430Y0007505D01*
X0195547Y0007465D01*
X0195662Y0007422D01*
X0195777Y0007374D01*
X0195889Y0007323D01*
X0196000Y0007269D01*
X0196110Y0007211D01*
X0196217Y0007150D01*
X0196323Y0007085D01*
X0196426Y0007017D01*
X0196527Y0006946D01*
X0196626Y0006872D01*
X0196723Y0006795D01*
X0196817Y0006714D01*
X0196908Y0006631D01*
X0196997Y0006545D01*
X0197083Y0006456D01*
X0197166Y0006365D01*
X0197247Y0006271D01*
X0197324Y0006174D01*
X0197398Y0006075D01*
X0197469Y0005974D01*
X0197537Y0005871D01*
X0197602Y0005765D01*
X0197663Y0005658D01*
X0197721Y0005548D01*
X0197775Y0005437D01*
X0197826Y0005325D01*
X0197874Y0005210D01*
X0197917Y0005095D01*
X0197957Y0004978D01*
X0197994Y0004859D01*
X0198026Y0004740D01*
X0198055Y0004620D01*
X0198080Y0004499D01*
X0198102Y0004377D01*
X0198119Y0004254D01*
X0198133Y0004132D01*
X0198142Y0004008D01*
X0198148Y0003885D01*
X0198150Y0003761D01*
X0198150Y0003269D01*
X0227678Y0003269D01*
X0227802Y0003271D01*
X0227925Y0003277D01*
X0228049Y0003286D01*
X0228171Y0003300D01*
X0228294Y0003317D01*
X0228416Y0003339D01*
X0228537Y0003364D01*
X0228657Y0003393D01*
X0228776Y0003425D01*
X0228895Y0003462D01*
X0229012Y0003502D01*
X0229127Y0003545D01*
X0229242Y0003593D01*
X0229354Y0003644D01*
X0229465Y0003698D01*
X0229575Y0003756D01*
X0229682Y0003817D01*
X0229788Y0003882D01*
X0229891Y0003950D01*
X0229992Y0004021D01*
X0230091Y0004095D01*
X0230188Y0004172D01*
X0230282Y0004253D01*
X0230373Y0004336D01*
X0230462Y0004422D01*
X0230548Y0004511D01*
X0230631Y0004602D01*
X0230712Y0004696D01*
X0230789Y0004793D01*
X0230863Y0004892D01*
X0230934Y0004993D01*
X0231002Y0005096D01*
X0231067Y0005202D01*
X0231128Y0005309D01*
X0231186Y0005419D01*
X0231240Y0005530D01*
X0231291Y0005642D01*
X0231339Y0005757D01*
X0231382Y0005872D01*
X0231422Y0005989D01*
X0231459Y0006108D01*
X0231491Y0006227D01*
X0231520Y0006347D01*
X0231545Y0006468D01*
X0231567Y0006590D01*
X0231584Y0006713D01*
X0231598Y0006835D01*
X0231607Y0006959D01*
X0231613Y0007082D01*
X0231615Y0007206D01*
X0231615Y0017048D01*
X0229646Y0019017D01*
X0229646Y0038702D01*
X0231615Y0040670D01*
X0231615Y0050513D01*
X0231613Y0050637D01*
X0231607Y0050760D01*
X0231598Y0050884D01*
X0231584Y0051006D01*
X0231567Y0051129D01*
X0231545Y0051251D01*
X0231520Y0051372D01*
X0231491Y0051492D01*
X0231459Y0051611D01*
X0231422Y0051730D01*
X0231382Y0051847D01*
X0231339Y0051962D01*
X0231291Y0052077D01*
X0231240Y0052189D01*
X0231186Y0052300D01*
X0231128Y0052410D01*
X0231067Y0052517D01*
X0231002Y0052623D01*
X0230934Y0052726D01*
X0230863Y0052827D01*
X0230789Y0052926D01*
X0230712Y0053023D01*
X0230631Y0053117D01*
X0230548Y0053208D01*
X0230462Y0053297D01*
X0230373Y0053383D01*
X0230282Y0053466D01*
X0230188Y0053547D01*
X0230091Y0053624D01*
X0229992Y0053698D01*
X0229891Y0053769D01*
X0229788Y0053837D01*
X0229682Y0053902D01*
X0229575Y0053963D01*
X0229465Y0054021D01*
X0229354Y0054075D01*
X0229242Y0054126D01*
X0229127Y0054174D01*
X0229012Y0054217D01*
X0228895Y0054257D01*
X0228776Y0054294D01*
X0228657Y0054326D01*
X0228537Y0054355D01*
X0228416Y0054380D01*
X0228294Y0054402D01*
X0228171Y0054419D01*
X0228049Y0054433D01*
X0227925Y0054442D01*
X0227802Y0054448D01*
X0227678Y0054450D01*
X0211930Y0054450D01*
X0211930Y0053957D01*
X0207993Y0050020D02*
X0207869Y0050022D01*
X0207746Y0050028D01*
X0207622Y0050037D01*
X0207500Y0050051D01*
X0207377Y0050068D01*
X0207255Y0050090D01*
X0207134Y0050115D01*
X0207014Y0050144D01*
X0206895Y0050176D01*
X0206776Y0050213D01*
X0206659Y0050253D01*
X0206544Y0050296D01*
X0206429Y0050344D01*
X0206317Y0050395D01*
X0206206Y0050449D01*
X0206096Y0050507D01*
X0205989Y0050568D01*
X0205883Y0050633D01*
X0205780Y0050701D01*
X0205679Y0050772D01*
X0205580Y0050846D01*
X0205483Y0050923D01*
X0205389Y0051004D01*
X0205298Y0051087D01*
X0205209Y0051173D01*
X0205123Y0051262D01*
X0205040Y0051353D01*
X0204959Y0051447D01*
X0204882Y0051544D01*
X0204808Y0051643D01*
X0204737Y0051744D01*
X0204669Y0051847D01*
X0204604Y0051953D01*
X0204543Y0052060D01*
X0204485Y0052170D01*
X0204431Y0052281D01*
X0204380Y0052393D01*
X0204332Y0052508D01*
X0204289Y0052623D01*
X0204249Y0052740D01*
X0204212Y0052859D01*
X0204180Y0052978D01*
X0204151Y0053098D01*
X0204126Y0053219D01*
X0204104Y0053341D01*
X0204087Y0053464D01*
X0204073Y0053586D01*
X0204064Y0053710D01*
X0204058Y0053833D01*
X0204056Y0053957D01*
X0204056Y0054450D01*
X0178465Y0054450D01*
X0178465Y0053957D01*
X0174528Y0050020D02*
X0174404Y0050022D01*
X0174281Y0050028D01*
X0174157Y0050037D01*
X0174035Y0050051D01*
X0173912Y0050068D01*
X0173790Y0050090D01*
X0173669Y0050115D01*
X0173549Y0050144D01*
X0173430Y0050176D01*
X0173311Y0050213D01*
X0173194Y0050253D01*
X0173079Y0050296D01*
X0172964Y0050344D01*
X0172852Y0050395D01*
X0172741Y0050449D01*
X0172631Y0050507D01*
X0172524Y0050568D01*
X0172418Y0050633D01*
X0172315Y0050701D01*
X0172214Y0050772D01*
X0172115Y0050846D01*
X0172018Y0050923D01*
X0171924Y0051004D01*
X0171833Y0051087D01*
X0171744Y0051173D01*
X0171658Y0051262D01*
X0171575Y0051353D01*
X0171494Y0051447D01*
X0171417Y0051544D01*
X0171343Y0051643D01*
X0171272Y0051744D01*
X0171204Y0051847D01*
X0171139Y0051953D01*
X0171078Y0052060D01*
X0171020Y0052170D01*
X0170966Y0052281D01*
X0170915Y0052393D01*
X0170867Y0052508D01*
X0170824Y0052623D01*
X0170784Y0052740D01*
X0170747Y0052859D01*
X0170715Y0052978D01*
X0170686Y0053098D01*
X0170661Y0053219D01*
X0170639Y0053341D01*
X0170622Y0053464D01*
X0170608Y0053586D01*
X0170599Y0053710D01*
X0170593Y0053833D01*
X0170591Y0053957D01*
X0170591Y0054450D01*
X0064292Y0054450D01*
X0064292Y0053957D01*
X0060355Y0050020D02*
X0060231Y0050022D01*
X0060108Y0050028D01*
X0059984Y0050037D01*
X0059862Y0050051D01*
X0059739Y0050068D01*
X0059617Y0050090D01*
X0059496Y0050115D01*
X0059376Y0050144D01*
X0059257Y0050176D01*
X0059138Y0050213D01*
X0059021Y0050253D01*
X0058906Y0050296D01*
X0058791Y0050344D01*
X0058679Y0050395D01*
X0058568Y0050449D01*
X0058458Y0050507D01*
X0058351Y0050568D01*
X0058245Y0050633D01*
X0058142Y0050701D01*
X0058041Y0050772D01*
X0057942Y0050846D01*
X0057845Y0050923D01*
X0057751Y0051004D01*
X0057660Y0051087D01*
X0057571Y0051173D01*
X0057485Y0051262D01*
X0057402Y0051353D01*
X0057321Y0051447D01*
X0057244Y0051544D01*
X0057170Y0051643D01*
X0057099Y0051744D01*
X0057031Y0051847D01*
X0056966Y0051953D01*
X0056905Y0052060D01*
X0056847Y0052170D01*
X0056793Y0052281D01*
X0056742Y0052393D01*
X0056694Y0052508D01*
X0056651Y0052623D01*
X0056611Y0052740D01*
X0056574Y0052859D01*
X0056542Y0052978D01*
X0056513Y0053098D01*
X0056488Y0053219D01*
X0056466Y0053341D01*
X0056449Y0053464D01*
X0056435Y0053586D01*
X0056426Y0053710D01*
X0056420Y0053833D01*
X0056418Y0053957D01*
X0056418Y0054450D01*
X0030828Y0054450D01*
X0030828Y0053957D01*
X0026891Y0050020D02*
X0026767Y0050022D01*
X0026644Y0050028D01*
X0026520Y0050037D01*
X0026398Y0050051D01*
X0026275Y0050068D01*
X0026153Y0050090D01*
X0026032Y0050115D01*
X0025912Y0050144D01*
X0025793Y0050176D01*
X0025674Y0050213D01*
X0025557Y0050253D01*
X0025442Y0050296D01*
X0025327Y0050344D01*
X0025215Y0050395D01*
X0025104Y0050449D01*
X0024994Y0050507D01*
X0024887Y0050568D01*
X0024781Y0050633D01*
X0024678Y0050701D01*
X0024577Y0050772D01*
X0024478Y0050846D01*
X0024381Y0050923D01*
X0024287Y0051004D01*
X0024196Y0051087D01*
X0024107Y0051173D01*
X0024021Y0051262D01*
X0023938Y0051353D01*
X0023857Y0051447D01*
X0023780Y0051544D01*
X0023706Y0051643D01*
X0023635Y0051744D01*
X0023567Y0051847D01*
X0023502Y0051953D01*
X0023441Y0052060D01*
X0023383Y0052170D01*
X0023329Y0052281D01*
X0023278Y0052393D01*
X0023230Y0052508D01*
X0023187Y0052623D01*
X0023147Y0052740D01*
X0023110Y0052859D01*
X0023078Y0052978D01*
X0023049Y0053098D01*
X0023024Y0053219D01*
X0023002Y0053341D01*
X0022985Y0053464D01*
X0022971Y0053586D01*
X0022962Y0053710D01*
X0022956Y0053833D01*
X0022954Y0053957D01*
X0022954Y0054450D01*
X0007206Y0054450D01*
X0007082Y0054448D01*
X0006959Y0054442D01*
X0006835Y0054433D01*
X0006713Y0054419D01*
X0006590Y0054402D01*
X0006468Y0054380D01*
X0006347Y0054355D01*
X0006227Y0054326D01*
X0006108Y0054294D01*
X0005989Y0054257D01*
X0005872Y0054217D01*
X0005757Y0054174D01*
X0005642Y0054126D01*
X0005530Y0054075D01*
X0005419Y0054021D01*
X0005309Y0053963D01*
X0005202Y0053902D01*
X0005096Y0053837D01*
X0004993Y0053769D01*
X0004892Y0053698D01*
X0004793Y0053624D01*
X0004696Y0053547D01*
X0004602Y0053466D01*
X0004511Y0053383D01*
X0004422Y0053297D01*
X0004336Y0053208D01*
X0004253Y0053117D01*
X0004172Y0053023D01*
X0004095Y0052926D01*
X0004021Y0052827D01*
X0003950Y0052726D01*
X0003882Y0052623D01*
X0003817Y0052517D01*
X0003756Y0052410D01*
X0003698Y0052300D01*
X0003644Y0052189D01*
X0003593Y0052077D01*
X0003545Y0051962D01*
X0003502Y0051847D01*
X0003462Y0051730D01*
X0003425Y0051611D01*
X0003393Y0051492D01*
X0003364Y0051372D01*
X0003339Y0051251D01*
X0003317Y0051129D01*
X0003300Y0051006D01*
X0003286Y0050884D01*
X0003277Y0050760D01*
X0003271Y0050637D01*
X0003269Y0050513D01*
X0003269Y0040670D01*
X0005237Y0038702D01*
X0005237Y0019017D01*
X0003269Y0017048D01*
X0003269Y0007206D01*
X0003271Y0007082D01*
X0003277Y0006959D01*
X0003286Y0006835D01*
X0003300Y0006713D01*
X0003317Y0006590D01*
X0003339Y0006468D01*
X0003364Y0006347D01*
X0003393Y0006227D01*
X0003425Y0006108D01*
X0003462Y0005989D01*
X0003502Y0005872D01*
X0003545Y0005757D01*
X0003593Y0005642D01*
X0003644Y0005530D01*
X0003698Y0005419D01*
X0003756Y0005309D01*
X0003817Y0005202D01*
X0003882Y0005096D01*
X0003950Y0004993D01*
X0004021Y0004892D01*
X0004095Y0004793D01*
X0004172Y0004696D01*
X0004253Y0004602D01*
X0004336Y0004511D01*
X0004422Y0004422D01*
X0004511Y0004336D01*
X0004602Y0004253D01*
X0004696Y0004172D01*
X0004793Y0004095D01*
X0004892Y0004021D01*
X0004993Y0003950D01*
X0005096Y0003882D01*
X0005202Y0003817D01*
X0005309Y0003756D01*
X0005419Y0003698D01*
X0005530Y0003644D01*
X0005642Y0003593D01*
X0005757Y0003545D01*
X0005872Y0003502D01*
X0005989Y0003462D01*
X0006108Y0003425D01*
X0006227Y0003393D01*
X0006347Y0003364D01*
X0006468Y0003339D01*
X0006590Y0003317D01*
X0006713Y0003300D01*
X0006835Y0003286D01*
X0006959Y0003277D01*
X0007082Y0003271D01*
X0007206Y0003269D01*
X0036733Y0003761D02*
X0036735Y0003885D01*
X0036741Y0004008D01*
X0036750Y0004132D01*
X0036764Y0004254D01*
X0036781Y0004377D01*
X0036803Y0004499D01*
X0036828Y0004620D01*
X0036857Y0004740D01*
X0036889Y0004859D01*
X0036926Y0004978D01*
X0036966Y0005095D01*
X0037009Y0005210D01*
X0037057Y0005325D01*
X0037108Y0005437D01*
X0037162Y0005548D01*
X0037220Y0005658D01*
X0037281Y0005765D01*
X0037346Y0005871D01*
X0037414Y0005974D01*
X0037485Y0006075D01*
X0037559Y0006174D01*
X0037636Y0006271D01*
X0037717Y0006365D01*
X0037800Y0006456D01*
X0037886Y0006545D01*
X0037975Y0006631D01*
X0038066Y0006714D01*
X0038160Y0006795D01*
X0038257Y0006872D01*
X0038356Y0006946D01*
X0038457Y0007017D01*
X0038560Y0007085D01*
X0038666Y0007150D01*
X0038773Y0007211D01*
X0038883Y0007269D01*
X0038994Y0007323D01*
X0039106Y0007374D01*
X0039221Y0007422D01*
X0039336Y0007465D01*
X0039453Y0007505D01*
X0039572Y0007542D01*
X0039691Y0007574D01*
X0039811Y0007603D01*
X0039932Y0007628D01*
X0040054Y0007650D01*
X0040177Y0007667D01*
X0040299Y0007681D01*
X0040423Y0007690D01*
X0040546Y0007696D01*
X0040670Y0007698D01*
X0073938Y0013111D02*
X0073940Y0013239D01*
X0073946Y0013367D01*
X0073956Y0013494D01*
X0073970Y0013622D01*
X0073987Y0013748D01*
X0074009Y0013874D01*
X0074035Y0014000D01*
X0074064Y0014124D01*
X0074097Y0014248D01*
X0074134Y0014370D01*
X0074175Y0014491D01*
X0074220Y0014611D01*
X0074268Y0014730D01*
X0074320Y0014847D01*
X0074376Y0014962D01*
X0074435Y0015076D01*
X0074497Y0015187D01*
X0074563Y0015297D01*
X0074632Y0015404D01*
X0074705Y0015510D01*
X0074781Y0015613D01*
X0074860Y0015713D01*
X0074942Y0015812D01*
X0075027Y0015907D01*
X0075115Y0016000D01*
X0075206Y0016090D01*
X0075299Y0016177D01*
X0075396Y0016262D01*
X0075494Y0016343D01*
X0075596Y0016421D01*
X0075699Y0016496D01*
X0075805Y0016568D01*
X0075913Y0016637D01*
X0076023Y0016702D01*
X0076136Y0016763D01*
X0076250Y0016822D01*
X0076365Y0016876D01*
X0076483Y0016927D01*
X0076601Y0016975D01*
X0076722Y0017018D01*
X0076843Y0017058D01*
X0076966Y0017094D01*
X0077090Y0017127D01*
X0077215Y0017155D01*
X0077340Y0017180D01*
X0077466Y0017200D01*
X0077593Y0017217D01*
X0077721Y0017230D01*
X0077848Y0017239D01*
X0077976Y0017244D01*
X0078104Y0017245D01*
X0078232Y0017242D01*
X0078360Y0017235D01*
X0078487Y0017224D01*
X0078614Y0017209D01*
X0078741Y0017191D01*
X0078867Y0017168D01*
X0078992Y0017141D01*
X0079116Y0017111D01*
X0079239Y0017077D01*
X0079362Y0017039D01*
X0079483Y0016997D01*
X0079602Y0016951D01*
X0079720Y0016902D01*
X0079837Y0016849D01*
X0079952Y0016793D01*
X0080065Y0016733D01*
X0080176Y0016670D01*
X0080285Y0016603D01*
X0080392Y0016533D01*
X0080497Y0016459D01*
X0080599Y0016383D01*
X0080699Y0016303D01*
X0080797Y0016220D01*
X0080892Y0016134D01*
X0080984Y0016045D01*
X0081073Y0015954D01*
X0081160Y0015860D01*
X0081243Y0015763D01*
X0081324Y0015663D01*
X0081401Y0015562D01*
X0081476Y0015457D01*
X0081547Y0015351D01*
X0081614Y0015242D01*
X0081679Y0015132D01*
X0081739Y0015019D01*
X0081797Y0014905D01*
X0081850Y0014789D01*
X0081900Y0014671D01*
X0081947Y0014552D01*
X0081990Y0014431D01*
X0082029Y0014309D01*
X0082064Y0014186D01*
X0082095Y0014062D01*
X0082123Y0013937D01*
X0082146Y0013811D01*
X0082166Y0013685D01*
X0082182Y0013558D01*
X0082194Y0013431D01*
X0082202Y0013303D01*
X0082206Y0013175D01*
X0082206Y0013047D01*
X0082202Y0012919D01*
X0082194Y0012791D01*
X0082182Y0012664D01*
X0082166Y0012537D01*
X0082146Y0012411D01*
X0082123Y0012285D01*
X0082095Y0012160D01*
X0082064Y0012036D01*
X0082029Y0011913D01*
X0081990Y0011791D01*
X0081947Y0011670D01*
X0081900Y0011551D01*
X0081850Y0011433D01*
X0081797Y0011317D01*
X0081739Y0011203D01*
X0081679Y0011090D01*
X0081614Y0010980D01*
X0081547Y0010871D01*
X0081476Y0010765D01*
X0081401Y0010660D01*
X0081324Y0010559D01*
X0081243Y0010459D01*
X0081160Y0010362D01*
X0081073Y0010268D01*
X0080984Y0010177D01*
X0080892Y0010088D01*
X0080797Y0010002D01*
X0080699Y0009919D01*
X0080599Y0009839D01*
X0080497Y0009763D01*
X0080392Y0009689D01*
X0080285Y0009619D01*
X0080176Y0009552D01*
X0080065Y0009489D01*
X0079952Y0009429D01*
X0079837Y0009373D01*
X0079720Y0009320D01*
X0079602Y0009271D01*
X0079483Y0009225D01*
X0079362Y0009183D01*
X0079239Y0009145D01*
X0079116Y0009111D01*
X0078992Y0009081D01*
X0078867Y0009054D01*
X0078741Y0009031D01*
X0078614Y0009013D01*
X0078487Y0008998D01*
X0078360Y0008987D01*
X0078232Y0008980D01*
X0078104Y0008977D01*
X0077976Y0008978D01*
X0077848Y0008983D01*
X0077721Y0008992D01*
X0077593Y0009005D01*
X0077466Y0009022D01*
X0077340Y0009042D01*
X0077215Y0009067D01*
X0077090Y0009095D01*
X0076966Y0009128D01*
X0076843Y0009164D01*
X0076722Y0009204D01*
X0076601Y0009247D01*
X0076483Y0009295D01*
X0076365Y0009346D01*
X0076250Y0009400D01*
X0076136Y0009459D01*
X0076023Y0009520D01*
X0075913Y0009585D01*
X0075805Y0009654D01*
X0075699Y0009726D01*
X0075596Y0009801D01*
X0075494Y0009879D01*
X0075396Y0009960D01*
X0075299Y0010045D01*
X0075206Y0010132D01*
X0075115Y0010222D01*
X0075027Y0010315D01*
X0074942Y0010410D01*
X0074860Y0010509D01*
X0074781Y0010609D01*
X0074705Y0010712D01*
X0074632Y0010818D01*
X0074563Y0010925D01*
X0074497Y0011035D01*
X0074435Y0011146D01*
X0074376Y0011260D01*
X0074320Y0011375D01*
X0074268Y0011492D01*
X0074220Y0011611D01*
X0074175Y0011731D01*
X0074134Y0011852D01*
X0074097Y0011974D01*
X0074064Y0012098D01*
X0074035Y0012222D01*
X0074009Y0012348D01*
X0073987Y0012474D01*
X0073970Y0012600D01*
X0073956Y0012728D01*
X0073946Y0012855D01*
X0073940Y0012983D01*
X0073938Y0013111D01*
X0037717Y0026891D02*
X0037719Y0026999D01*
X0037725Y0027108D01*
X0037735Y0027216D01*
X0037749Y0027323D01*
X0037767Y0027430D01*
X0037788Y0027537D01*
X0037814Y0027642D01*
X0037844Y0027747D01*
X0037877Y0027850D01*
X0037914Y0027952D01*
X0037955Y0028052D01*
X0037999Y0028151D01*
X0038048Y0028249D01*
X0038099Y0028344D01*
X0038154Y0028437D01*
X0038213Y0028529D01*
X0038275Y0028618D01*
X0038340Y0028705D01*
X0038408Y0028789D01*
X0038479Y0028871D01*
X0038553Y0028950D01*
X0038630Y0029026D01*
X0038710Y0029100D01*
X0038793Y0029170D01*
X0038878Y0029238D01*
X0038965Y0029302D01*
X0039055Y0029363D01*
X0039147Y0029421D01*
X0039241Y0029475D01*
X0039337Y0029526D01*
X0039434Y0029573D01*
X0039534Y0029617D01*
X0039635Y0029657D01*
X0039737Y0029693D01*
X0039840Y0029725D01*
X0039945Y0029754D01*
X0040051Y0029778D01*
X0040157Y0029799D01*
X0040264Y0029816D01*
X0040372Y0029829D01*
X0040480Y0029838D01*
X0040589Y0029843D01*
X0040697Y0029844D01*
X0040806Y0029841D01*
X0040914Y0029834D01*
X0041022Y0029823D01*
X0041129Y0029808D01*
X0041236Y0029789D01*
X0041342Y0029766D01*
X0041447Y0029740D01*
X0041552Y0029709D01*
X0041654Y0029675D01*
X0041756Y0029637D01*
X0041856Y0029595D01*
X0041955Y0029550D01*
X0042052Y0029501D01*
X0042146Y0029448D01*
X0042239Y0029392D01*
X0042330Y0029333D01*
X0042419Y0029270D01*
X0042505Y0029205D01*
X0042589Y0029136D01*
X0042670Y0029064D01*
X0042748Y0028989D01*
X0042824Y0028911D01*
X0042897Y0028830D01*
X0042967Y0028747D01*
X0043033Y0028662D01*
X0043097Y0028574D01*
X0043157Y0028483D01*
X0043214Y0028391D01*
X0043267Y0028296D01*
X0043317Y0028200D01*
X0043363Y0028102D01*
X0043406Y0028002D01*
X0043445Y0027901D01*
X0043480Y0027798D01*
X0043512Y0027695D01*
X0043539Y0027590D01*
X0043563Y0027484D01*
X0043583Y0027377D01*
X0043599Y0027270D01*
X0043611Y0027162D01*
X0043619Y0027054D01*
X0043623Y0026945D01*
X0043623Y0026837D01*
X0043619Y0026728D01*
X0043611Y0026620D01*
X0043599Y0026512D01*
X0043583Y0026405D01*
X0043563Y0026298D01*
X0043539Y0026192D01*
X0043512Y0026087D01*
X0043480Y0025984D01*
X0043445Y0025881D01*
X0043406Y0025780D01*
X0043363Y0025680D01*
X0043317Y0025582D01*
X0043267Y0025486D01*
X0043214Y0025391D01*
X0043157Y0025299D01*
X0043097Y0025208D01*
X0043033Y0025120D01*
X0042967Y0025035D01*
X0042897Y0024952D01*
X0042824Y0024871D01*
X0042748Y0024793D01*
X0042670Y0024718D01*
X0042589Y0024646D01*
X0042505Y0024577D01*
X0042419Y0024512D01*
X0042330Y0024449D01*
X0042239Y0024390D01*
X0042147Y0024334D01*
X0042052Y0024281D01*
X0041955Y0024232D01*
X0041856Y0024187D01*
X0041756Y0024145D01*
X0041654Y0024107D01*
X0041552Y0024073D01*
X0041447Y0024042D01*
X0041342Y0024016D01*
X0041236Y0023993D01*
X0041129Y0023974D01*
X0041022Y0023959D01*
X0040914Y0023948D01*
X0040806Y0023941D01*
X0040697Y0023938D01*
X0040589Y0023939D01*
X0040480Y0023944D01*
X0040372Y0023953D01*
X0040264Y0023966D01*
X0040157Y0023983D01*
X0040051Y0024004D01*
X0039945Y0024028D01*
X0039840Y0024057D01*
X0039737Y0024089D01*
X0039635Y0024125D01*
X0039534Y0024165D01*
X0039434Y0024209D01*
X0039337Y0024256D01*
X0039241Y0024307D01*
X0039147Y0024361D01*
X0039055Y0024419D01*
X0038965Y0024480D01*
X0038878Y0024544D01*
X0038793Y0024612D01*
X0038710Y0024682D01*
X0038630Y0024756D01*
X0038553Y0024832D01*
X0038479Y0024911D01*
X0038408Y0024993D01*
X0038340Y0025077D01*
X0038275Y0025164D01*
X0038213Y0025253D01*
X0038154Y0025345D01*
X0038099Y0025438D01*
X0038048Y0025533D01*
X0037999Y0025631D01*
X0037955Y0025730D01*
X0037914Y0025830D01*
X0037877Y0025932D01*
X0037844Y0026035D01*
X0037814Y0026140D01*
X0037788Y0026245D01*
X0037767Y0026352D01*
X0037749Y0026459D01*
X0037735Y0026566D01*
X0037725Y0026674D01*
X0037719Y0026783D01*
X0037717Y0026891D01*
X0007009Y0044607D02*
X0007011Y0044735D01*
X0007017Y0044863D01*
X0007027Y0044990D01*
X0007041Y0045118D01*
X0007058Y0045244D01*
X0007080Y0045370D01*
X0007106Y0045496D01*
X0007135Y0045620D01*
X0007168Y0045744D01*
X0007205Y0045866D01*
X0007246Y0045987D01*
X0007291Y0046107D01*
X0007339Y0046226D01*
X0007391Y0046343D01*
X0007447Y0046458D01*
X0007506Y0046572D01*
X0007568Y0046683D01*
X0007634Y0046793D01*
X0007703Y0046900D01*
X0007776Y0047006D01*
X0007852Y0047109D01*
X0007931Y0047209D01*
X0008013Y0047308D01*
X0008098Y0047403D01*
X0008186Y0047496D01*
X0008277Y0047586D01*
X0008370Y0047673D01*
X0008467Y0047758D01*
X0008565Y0047839D01*
X0008667Y0047917D01*
X0008770Y0047992D01*
X0008876Y0048064D01*
X0008984Y0048133D01*
X0009094Y0048198D01*
X0009207Y0048259D01*
X0009321Y0048318D01*
X0009436Y0048372D01*
X0009554Y0048423D01*
X0009672Y0048471D01*
X0009793Y0048514D01*
X0009914Y0048554D01*
X0010037Y0048590D01*
X0010161Y0048623D01*
X0010286Y0048651D01*
X0010411Y0048676D01*
X0010537Y0048696D01*
X0010664Y0048713D01*
X0010792Y0048726D01*
X0010919Y0048735D01*
X0011047Y0048740D01*
X0011175Y0048741D01*
X0011303Y0048738D01*
X0011431Y0048731D01*
X0011558Y0048720D01*
X0011685Y0048705D01*
X0011812Y0048687D01*
X0011938Y0048664D01*
X0012063Y0048637D01*
X0012187Y0048607D01*
X0012310Y0048573D01*
X0012433Y0048535D01*
X0012554Y0048493D01*
X0012673Y0048447D01*
X0012791Y0048398D01*
X0012908Y0048345D01*
X0013023Y0048289D01*
X0013136Y0048229D01*
X0013247Y0048166D01*
X0013356Y0048099D01*
X0013463Y0048029D01*
X0013568Y0047955D01*
X0013670Y0047879D01*
X0013770Y0047799D01*
X0013868Y0047716D01*
X0013963Y0047630D01*
X0014055Y0047541D01*
X0014144Y0047450D01*
X0014231Y0047356D01*
X0014314Y0047259D01*
X0014395Y0047159D01*
X0014472Y0047058D01*
X0014547Y0046953D01*
X0014618Y0046847D01*
X0014685Y0046738D01*
X0014750Y0046628D01*
X0014810Y0046515D01*
X0014868Y0046401D01*
X0014921Y0046285D01*
X0014971Y0046167D01*
X0015018Y0046048D01*
X0015061Y0045927D01*
X0015100Y0045805D01*
X0015135Y0045682D01*
X0015166Y0045558D01*
X0015194Y0045433D01*
X0015217Y0045307D01*
X0015237Y0045181D01*
X0015253Y0045054D01*
X0015265Y0044927D01*
X0015273Y0044799D01*
X0015277Y0044671D01*
X0015277Y0044543D01*
X0015273Y0044415D01*
X0015265Y0044287D01*
X0015253Y0044160D01*
X0015237Y0044033D01*
X0015217Y0043907D01*
X0015194Y0043781D01*
X0015166Y0043656D01*
X0015135Y0043532D01*
X0015100Y0043409D01*
X0015061Y0043287D01*
X0015018Y0043166D01*
X0014971Y0043047D01*
X0014921Y0042929D01*
X0014868Y0042813D01*
X0014810Y0042699D01*
X0014750Y0042586D01*
X0014685Y0042476D01*
X0014618Y0042367D01*
X0014547Y0042261D01*
X0014472Y0042156D01*
X0014395Y0042055D01*
X0014314Y0041955D01*
X0014231Y0041858D01*
X0014144Y0041764D01*
X0014055Y0041673D01*
X0013963Y0041584D01*
X0013868Y0041498D01*
X0013770Y0041415D01*
X0013670Y0041335D01*
X0013568Y0041259D01*
X0013463Y0041185D01*
X0013356Y0041115D01*
X0013247Y0041048D01*
X0013136Y0040985D01*
X0013023Y0040925D01*
X0012908Y0040869D01*
X0012791Y0040816D01*
X0012673Y0040767D01*
X0012554Y0040721D01*
X0012433Y0040679D01*
X0012310Y0040641D01*
X0012187Y0040607D01*
X0012063Y0040577D01*
X0011938Y0040550D01*
X0011812Y0040527D01*
X0011685Y0040509D01*
X0011558Y0040494D01*
X0011431Y0040483D01*
X0011303Y0040476D01*
X0011175Y0040473D01*
X0011047Y0040474D01*
X0010919Y0040479D01*
X0010792Y0040488D01*
X0010664Y0040501D01*
X0010537Y0040518D01*
X0010411Y0040538D01*
X0010286Y0040563D01*
X0010161Y0040591D01*
X0010037Y0040624D01*
X0009914Y0040660D01*
X0009793Y0040700D01*
X0009672Y0040743D01*
X0009554Y0040791D01*
X0009436Y0040842D01*
X0009321Y0040896D01*
X0009207Y0040955D01*
X0009094Y0041016D01*
X0008984Y0041081D01*
X0008876Y0041150D01*
X0008770Y0041222D01*
X0008667Y0041297D01*
X0008565Y0041375D01*
X0008467Y0041456D01*
X0008370Y0041541D01*
X0008277Y0041628D01*
X0008186Y0041718D01*
X0008098Y0041811D01*
X0008013Y0041906D01*
X0007931Y0042005D01*
X0007852Y0042105D01*
X0007776Y0042208D01*
X0007703Y0042314D01*
X0007634Y0042421D01*
X0007568Y0042531D01*
X0007506Y0042642D01*
X0007447Y0042756D01*
X0007391Y0042871D01*
X0007339Y0042988D01*
X0007291Y0043107D01*
X0007246Y0043227D01*
X0007205Y0043348D01*
X0007168Y0043470D01*
X0007135Y0043594D01*
X0007106Y0043718D01*
X0007080Y0043844D01*
X0007058Y0043970D01*
X0007041Y0044096D01*
X0007027Y0044224D01*
X0007017Y0044351D01*
X0007011Y0044479D01*
X0007009Y0044607D01*
X0026891Y0050020D02*
X0027015Y0050022D01*
X0027138Y0050028D01*
X0027262Y0050037D01*
X0027384Y0050051D01*
X0027507Y0050068D01*
X0027629Y0050090D01*
X0027750Y0050115D01*
X0027870Y0050144D01*
X0027989Y0050176D01*
X0028108Y0050213D01*
X0028225Y0050253D01*
X0028340Y0050296D01*
X0028455Y0050344D01*
X0028567Y0050395D01*
X0028678Y0050449D01*
X0028788Y0050507D01*
X0028895Y0050568D01*
X0029001Y0050633D01*
X0029104Y0050701D01*
X0029205Y0050772D01*
X0029304Y0050846D01*
X0029401Y0050923D01*
X0029495Y0051004D01*
X0029586Y0051087D01*
X0029675Y0051173D01*
X0029761Y0051262D01*
X0029844Y0051353D01*
X0029925Y0051447D01*
X0030002Y0051544D01*
X0030076Y0051643D01*
X0030147Y0051744D01*
X0030215Y0051847D01*
X0030280Y0051953D01*
X0030341Y0052060D01*
X0030399Y0052170D01*
X0030453Y0052281D01*
X0030504Y0052393D01*
X0030552Y0052508D01*
X0030595Y0052623D01*
X0030635Y0052740D01*
X0030672Y0052859D01*
X0030704Y0052978D01*
X0030733Y0053098D01*
X0030758Y0053219D01*
X0030780Y0053341D01*
X0030797Y0053464D01*
X0030811Y0053586D01*
X0030820Y0053710D01*
X0030826Y0053833D01*
X0030828Y0053957D01*
X0060355Y0050020D02*
X0060479Y0050022D01*
X0060602Y0050028D01*
X0060726Y0050037D01*
X0060848Y0050051D01*
X0060971Y0050068D01*
X0061093Y0050090D01*
X0061214Y0050115D01*
X0061334Y0050144D01*
X0061453Y0050176D01*
X0061572Y0050213D01*
X0061689Y0050253D01*
X0061804Y0050296D01*
X0061919Y0050344D01*
X0062031Y0050395D01*
X0062142Y0050449D01*
X0062252Y0050507D01*
X0062359Y0050568D01*
X0062465Y0050633D01*
X0062568Y0050701D01*
X0062669Y0050772D01*
X0062768Y0050846D01*
X0062865Y0050923D01*
X0062959Y0051004D01*
X0063050Y0051087D01*
X0063139Y0051173D01*
X0063225Y0051262D01*
X0063308Y0051353D01*
X0063389Y0051447D01*
X0063466Y0051544D01*
X0063540Y0051643D01*
X0063611Y0051744D01*
X0063679Y0051847D01*
X0063744Y0051953D01*
X0063805Y0052060D01*
X0063863Y0052170D01*
X0063917Y0052281D01*
X0063968Y0052393D01*
X0064016Y0052508D01*
X0064059Y0052623D01*
X0064099Y0052740D01*
X0064136Y0052859D01*
X0064168Y0052978D01*
X0064197Y0053098D01*
X0064222Y0053219D01*
X0064244Y0053341D01*
X0064261Y0053464D01*
X0064275Y0053586D01*
X0064284Y0053710D01*
X0064290Y0053833D01*
X0064292Y0053957D01*
X0113308Y0032796D02*
X0113310Y0032924D01*
X0113316Y0033052D01*
X0113326Y0033179D01*
X0113340Y0033307D01*
X0113357Y0033433D01*
X0113379Y0033559D01*
X0113405Y0033685D01*
X0113434Y0033809D01*
X0113467Y0033933D01*
X0113504Y0034055D01*
X0113545Y0034176D01*
X0113590Y0034296D01*
X0113638Y0034415D01*
X0113690Y0034532D01*
X0113746Y0034647D01*
X0113805Y0034761D01*
X0113867Y0034872D01*
X0113933Y0034982D01*
X0114002Y0035089D01*
X0114075Y0035195D01*
X0114151Y0035298D01*
X0114230Y0035398D01*
X0114312Y0035497D01*
X0114397Y0035592D01*
X0114485Y0035685D01*
X0114576Y0035775D01*
X0114669Y0035862D01*
X0114766Y0035947D01*
X0114864Y0036028D01*
X0114966Y0036106D01*
X0115069Y0036181D01*
X0115175Y0036253D01*
X0115283Y0036322D01*
X0115393Y0036387D01*
X0115506Y0036448D01*
X0115620Y0036507D01*
X0115735Y0036561D01*
X0115853Y0036612D01*
X0115971Y0036660D01*
X0116092Y0036703D01*
X0116213Y0036743D01*
X0116336Y0036779D01*
X0116460Y0036812D01*
X0116585Y0036840D01*
X0116710Y0036865D01*
X0116836Y0036885D01*
X0116963Y0036902D01*
X0117091Y0036915D01*
X0117218Y0036924D01*
X0117346Y0036929D01*
X0117474Y0036930D01*
X0117602Y0036927D01*
X0117730Y0036920D01*
X0117857Y0036909D01*
X0117984Y0036894D01*
X0118111Y0036876D01*
X0118237Y0036853D01*
X0118362Y0036826D01*
X0118486Y0036796D01*
X0118609Y0036762D01*
X0118732Y0036724D01*
X0118853Y0036682D01*
X0118972Y0036636D01*
X0119090Y0036587D01*
X0119207Y0036534D01*
X0119322Y0036478D01*
X0119435Y0036418D01*
X0119546Y0036355D01*
X0119655Y0036288D01*
X0119762Y0036218D01*
X0119867Y0036144D01*
X0119969Y0036068D01*
X0120069Y0035988D01*
X0120167Y0035905D01*
X0120262Y0035819D01*
X0120354Y0035730D01*
X0120443Y0035639D01*
X0120530Y0035545D01*
X0120613Y0035448D01*
X0120694Y0035348D01*
X0120771Y0035247D01*
X0120846Y0035142D01*
X0120917Y0035036D01*
X0120984Y0034927D01*
X0121049Y0034817D01*
X0121109Y0034704D01*
X0121167Y0034590D01*
X0121220Y0034474D01*
X0121270Y0034356D01*
X0121317Y0034237D01*
X0121360Y0034116D01*
X0121399Y0033994D01*
X0121434Y0033871D01*
X0121465Y0033747D01*
X0121493Y0033622D01*
X0121516Y0033496D01*
X0121536Y0033370D01*
X0121552Y0033243D01*
X0121564Y0033116D01*
X0121572Y0032988D01*
X0121576Y0032860D01*
X0121576Y0032732D01*
X0121572Y0032604D01*
X0121564Y0032476D01*
X0121552Y0032349D01*
X0121536Y0032222D01*
X0121516Y0032096D01*
X0121493Y0031970D01*
X0121465Y0031845D01*
X0121434Y0031721D01*
X0121399Y0031598D01*
X0121360Y0031476D01*
X0121317Y0031355D01*
X0121270Y0031236D01*
X0121220Y0031118D01*
X0121167Y0031002D01*
X0121109Y0030888D01*
X0121049Y0030775D01*
X0120984Y0030665D01*
X0120917Y0030556D01*
X0120846Y0030450D01*
X0120771Y0030345D01*
X0120694Y0030244D01*
X0120613Y0030144D01*
X0120530Y0030047D01*
X0120443Y0029953D01*
X0120354Y0029862D01*
X0120262Y0029773D01*
X0120167Y0029687D01*
X0120069Y0029604D01*
X0119969Y0029524D01*
X0119867Y0029448D01*
X0119762Y0029374D01*
X0119655Y0029304D01*
X0119546Y0029237D01*
X0119435Y0029174D01*
X0119322Y0029114D01*
X0119207Y0029058D01*
X0119090Y0029005D01*
X0118972Y0028956D01*
X0118853Y0028910D01*
X0118732Y0028868D01*
X0118609Y0028830D01*
X0118486Y0028796D01*
X0118362Y0028766D01*
X0118237Y0028739D01*
X0118111Y0028716D01*
X0117984Y0028698D01*
X0117857Y0028683D01*
X0117730Y0028672D01*
X0117602Y0028665D01*
X0117474Y0028662D01*
X0117346Y0028663D01*
X0117218Y0028668D01*
X0117091Y0028677D01*
X0116963Y0028690D01*
X0116836Y0028707D01*
X0116710Y0028727D01*
X0116585Y0028752D01*
X0116460Y0028780D01*
X0116336Y0028813D01*
X0116213Y0028849D01*
X0116092Y0028889D01*
X0115971Y0028932D01*
X0115853Y0028980D01*
X0115735Y0029031D01*
X0115620Y0029085D01*
X0115506Y0029144D01*
X0115393Y0029205D01*
X0115283Y0029270D01*
X0115175Y0029339D01*
X0115069Y0029411D01*
X0114966Y0029486D01*
X0114864Y0029564D01*
X0114766Y0029645D01*
X0114669Y0029730D01*
X0114576Y0029817D01*
X0114485Y0029907D01*
X0114397Y0030000D01*
X0114312Y0030095D01*
X0114230Y0030194D01*
X0114151Y0030294D01*
X0114075Y0030397D01*
X0114002Y0030503D01*
X0113933Y0030610D01*
X0113867Y0030720D01*
X0113805Y0030831D01*
X0113746Y0030945D01*
X0113690Y0031060D01*
X0113638Y0031177D01*
X0113590Y0031296D01*
X0113545Y0031416D01*
X0113504Y0031537D01*
X0113467Y0031659D01*
X0113434Y0031783D01*
X0113405Y0031907D01*
X0113379Y0032033D01*
X0113357Y0032159D01*
X0113340Y0032285D01*
X0113326Y0032413D01*
X0113316Y0032540D01*
X0113310Y0032668D01*
X0113308Y0032796D01*
X0152678Y0013111D02*
X0152680Y0013239D01*
X0152686Y0013367D01*
X0152696Y0013494D01*
X0152710Y0013622D01*
X0152727Y0013748D01*
X0152749Y0013874D01*
X0152775Y0014000D01*
X0152804Y0014124D01*
X0152837Y0014248D01*
X0152874Y0014370D01*
X0152915Y0014491D01*
X0152960Y0014611D01*
X0153008Y0014730D01*
X0153060Y0014847D01*
X0153116Y0014962D01*
X0153175Y0015076D01*
X0153237Y0015187D01*
X0153303Y0015297D01*
X0153372Y0015404D01*
X0153445Y0015510D01*
X0153521Y0015613D01*
X0153600Y0015713D01*
X0153682Y0015812D01*
X0153767Y0015907D01*
X0153855Y0016000D01*
X0153946Y0016090D01*
X0154039Y0016177D01*
X0154136Y0016262D01*
X0154234Y0016343D01*
X0154336Y0016421D01*
X0154439Y0016496D01*
X0154545Y0016568D01*
X0154653Y0016637D01*
X0154763Y0016702D01*
X0154876Y0016763D01*
X0154990Y0016822D01*
X0155105Y0016876D01*
X0155223Y0016927D01*
X0155341Y0016975D01*
X0155462Y0017018D01*
X0155583Y0017058D01*
X0155706Y0017094D01*
X0155830Y0017127D01*
X0155955Y0017155D01*
X0156080Y0017180D01*
X0156206Y0017200D01*
X0156333Y0017217D01*
X0156461Y0017230D01*
X0156588Y0017239D01*
X0156716Y0017244D01*
X0156844Y0017245D01*
X0156972Y0017242D01*
X0157100Y0017235D01*
X0157227Y0017224D01*
X0157354Y0017209D01*
X0157481Y0017191D01*
X0157607Y0017168D01*
X0157732Y0017141D01*
X0157856Y0017111D01*
X0157979Y0017077D01*
X0158102Y0017039D01*
X0158223Y0016997D01*
X0158342Y0016951D01*
X0158460Y0016902D01*
X0158577Y0016849D01*
X0158692Y0016793D01*
X0158805Y0016733D01*
X0158916Y0016670D01*
X0159025Y0016603D01*
X0159132Y0016533D01*
X0159237Y0016459D01*
X0159339Y0016383D01*
X0159439Y0016303D01*
X0159537Y0016220D01*
X0159632Y0016134D01*
X0159724Y0016045D01*
X0159813Y0015954D01*
X0159900Y0015860D01*
X0159983Y0015763D01*
X0160064Y0015663D01*
X0160141Y0015562D01*
X0160216Y0015457D01*
X0160287Y0015351D01*
X0160354Y0015242D01*
X0160419Y0015132D01*
X0160479Y0015019D01*
X0160537Y0014905D01*
X0160590Y0014789D01*
X0160640Y0014671D01*
X0160687Y0014552D01*
X0160730Y0014431D01*
X0160769Y0014309D01*
X0160804Y0014186D01*
X0160835Y0014062D01*
X0160863Y0013937D01*
X0160886Y0013811D01*
X0160906Y0013685D01*
X0160922Y0013558D01*
X0160934Y0013431D01*
X0160942Y0013303D01*
X0160946Y0013175D01*
X0160946Y0013047D01*
X0160942Y0012919D01*
X0160934Y0012791D01*
X0160922Y0012664D01*
X0160906Y0012537D01*
X0160886Y0012411D01*
X0160863Y0012285D01*
X0160835Y0012160D01*
X0160804Y0012036D01*
X0160769Y0011913D01*
X0160730Y0011791D01*
X0160687Y0011670D01*
X0160640Y0011551D01*
X0160590Y0011433D01*
X0160537Y0011317D01*
X0160479Y0011203D01*
X0160419Y0011090D01*
X0160354Y0010980D01*
X0160287Y0010871D01*
X0160216Y0010765D01*
X0160141Y0010660D01*
X0160064Y0010559D01*
X0159983Y0010459D01*
X0159900Y0010362D01*
X0159813Y0010268D01*
X0159724Y0010177D01*
X0159632Y0010088D01*
X0159537Y0010002D01*
X0159439Y0009919D01*
X0159339Y0009839D01*
X0159237Y0009763D01*
X0159132Y0009689D01*
X0159025Y0009619D01*
X0158916Y0009552D01*
X0158805Y0009489D01*
X0158692Y0009429D01*
X0158577Y0009373D01*
X0158460Y0009320D01*
X0158342Y0009271D01*
X0158223Y0009225D01*
X0158102Y0009183D01*
X0157979Y0009145D01*
X0157856Y0009111D01*
X0157732Y0009081D01*
X0157607Y0009054D01*
X0157481Y0009031D01*
X0157354Y0009013D01*
X0157227Y0008998D01*
X0157100Y0008987D01*
X0156972Y0008980D01*
X0156844Y0008977D01*
X0156716Y0008978D01*
X0156588Y0008983D01*
X0156461Y0008992D01*
X0156333Y0009005D01*
X0156206Y0009022D01*
X0156080Y0009042D01*
X0155955Y0009067D01*
X0155830Y0009095D01*
X0155706Y0009128D01*
X0155583Y0009164D01*
X0155462Y0009204D01*
X0155341Y0009247D01*
X0155223Y0009295D01*
X0155105Y0009346D01*
X0154990Y0009400D01*
X0154876Y0009459D01*
X0154763Y0009520D01*
X0154653Y0009585D01*
X0154545Y0009654D01*
X0154439Y0009726D01*
X0154336Y0009801D01*
X0154234Y0009879D01*
X0154136Y0009960D01*
X0154039Y0010045D01*
X0153946Y0010132D01*
X0153855Y0010222D01*
X0153767Y0010315D01*
X0153682Y0010410D01*
X0153600Y0010509D01*
X0153521Y0010609D01*
X0153445Y0010712D01*
X0153372Y0010818D01*
X0153303Y0010925D01*
X0153237Y0011035D01*
X0153175Y0011146D01*
X0153116Y0011260D01*
X0153060Y0011375D01*
X0153008Y0011492D01*
X0152960Y0011611D01*
X0152915Y0011731D01*
X0152874Y0011852D01*
X0152837Y0011974D01*
X0152804Y0012098D01*
X0152775Y0012222D01*
X0152749Y0012348D01*
X0152727Y0012474D01*
X0152710Y0012600D01*
X0152696Y0012728D01*
X0152686Y0012855D01*
X0152680Y0012983D01*
X0152678Y0013111D01*
X0190276Y0003761D02*
X0190278Y0003885D01*
X0190284Y0004008D01*
X0190293Y0004132D01*
X0190307Y0004254D01*
X0190324Y0004377D01*
X0190346Y0004499D01*
X0190371Y0004620D01*
X0190400Y0004740D01*
X0190432Y0004859D01*
X0190469Y0004978D01*
X0190509Y0005095D01*
X0190552Y0005210D01*
X0190600Y0005325D01*
X0190651Y0005437D01*
X0190705Y0005548D01*
X0190763Y0005658D01*
X0190824Y0005765D01*
X0190889Y0005871D01*
X0190957Y0005974D01*
X0191028Y0006075D01*
X0191102Y0006174D01*
X0191179Y0006271D01*
X0191260Y0006365D01*
X0191343Y0006456D01*
X0191429Y0006545D01*
X0191518Y0006631D01*
X0191609Y0006714D01*
X0191703Y0006795D01*
X0191800Y0006872D01*
X0191899Y0006946D01*
X0192000Y0007017D01*
X0192103Y0007085D01*
X0192209Y0007150D01*
X0192316Y0007211D01*
X0192426Y0007269D01*
X0192537Y0007323D01*
X0192649Y0007374D01*
X0192764Y0007422D01*
X0192879Y0007465D01*
X0192996Y0007505D01*
X0193115Y0007542D01*
X0193234Y0007574D01*
X0193354Y0007603D01*
X0193475Y0007628D01*
X0193597Y0007650D01*
X0193720Y0007667D01*
X0193842Y0007681D01*
X0193966Y0007690D01*
X0194089Y0007696D01*
X0194213Y0007698D01*
X0191260Y0026891D02*
X0191262Y0026999D01*
X0191268Y0027108D01*
X0191278Y0027216D01*
X0191292Y0027323D01*
X0191310Y0027430D01*
X0191331Y0027537D01*
X0191357Y0027642D01*
X0191387Y0027747D01*
X0191420Y0027850D01*
X0191457Y0027952D01*
X0191498Y0028052D01*
X0191542Y0028151D01*
X0191591Y0028249D01*
X0191642Y0028344D01*
X0191697Y0028437D01*
X0191756Y0028529D01*
X0191818Y0028618D01*
X0191883Y0028705D01*
X0191951Y0028789D01*
X0192022Y0028871D01*
X0192096Y0028950D01*
X0192173Y0029026D01*
X0192253Y0029100D01*
X0192336Y0029170D01*
X0192421Y0029238D01*
X0192508Y0029302D01*
X0192598Y0029363D01*
X0192690Y0029421D01*
X0192784Y0029475D01*
X0192880Y0029526D01*
X0192977Y0029573D01*
X0193077Y0029617D01*
X0193178Y0029657D01*
X0193280Y0029693D01*
X0193383Y0029725D01*
X0193488Y0029754D01*
X0193594Y0029778D01*
X0193700Y0029799D01*
X0193807Y0029816D01*
X0193915Y0029829D01*
X0194023Y0029838D01*
X0194132Y0029843D01*
X0194240Y0029844D01*
X0194349Y0029841D01*
X0194457Y0029834D01*
X0194565Y0029823D01*
X0194672Y0029808D01*
X0194779Y0029789D01*
X0194885Y0029766D01*
X0194990Y0029740D01*
X0195095Y0029709D01*
X0195197Y0029675D01*
X0195299Y0029637D01*
X0195399Y0029595D01*
X0195498Y0029550D01*
X0195595Y0029501D01*
X0195689Y0029448D01*
X0195782Y0029392D01*
X0195873Y0029333D01*
X0195962Y0029270D01*
X0196048Y0029205D01*
X0196132Y0029136D01*
X0196213Y0029064D01*
X0196291Y0028989D01*
X0196367Y0028911D01*
X0196440Y0028830D01*
X0196510Y0028747D01*
X0196576Y0028662D01*
X0196640Y0028574D01*
X0196700Y0028483D01*
X0196757Y0028391D01*
X0196810Y0028296D01*
X0196860Y0028200D01*
X0196906Y0028102D01*
X0196949Y0028002D01*
X0196988Y0027901D01*
X0197023Y0027798D01*
X0197055Y0027695D01*
X0197082Y0027590D01*
X0197106Y0027484D01*
X0197126Y0027377D01*
X0197142Y0027270D01*
X0197154Y0027162D01*
X0197162Y0027054D01*
X0197166Y0026945D01*
X0197166Y0026837D01*
X0197162Y0026728D01*
X0197154Y0026620D01*
X0197142Y0026512D01*
X0197126Y0026405D01*
X0197106Y0026298D01*
X0197082Y0026192D01*
X0197055Y0026087D01*
X0197023Y0025984D01*
X0196988Y0025881D01*
X0196949Y0025780D01*
X0196906Y0025680D01*
X0196860Y0025582D01*
X0196810Y0025486D01*
X0196757Y0025391D01*
X0196700Y0025299D01*
X0196640Y0025208D01*
X0196576Y0025120D01*
X0196510Y0025035D01*
X0196440Y0024952D01*
X0196367Y0024871D01*
X0196291Y0024793D01*
X0196213Y0024718D01*
X0196132Y0024646D01*
X0196048Y0024577D01*
X0195962Y0024512D01*
X0195873Y0024449D01*
X0195782Y0024390D01*
X0195690Y0024334D01*
X0195595Y0024281D01*
X0195498Y0024232D01*
X0195399Y0024187D01*
X0195299Y0024145D01*
X0195197Y0024107D01*
X0195095Y0024073D01*
X0194990Y0024042D01*
X0194885Y0024016D01*
X0194779Y0023993D01*
X0194672Y0023974D01*
X0194565Y0023959D01*
X0194457Y0023948D01*
X0194349Y0023941D01*
X0194240Y0023938D01*
X0194132Y0023939D01*
X0194023Y0023944D01*
X0193915Y0023953D01*
X0193807Y0023966D01*
X0193700Y0023983D01*
X0193594Y0024004D01*
X0193488Y0024028D01*
X0193383Y0024057D01*
X0193280Y0024089D01*
X0193178Y0024125D01*
X0193077Y0024165D01*
X0192977Y0024209D01*
X0192880Y0024256D01*
X0192784Y0024307D01*
X0192690Y0024361D01*
X0192598Y0024419D01*
X0192508Y0024480D01*
X0192421Y0024544D01*
X0192336Y0024612D01*
X0192253Y0024682D01*
X0192173Y0024756D01*
X0192096Y0024832D01*
X0192022Y0024911D01*
X0191951Y0024993D01*
X0191883Y0025077D01*
X0191818Y0025164D01*
X0191756Y0025253D01*
X0191697Y0025345D01*
X0191642Y0025438D01*
X0191591Y0025533D01*
X0191542Y0025631D01*
X0191498Y0025730D01*
X0191457Y0025830D01*
X0191420Y0025932D01*
X0191387Y0026035D01*
X0191357Y0026140D01*
X0191331Y0026245D01*
X0191310Y0026352D01*
X0191292Y0026459D01*
X0191278Y0026566D01*
X0191268Y0026674D01*
X0191262Y0026783D01*
X0191260Y0026891D01*
X0219607Y0044607D02*
X0219609Y0044735D01*
X0219615Y0044863D01*
X0219625Y0044990D01*
X0219639Y0045118D01*
X0219656Y0045244D01*
X0219678Y0045370D01*
X0219704Y0045496D01*
X0219733Y0045620D01*
X0219766Y0045744D01*
X0219803Y0045866D01*
X0219844Y0045987D01*
X0219889Y0046107D01*
X0219937Y0046226D01*
X0219989Y0046343D01*
X0220045Y0046458D01*
X0220104Y0046572D01*
X0220166Y0046683D01*
X0220232Y0046793D01*
X0220301Y0046900D01*
X0220374Y0047006D01*
X0220450Y0047109D01*
X0220529Y0047209D01*
X0220611Y0047308D01*
X0220696Y0047403D01*
X0220784Y0047496D01*
X0220875Y0047586D01*
X0220968Y0047673D01*
X0221065Y0047758D01*
X0221163Y0047839D01*
X0221265Y0047917D01*
X0221368Y0047992D01*
X0221474Y0048064D01*
X0221582Y0048133D01*
X0221692Y0048198D01*
X0221805Y0048259D01*
X0221919Y0048318D01*
X0222034Y0048372D01*
X0222152Y0048423D01*
X0222270Y0048471D01*
X0222391Y0048514D01*
X0222512Y0048554D01*
X0222635Y0048590D01*
X0222759Y0048623D01*
X0222884Y0048651D01*
X0223009Y0048676D01*
X0223135Y0048696D01*
X0223262Y0048713D01*
X0223390Y0048726D01*
X0223517Y0048735D01*
X0223645Y0048740D01*
X0223773Y0048741D01*
X0223901Y0048738D01*
X0224029Y0048731D01*
X0224156Y0048720D01*
X0224283Y0048705D01*
X0224410Y0048687D01*
X0224536Y0048664D01*
X0224661Y0048637D01*
X0224785Y0048607D01*
X0224908Y0048573D01*
X0225031Y0048535D01*
X0225152Y0048493D01*
X0225271Y0048447D01*
X0225389Y0048398D01*
X0225506Y0048345D01*
X0225621Y0048289D01*
X0225734Y0048229D01*
X0225845Y0048166D01*
X0225954Y0048099D01*
X0226061Y0048029D01*
X0226166Y0047955D01*
X0226268Y0047879D01*
X0226368Y0047799D01*
X0226466Y0047716D01*
X0226561Y0047630D01*
X0226653Y0047541D01*
X0226742Y0047450D01*
X0226829Y0047356D01*
X0226912Y0047259D01*
X0226993Y0047159D01*
X0227070Y0047058D01*
X0227145Y0046953D01*
X0227216Y0046847D01*
X0227283Y0046738D01*
X0227348Y0046628D01*
X0227408Y0046515D01*
X0227466Y0046401D01*
X0227519Y0046285D01*
X0227569Y0046167D01*
X0227616Y0046048D01*
X0227659Y0045927D01*
X0227698Y0045805D01*
X0227733Y0045682D01*
X0227764Y0045558D01*
X0227792Y0045433D01*
X0227815Y0045307D01*
X0227835Y0045181D01*
X0227851Y0045054D01*
X0227863Y0044927D01*
X0227871Y0044799D01*
X0227875Y0044671D01*
X0227875Y0044543D01*
X0227871Y0044415D01*
X0227863Y0044287D01*
X0227851Y0044160D01*
X0227835Y0044033D01*
X0227815Y0043907D01*
X0227792Y0043781D01*
X0227764Y0043656D01*
X0227733Y0043532D01*
X0227698Y0043409D01*
X0227659Y0043287D01*
X0227616Y0043166D01*
X0227569Y0043047D01*
X0227519Y0042929D01*
X0227466Y0042813D01*
X0227408Y0042699D01*
X0227348Y0042586D01*
X0227283Y0042476D01*
X0227216Y0042367D01*
X0227145Y0042261D01*
X0227070Y0042156D01*
X0226993Y0042055D01*
X0226912Y0041955D01*
X0226829Y0041858D01*
X0226742Y0041764D01*
X0226653Y0041673D01*
X0226561Y0041584D01*
X0226466Y0041498D01*
X0226368Y0041415D01*
X0226268Y0041335D01*
X0226166Y0041259D01*
X0226061Y0041185D01*
X0225954Y0041115D01*
X0225845Y0041048D01*
X0225734Y0040985D01*
X0225621Y0040925D01*
X0225506Y0040869D01*
X0225389Y0040816D01*
X0225271Y0040767D01*
X0225152Y0040721D01*
X0225031Y0040679D01*
X0224908Y0040641D01*
X0224785Y0040607D01*
X0224661Y0040577D01*
X0224536Y0040550D01*
X0224410Y0040527D01*
X0224283Y0040509D01*
X0224156Y0040494D01*
X0224029Y0040483D01*
X0223901Y0040476D01*
X0223773Y0040473D01*
X0223645Y0040474D01*
X0223517Y0040479D01*
X0223390Y0040488D01*
X0223262Y0040501D01*
X0223135Y0040518D01*
X0223009Y0040538D01*
X0222884Y0040563D01*
X0222759Y0040591D01*
X0222635Y0040624D01*
X0222512Y0040660D01*
X0222391Y0040700D01*
X0222270Y0040743D01*
X0222152Y0040791D01*
X0222034Y0040842D01*
X0221919Y0040896D01*
X0221805Y0040955D01*
X0221692Y0041016D01*
X0221582Y0041081D01*
X0221474Y0041150D01*
X0221368Y0041222D01*
X0221265Y0041297D01*
X0221163Y0041375D01*
X0221065Y0041456D01*
X0220968Y0041541D01*
X0220875Y0041628D01*
X0220784Y0041718D01*
X0220696Y0041811D01*
X0220611Y0041906D01*
X0220529Y0042005D01*
X0220450Y0042105D01*
X0220374Y0042208D01*
X0220301Y0042314D01*
X0220232Y0042421D01*
X0220166Y0042531D01*
X0220104Y0042642D01*
X0220045Y0042756D01*
X0219989Y0042871D01*
X0219937Y0042988D01*
X0219889Y0043107D01*
X0219844Y0043227D01*
X0219803Y0043348D01*
X0219766Y0043470D01*
X0219733Y0043594D01*
X0219704Y0043718D01*
X0219678Y0043844D01*
X0219656Y0043970D01*
X0219639Y0044096D01*
X0219625Y0044224D01*
X0219615Y0044351D01*
X0219609Y0044479D01*
X0219607Y0044607D01*
X0211930Y0053957D02*
X0211928Y0053833D01*
X0211922Y0053710D01*
X0211913Y0053586D01*
X0211899Y0053464D01*
X0211882Y0053341D01*
X0211860Y0053219D01*
X0211835Y0053098D01*
X0211806Y0052978D01*
X0211774Y0052859D01*
X0211737Y0052740D01*
X0211697Y0052623D01*
X0211654Y0052508D01*
X0211606Y0052393D01*
X0211555Y0052281D01*
X0211501Y0052170D01*
X0211443Y0052060D01*
X0211382Y0051953D01*
X0211317Y0051847D01*
X0211249Y0051744D01*
X0211178Y0051643D01*
X0211104Y0051544D01*
X0211027Y0051447D01*
X0210946Y0051353D01*
X0210863Y0051262D01*
X0210777Y0051173D01*
X0210688Y0051087D01*
X0210597Y0051004D01*
X0210503Y0050923D01*
X0210406Y0050846D01*
X0210307Y0050772D01*
X0210206Y0050701D01*
X0210103Y0050633D01*
X0209997Y0050568D01*
X0209890Y0050507D01*
X0209780Y0050449D01*
X0209669Y0050395D01*
X0209557Y0050344D01*
X0209442Y0050296D01*
X0209327Y0050253D01*
X0209210Y0050213D01*
X0209091Y0050176D01*
X0208972Y0050144D01*
X0208852Y0050115D01*
X0208731Y0050090D01*
X0208609Y0050068D01*
X0208486Y0050051D01*
X0208364Y0050037D01*
X0208240Y0050028D01*
X0208117Y0050022D01*
X0207993Y0050020D01*
X0178465Y0053957D02*
X0178463Y0053833D01*
X0178457Y0053710D01*
X0178448Y0053586D01*
X0178434Y0053464D01*
X0178417Y0053341D01*
X0178395Y0053219D01*
X0178370Y0053098D01*
X0178341Y0052978D01*
X0178309Y0052859D01*
X0178272Y0052740D01*
X0178232Y0052623D01*
X0178189Y0052508D01*
X0178141Y0052393D01*
X0178090Y0052281D01*
X0178036Y0052170D01*
X0177978Y0052060D01*
X0177917Y0051953D01*
X0177852Y0051847D01*
X0177784Y0051744D01*
X0177713Y0051643D01*
X0177639Y0051544D01*
X0177562Y0051447D01*
X0177481Y0051353D01*
X0177398Y0051262D01*
X0177312Y0051173D01*
X0177223Y0051087D01*
X0177132Y0051004D01*
X0177038Y0050923D01*
X0176941Y0050846D01*
X0176842Y0050772D01*
X0176741Y0050701D01*
X0176638Y0050633D01*
X0176532Y0050568D01*
X0176425Y0050507D01*
X0176315Y0050449D01*
X0176204Y0050395D01*
X0176092Y0050344D01*
X0175977Y0050296D01*
X0175862Y0050253D01*
X0175745Y0050213D01*
X0175626Y0050176D01*
X0175507Y0050144D01*
X0175387Y0050115D01*
X0175266Y0050090D01*
X0175144Y0050068D01*
X0175021Y0050051D01*
X0174899Y0050037D01*
X0174775Y0050028D01*
X0174652Y0050022D01*
X0174528Y0050020D01*
D11*
X0142442Y0048052D03*
X0132442Y0048052D03*
X0122442Y0048052D03*
X0112442Y0048052D03*
X0102442Y0048052D03*
X0092442Y0048052D03*
D12*
X0064099Y0034919D02*
X0063475Y0033581D01*
X0061037Y0034175D01*
X0058183Y0033877D01*
X0056875Y0033400D01*
X0054854Y0031628D01*
X0053190Y0028060D01*
X0053607Y0024064D02*
X0056852Y0031022D01*
X0062643Y0031797D02*
X0057235Y0020200D01*
X0055213Y0021686D01*
X0053607Y0024064D01*
X0056128Y0023649D02*
X0061037Y0034175D01*
X0063475Y0033581D02*
X0065497Y0032095D01*
X0067103Y0029717D01*
X0067579Y0028409D01*
X0067520Y0025721D01*
X0065857Y0022153D01*
X0060589Y0021569D02*
X0065497Y0032095D01*
X0065772Y0026862D02*
X0062527Y0019905D01*
X0059673Y0019606D01*
X0057235Y0020200D01*
X0056611Y0018862D01*
X0034056Y0025721D02*
X0032392Y0022153D01*
X0027124Y0021569D02*
X0032032Y0032095D01*
X0033639Y0029717D01*
X0034115Y0028409D01*
X0034056Y0025721D01*
X0032307Y0026862D02*
X0029063Y0019905D01*
X0026209Y0019606D01*
X0023771Y0020200D01*
X0021749Y0021686D01*
X0020143Y0024064D01*
X0023387Y0031022D01*
X0021389Y0031628D02*
X0023410Y0033400D01*
X0024718Y0033877D01*
X0027572Y0034175D01*
X0030010Y0033581D01*
X0030634Y0034919D01*
X0030010Y0033581D02*
X0032032Y0032095D01*
X0029178Y0031797D02*
X0023771Y0020200D01*
X0023147Y0018862D01*
X0022664Y0023649D02*
X0027572Y0034175D01*
X0021389Y0031628D02*
X0019725Y0028060D01*
X0167304Y0028409D02*
X0167363Y0025721D01*
X0169027Y0022153D01*
X0174295Y0021569D02*
X0169387Y0032095D01*
X0167780Y0029717D01*
X0167304Y0028409D01*
X0169111Y0026862D02*
X0172356Y0019905D01*
X0175210Y0019606D01*
X0177648Y0020200D01*
X0179670Y0021686D01*
X0181276Y0024064D01*
X0178032Y0031022D01*
X0180030Y0031628D02*
X0178009Y0033400D01*
X0176701Y0033877D01*
X0173847Y0034175D01*
X0171409Y0033581D01*
X0170785Y0034919D01*
X0171409Y0033581D02*
X0169387Y0032095D01*
X0172241Y0031797D02*
X0177648Y0020200D01*
X0178272Y0018862D01*
X0178755Y0023649D02*
X0173847Y0034175D01*
X0180030Y0031628D02*
X0181694Y0028060D01*
X0200769Y0028409D02*
X0200828Y0025721D01*
X0202491Y0022153D01*
X0207759Y0021569D02*
X0202851Y0032095D01*
X0201245Y0029717D01*
X0200769Y0028409D01*
X0202576Y0026862D02*
X0205821Y0019905D01*
X0208675Y0019606D01*
X0211113Y0020200D01*
X0213135Y0021686D01*
X0214741Y0024064D01*
X0211496Y0031022D01*
X0213494Y0031628D02*
X0211473Y0033400D01*
X0210165Y0033877D01*
X0207311Y0034175D01*
X0204873Y0033581D01*
X0204249Y0034919D01*
X0204873Y0033581D02*
X0202851Y0032095D01*
X0205705Y0031797D02*
X0211113Y0020200D01*
X0211737Y0018862D01*
X0212220Y0023649D02*
X0207311Y0034175D01*
X0213494Y0031628D02*
X0215158Y0028060D01*
D13*
G36*
X0206342Y0034158D02*
X0203488Y0032826D01*
X0202156Y0035680D01*
X0205010Y0037012D01*
X0206342Y0034158D01*
G37*
G36*
X0172878Y0034158D02*
X0170024Y0032826D01*
X0168692Y0035680D01*
X0171546Y0037012D01*
X0172878Y0034158D01*
G37*
G36*
X0180365Y0018101D02*
X0177511Y0016769D01*
X0176179Y0019623D01*
X0179033Y0020955D01*
X0180365Y0018101D01*
G37*
G36*
X0213830Y0018101D02*
X0210976Y0016769D01*
X0209644Y0019623D01*
X0212498Y0020955D01*
X0213830Y0018101D01*
G37*
G36*
X0064860Y0032826D02*
X0062006Y0034158D01*
X0063338Y0037012D01*
X0066192Y0035680D01*
X0064860Y0032826D01*
G37*
G36*
X0031395Y0032826D02*
X0028541Y0034158D01*
X0029873Y0037012D01*
X0032727Y0035680D01*
X0031395Y0032826D01*
G37*
G36*
X0023908Y0016769D02*
X0021054Y0018101D01*
X0022386Y0020955D01*
X0025240Y0019623D01*
X0023908Y0016769D01*
G37*
G36*
X0057372Y0016769D02*
X0054518Y0018101D01*
X0055850Y0020955D01*
X0058704Y0019623D01*
X0057372Y0016769D01*
G37*
D14*
G36*
X0044684Y0020297D02*
X0049321Y0018134D01*
X0046742Y0012605D01*
X0042105Y0014768D01*
X0044684Y0020297D01*
G37*
G36*
X0011219Y0020297D02*
X0015856Y0018134D01*
X0013277Y0012605D01*
X0008640Y0014768D01*
X0011219Y0020297D01*
G37*
G36*
X0027276Y0012810D02*
X0031913Y0010647D01*
X0029334Y0005118D01*
X0024697Y0007281D01*
X0027276Y0012810D01*
G37*
G36*
X0060741Y0012810D02*
X0065378Y0010647D01*
X0062799Y0005118D01*
X0058162Y0007281D01*
X0060741Y0012810D01*
G37*
G36*
X0073968Y0041176D02*
X0078605Y0039013D01*
X0076026Y0033484D01*
X0071389Y0035647D01*
X0073968Y0041176D01*
G37*
G36*
X0057912Y0048664D02*
X0062549Y0046501D01*
X0059970Y0040972D01*
X0055333Y0043135D01*
X0057912Y0048664D01*
G37*
G36*
X0024447Y0048664D02*
X0029084Y0046501D01*
X0026505Y0040972D01*
X0021868Y0043135D01*
X0024447Y0048664D01*
G37*
G36*
X0040504Y0041176D02*
X0045141Y0039013D01*
X0042562Y0033484D01*
X0037925Y0035647D01*
X0040504Y0041176D01*
G37*
G36*
X0163494Y0035647D02*
X0158857Y0033484D01*
X0156278Y0039013D01*
X0160915Y0041176D01*
X0163494Y0035647D01*
G37*
G36*
X0196959Y0035647D02*
X0192322Y0033484D01*
X0189743Y0039013D01*
X0194380Y0041176D01*
X0196959Y0035647D01*
G37*
G36*
X0213015Y0043135D02*
X0208378Y0040972D01*
X0205799Y0046501D01*
X0210436Y0048664D01*
X0213015Y0043135D01*
G37*
G36*
X0179551Y0043135D02*
X0174914Y0040972D01*
X0172335Y0046501D01*
X0176972Y0048664D01*
X0179551Y0043135D01*
G37*
G36*
X0192778Y0014768D02*
X0188141Y0012605D01*
X0185562Y0018134D01*
X0190199Y0020297D01*
X0192778Y0014768D01*
G37*
G36*
X0210186Y0007281D02*
X0205549Y0005118D01*
X0202970Y0010647D01*
X0207607Y0012810D01*
X0210186Y0007281D01*
G37*
G36*
X0226243Y0014768D02*
X0221606Y0012605D01*
X0219027Y0018134D01*
X0223664Y0020297D01*
X0226243Y0014768D01*
G37*
G36*
X0176722Y0007281D02*
X0172085Y0005118D01*
X0169506Y0010647D01*
X0174143Y0012810D01*
X0176722Y0007281D01*
G37*
D15*
X0177727Y0006860D02*
X0189906Y0006860D01*
X0189774Y0006727D02*
X0189774Y0006727D01*
X0188976Y0004802D01*
X0188976Y0004568D01*
X0173481Y0004568D01*
X0177590Y0006485D01*
X0177898Y0007331D01*
X0174939Y0013678D01*
X0174092Y0013986D01*
X0172894Y0013427D01*
X0170820Y0017874D01*
X0172589Y0017142D01*
X0176344Y0017142D01*
X0176770Y0016227D01*
X0177034Y0015985D01*
X0177371Y0015862D01*
X0177728Y0015878D01*
X0179046Y0016493D01*
X0178375Y0017932D01*
X0178930Y0018162D01*
X0179590Y0016746D01*
X0180907Y0017360D01*
X0181149Y0017624D01*
X0181272Y0017961D01*
X0181256Y0018319D01*
X0180775Y0019350D01*
X0182793Y0021368D01*
X0184277Y0024951D01*
X0184277Y0028830D01*
X0182793Y0032413D01*
X0180051Y0035155D01*
X0176468Y0036639D01*
X0172920Y0036639D01*
X0172342Y0037879D01*
X0171495Y0038188D01*
X0169884Y0037436D01*
X0163860Y0037436D01*
X0161711Y0042045D01*
X0160865Y0042353D01*
X0155410Y0039809D01*
X0155102Y0038963D01*
X0155813Y0037436D01*
X0155444Y0037436D01*
X0146805Y0046075D01*
X0147229Y0047100D01*
X0147229Y0049004D01*
X0146500Y0050764D01*
X0145154Y0052111D01*
X0143394Y0052839D01*
X0141489Y0052839D01*
X0139730Y0052111D01*
X0138383Y0050764D01*
X0137654Y0049004D01*
X0137654Y0047100D01*
X0138383Y0045340D01*
X0139730Y0043993D01*
X0141489Y0043265D01*
X0143394Y0043265D01*
X0144418Y0043689D01*
X0153057Y0035050D01*
X0154046Y0034061D01*
X0157387Y0034061D01*
X0158061Y0032616D01*
X0158908Y0032308D01*
X0160106Y0032866D01*
X0169835Y0012001D01*
X0168637Y0011442D01*
X0168329Y0010596D01*
X0171140Y0004568D01*
X0152875Y0004568D01*
X0152360Y0004619D01*
X0151410Y0005013D01*
X0150682Y0005740D01*
X0150288Y0006691D01*
X0150238Y0007205D01*
X0150238Y0008125D01*
X0152182Y0006181D01*
X0155186Y0004937D01*
X0158438Y0004937D01*
X0161442Y0006181D01*
X0163741Y0008481D01*
X0164986Y0011485D01*
X0164986Y0014737D01*
X0163741Y0017741D01*
X0161442Y0020041D01*
X0158438Y0021285D01*
X0155186Y0021285D01*
X0152182Y0020041D01*
X0150238Y0018097D01*
X0150238Y0020058D01*
X0149441Y0021983D01*
X0147967Y0023456D01*
X0146042Y0024254D01*
X0088841Y0024254D01*
X0086916Y0023456D01*
X0085443Y0021983D01*
X0084646Y0020058D01*
X0084646Y0018097D01*
X0082702Y0020041D01*
X0079698Y0021285D01*
X0076446Y0021285D01*
X0073441Y0020041D01*
X0071142Y0017741D01*
X0069898Y0014737D01*
X0069898Y0011485D01*
X0071142Y0008481D01*
X0073441Y0006181D01*
X0076446Y0004937D01*
X0079698Y0004937D01*
X0082702Y0006181D01*
X0084646Y0008125D01*
X0084646Y0007205D01*
X0084595Y0006691D01*
X0084201Y0005740D01*
X0083474Y0005013D01*
X0082523Y0004619D01*
X0082009Y0004568D01*
X0063744Y0004568D01*
X0066554Y0010596D01*
X0066246Y0011442D01*
X0065048Y0012001D01*
X0074777Y0032866D01*
X0075976Y0032308D01*
X0076822Y0032616D01*
X0077496Y0034061D01*
X0100838Y0034061D01*
X0101826Y0035050D01*
X0110465Y0043689D01*
X0111489Y0043265D01*
X0113394Y0043265D01*
X0115154Y0043993D01*
X0116500Y0045340D01*
X0117229Y0047100D01*
X0117229Y0049004D01*
X0116500Y0050764D01*
X0115154Y0052111D01*
X0113394Y0052839D01*
X0111489Y0052839D01*
X0109730Y0052111D01*
X0108383Y0050764D01*
X0107654Y0049004D01*
X0107654Y0047100D01*
X0108079Y0046075D01*
X0099440Y0037436D01*
X0079070Y0037436D01*
X0079782Y0038963D01*
X0079474Y0039809D01*
X0074019Y0042353D01*
X0073172Y0042045D01*
X0071023Y0037436D01*
X0065000Y0037436D01*
X0063388Y0038188D01*
X0062542Y0037879D01*
X0061964Y0036639D01*
X0058416Y0036639D01*
X0054833Y0035155D01*
X0052090Y0032413D01*
X0050606Y0028830D01*
X0050606Y0024951D01*
X0052090Y0021368D01*
X0054108Y0019350D01*
X0053627Y0018319D01*
X0053612Y0017961D01*
X0053734Y0017624D01*
X0053976Y0017360D01*
X0055294Y0016746D01*
X0055954Y0018162D01*
X0056509Y0017932D01*
X0055837Y0016493D01*
X0057155Y0015878D01*
X0057513Y0015862D01*
X0057849Y0015985D01*
X0058113Y0016227D01*
X0058540Y0017142D01*
X0062294Y0017142D01*
X0064063Y0017874D01*
X0061989Y0013427D01*
X0060791Y0013986D01*
X0059945Y0013678D01*
X0056985Y0007331D01*
X0057293Y0006485D01*
X0061402Y0004568D01*
X0045907Y0004568D01*
X0045907Y0004802D01*
X0045110Y0006727D01*
X0043637Y0008200D01*
X0043637Y0008200D01*
X0041712Y0008998D01*
X0039628Y0008998D01*
X0037704Y0008200D01*
X0037704Y0008200D01*
X0036230Y0006727D01*
X0035433Y0004802D01*
X0035433Y0004568D01*
X0030279Y0004568D01*
X0033090Y0010596D01*
X0032782Y0011442D01*
X0031603Y0011992D01*
X0034642Y0018425D01*
X0034877Y0018608D01*
X0034930Y0019033D01*
X0035112Y0019420D01*
X0035012Y0019700D01*
X0035245Y0021585D01*
X0036639Y0024951D01*
X0036639Y0025509D01*
X0037065Y0024482D01*
X0038261Y0023285D01*
X0039824Y0022638D01*
X0041516Y0022638D01*
X0043079Y0023285D01*
X0044275Y0024482D01*
X0044923Y0026045D01*
X0044923Y0027736D01*
X0044275Y0029300D01*
X0043079Y0030496D01*
X0041516Y0031143D01*
X0039824Y0031143D01*
X0038261Y0030496D01*
X0037065Y0029300D01*
X0036639Y0028272D01*
X0036639Y0028830D01*
X0035155Y0032413D01*
X0034337Y0033231D01*
X0039820Y0033231D01*
X0040046Y0033457D01*
X0042511Y0032308D01*
X0043358Y0032616D01*
X0046317Y0038963D01*
X0046009Y0039809D01*
X0043048Y0041190D01*
X0043048Y0041655D01*
X0041655Y0043048D01*
X0039685Y0043048D01*
X0038292Y0041655D01*
X0038292Y0039685D01*
X0038507Y0039470D01*
X0037172Y0036606D01*
X0033315Y0036606D01*
X0029924Y0038188D01*
X0029077Y0037879D01*
X0028499Y0036639D01*
X0024951Y0036639D01*
X0021368Y0035155D01*
X0018626Y0032413D01*
X0017142Y0028830D01*
X0017142Y0024951D01*
X0018626Y0021368D01*
X0020644Y0019350D01*
X0020163Y0018319D01*
X0020147Y0017961D01*
X0020270Y0017624D01*
X0020511Y0017360D01*
X0021829Y0016746D01*
X0022489Y0018162D01*
X0023044Y0017932D01*
X0022373Y0016493D01*
X0023690Y0015878D01*
X0024048Y0015862D01*
X0024385Y0015985D01*
X0024649Y0016227D01*
X0025075Y0017142D01*
X0028830Y0017142D01*
X0030662Y0017901D01*
X0028544Y0013419D01*
X0027327Y0013986D01*
X0026480Y0013678D01*
X0023520Y0007331D01*
X0023829Y0006485D01*
X0027938Y0004568D01*
X0007205Y0004568D01*
X0006691Y0004619D01*
X0005740Y0005013D01*
X0005013Y0005740D01*
X0004619Y0006691D01*
X0004568Y0007206D01*
X0004568Y0016510D01*
X0006537Y0018478D01*
X0006537Y0037667D01*
X0009517Y0036433D01*
X0012768Y0036433D01*
X0015773Y0037677D01*
X0018072Y0039977D01*
X0019317Y0042981D01*
X0019317Y0046233D01*
X0018072Y0049237D01*
X0015773Y0051537D01*
X0012768Y0052781D01*
X0009517Y0052781D01*
X0006512Y0051537D01*
X0004568Y0049593D01*
X0004568Y0050513D01*
X0004619Y0051027D01*
X0005013Y0051978D01*
X0005740Y0052705D01*
X0006691Y0053099D01*
X0007205Y0053150D01*
X0021654Y0053150D01*
X0021654Y0052916D01*
X0022451Y0050991D01*
X0023924Y0049518D01*
X0023924Y0049518D01*
X0024034Y0049472D01*
X0023970Y0049449D01*
X0023706Y0049207D01*
X0022468Y0046551D01*
X0025331Y0045216D01*
X0025077Y0044672D01*
X0025621Y0044419D01*
X0024078Y0041110D01*
X0026288Y0040079D01*
X0026645Y0040064D01*
X0026982Y0040186D01*
X0027246Y0040428D01*
X0028484Y0043084D01*
X0025621Y0044419D01*
X0025875Y0044963D01*
X0025331Y0045216D01*
X0026874Y0048525D01*
X0026455Y0048720D01*
X0027932Y0048720D01*
X0029857Y0049518D01*
X0031330Y0050991D01*
X0032128Y0052916D01*
X0032128Y0053150D01*
X0055118Y0053150D01*
X0055118Y0052916D01*
X0055915Y0050991D01*
X0057389Y0049518D01*
X0057499Y0049472D01*
X0057435Y0049449D01*
X0057171Y0049207D01*
X0055932Y0046551D01*
X0058795Y0045216D01*
X0058542Y0044672D01*
X0059086Y0044419D01*
X0059339Y0044963D01*
X0058796Y0045216D01*
X0060339Y0048525D01*
X0059920Y0048720D01*
X0061397Y0048720D01*
X0063322Y0049518D01*
X0064795Y0050991D01*
X0065592Y0052916D01*
X0065592Y0053150D01*
X0169291Y0053150D01*
X0169291Y0052916D01*
X0170089Y0050991D01*
X0171562Y0049518D01*
X0173487Y0048720D01*
X0174963Y0048720D01*
X0174545Y0048525D01*
X0176088Y0045216D01*
X0178951Y0046551D01*
X0177713Y0049207D01*
X0177449Y0049449D01*
X0177385Y0049472D01*
X0177495Y0049518D01*
X0178968Y0050991D01*
X0179765Y0052916D01*
X0179765Y0053150D01*
X0202756Y0053150D01*
X0202756Y0052916D01*
X0203553Y0050991D01*
X0205026Y0049518D01*
X0205026Y0049518D01*
X0206951Y0048720D01*
X0208428Y0048720D01*
X0208009Y0048525D01*
X0209552Y0045216D01*
X0209009Y0044963D01*
X0207466Y0048272D01*
X0205256Y0047241D01*
X0205014Y0046977D01*
X0204892Y0046641D01*
X0204907Y0046283D01*
X0206146Y0043628D01*
X0209009Y0044963D01*
X0209262Y0044419D01*
X0206399Y0043084D01*
X0207638Y0040428D01*
X0207902Y0040186D01*
X0208238Y0040064D01*
X0208596Y0040079D01*
X0210805Y0041110D01*
X0209262Y0044419D01*
X0209806Y0044672D01*
X0211349Y0041363D01*
X0213559Y0042394D01*
X0213801Y0042658D01*
X0213923Y0042994D01*
X0213908Y0043352D01*
X0212669Y0046008D01*
X0209806Y0044672D01*
X0209553Y0045216D01*
X0212416Y0046551D01*
X0211177Y0049207D01*
X0210913Y0049449D01*
X0210849Y0049472D01*
X0210959Y0049518D01*
X0210959Y0049518D01*
X0212433Y0050991D01*
X0213230Y0052916D01*
X0213230Y0053150D01*
X0227678Y0053150D01*
X0228192Y0053099D01*
X0229143Y0052705D01*
X0229871Y0051978D01*
X0230264Y0051027D01*
X0230315Y0050513D01*
X0230315Y0049593D01*
X0228371Y0051537D01*
X0225367Y0052781D01*
X0222115Y0052781D01*
X0219111Y0051537D01*
X0216811Y0049237D01*
X0215567Y0046233D01*
X0215567Y0042981D01*
X0216811Y0039977D01*
X0219111Y0037677D01*
X0222115Y0036433D01*
X0225367Y0036433D01*
X0228346Y0037667D01*
X0228346Y0018478D01*
X0229108Y0017717D01*
X0230315Y0016510D01*
X0230315Y0007205D01*
X0230264Y0006691D01*
X0229871Y0005740D01*
X0229143Y0005013D01*
X0228192Y0004619D01*
X0227678Y0004568D01*
X0206946Y0004568D01*
X0211055Y0006485D01*
X0211363Y0007331D01*
X0208403Y0013678D01*
X0207557Y0013986D01*
X0206270Y0013386D01*
X0203983Y0018000D01*
X0206054Y0017142D01*
X0209808Y0017142D01*
X0210235Y0016227D01*
X0210499Y0015985D01*
X0210835Y0015862D01*
X0211193Y0015878D01*
X0212511Y0016493D01*
X0211839Y0017932D01*
X0212394Y0018162D01*
X0213054Y0016746D01*
X0214372Y0017360D01*
X0214614Y0017624D01*
X0214736Y0017961D01*
X0214721Y0018319D01*
X0214240Y0019350D01*
X0216258Y0021368D01*
X0217742Y0024951D01*
X0217742Y0028830D01*
X0216258Y0032413D01*
X0213515Y0035155D01*
X0209932Y0036639D01*
X0206384Y0036639D01*
X0205806Y0037879D01*
X0204960Y0038188D01*
X0201569Y0036606D01*
X0197712Y0036606D01*
X0196376Y0039470D01*
X0196591Y0039685D01*
X0196591Y0041655D01*
X0195198Y0043048D01*
X0193228Y0043048D01*
X0191835Y0041655D01*
X0191835Y0041190D01*
X0188874Y0039809D01*
X0188566Y0038963D01*
X0191526Y0032616D01*
X0192372Y0032308D01*
X0194838Y0033457D01*
X0195063Y0033231D01*
X0200547Y0033231D01*
X0199728Y0032413D01*
X0198244Y0028830D01*
X0198244Y0028272D01*
X0197819Y0029300D01*
X0196622Y0030496D01*
X0195059Y0031143D01*
X0193367Y0031143D01*
X0191804Y0030496D01*
X0190608Y0029300D01*
X0189961Y0027736D01*
X0189961Y0026045D01*
X0190608Y0024482D01*
X0191804Y0023285D01*
X0193367Y0022638D01*
X0195059Y0022638D01*
X0196622Y0023285D01*
X0197819Y0024482D01*
X0198244Y0025509D01*
X0198244Y0024951D01*
X0199589Y0021704D01*
X0199876Y0019199D01*
X0199773Y0018893D01*
X0199952Y0018531D01*
X0199998Y0018130D01*
X0200251Y0017930D01*
X0203210Y0011959D01*
X0202102Y0011442D01*
X0201794Y0010596D01*
X0204604Y0004568D01*
X0199450Y0004568D01*
X0199450Y0004802D01*
X0198653Y0006727D01*
X0198653Y0006727D01*
X0197180Y0008200D01*
X0197180Y0008200D01*
X0195255Y0008998D01*
X0193172Y0008998D01*
X0191247Y0008200D01*
X0189774Y0006727D01*
X0189581Y0006261D02*
X0177111Y0006261D01*
X0175828Y0005663D02*
X0189333Y0005663D01*
X0189085Y0005064D02*
X0174544Y0005064D01*
X0170909Y0005064D02*
X0158744Y0005064D01*
X0160189Y0005663D02*
X0170630Y0005663D01*
X0170351Y0006261D02*
X0161522Y0006261D01*
X0162120Y0006860D02*
X0170071Y0006860D01*
X0169792Y0007458D02*
X0162719Y0007458D01*
X0163317Y0008057D02*
X0169513Y0008057D01*
X0169234Y0008655D02*
X0163814Y0008655D01*
X0164062Y0009254D02*
X0168955Y0009254D01*
X0168676Y0009852D02*
X0164309Y0009852D01*
X0164557Y0010451D02*
X0168397Y0010451D01*
X0168494Y0011049D02*
X0164805Y0011049D01*
X0164986Y0011648D02*
X0169077Y0011648D01*
X0169721Y0012246D02*
X0164986Y0012246D01*
X0164986Y0012845D02*
X0169442Y0012845D01*
X0169163Y0013443D02*
X0164986Y0013443D01*
X0164986Y0014042D02*
X0168884Y0014042D01*
X0168605Y0014640D02*
X0164986Y0014640D01*
X0164778Y0015239D02*
X0168326Y0015239D01*
X0168047Y0015837D02*
X0164530Y0015837D01*
X0164282Y0016436D02*
X0167768Y0016436D01*
X0167489Y0017034D02*
X0164034Y0017034D01*
X0163786Y0017633D02*
X0167209Y0017633D01*
X0166930Y0018231D02*
X0163251Y0018231D01*
X0162653Y0018830D02*
X0166651Y0018830D01*
X0166372Y0019428D02*
X0162054Y0019428D01*
X0161456Y0020027D02*
X0166093Y0020027D01*
X0165814Y0020625D02*
X0160030Y0020625D01*
X0158585Y0021224D02*
X0165535Y0021224D01*
X0165256Y0021822D02*
X0149507Y0021822D01*
X0149441Y0021983D02*
X0149441Y0021983D01*
X0149003Y0022421D02*
X0164977Y0022421D01*
X0164698Y0023019D02*
X0148404Y0023019D01*
X0147967Y0023456D02*
X0147967Y0023456D01*
X0147577Y0023618D02*
X0164419Y0023618D01*
X0164139Y0024216D02*
X0146132Y0024216D01*
X0149755Y0021224D02*
X0155038Y0021224D01*
X0153593Y0020625D02*
X0150003Y0020625D01*
X0150238Y0020027D02*
X0152168Y0020027D01*
X0151569Y0019428D02*
X0150238Y0019428D01*
X0150238Y0018830D02*
X0150971Y0018830D01*
X0150372Y0018231D02*
X0150238Y0018231D01*
X0170933Y0017633D02*
X0171404Y0017633D01*
X0171212Y0017034D02*
X0176394Y0017034D01*
X0176673Y0016436D02*
X0171491Y0016436D01*
X0171770Y0015837D02*
X0185640Y0015837D01*
X0185909Y0015261D02*
X0188772Y0016596D01*
X0187229Y0019905D01*
X0185019Y0018875D01*
X0184777Y0018611D01*
X0184655Y0018274D01*
X0184670Y0017917D01*
X0185909Y0015261D01*
X0186162Y0014717D02*
X0187401Y0012061D01*
X0187665Y0011820D01*
X0188001Y0011697D01*
X0188359Y0011713D01*
X0190568Y0012743D01*
X0189025Y0016052D01*
X0186162Y0014717D01*
X0186198Y0014640D02*
X0172329Y0014640D01*
X0172608Y0014042D02*
X0186477Y0014042D01*
X0186756Y0013443D02*
X0175048Y0013443D01*
X0175327Y0012845D02*
X0187035Y0012845D01*
X0187315Y0012246D02*
X0175607Y0012246D01*
X0175886Y0011648D02*
X0202542Y0011648D01*
X0203068Y0012246D02*
X0189503Y0012246D01*
X0190521Y0012845D02*
X0202771Y0012845D01*
X0202475Y0013443D02*
X0192070Y0013443D01*
X0191112Y0012997D02*
X0193322Y0014027D01*
X0193564Y0014291D01*
X0193686Y0014627D01*
X0193671Y0014985D01*
X0192432Y0017641D01*
X0189569Y0016306D01*
X0189316Y0016849D01*
X0192179Y0018185D01*
X0190940Y0020840D01*
X0190676Y0021082D01*
X0190340Y0021205D01*
X0189982Y0021189D01*
X0187772Y0020159D01*
X0189316Y0016850D01*
X0188772Y0016596D01*
X0189025Y0016052D01*
X0189569Y0016306D01*
X0191112Y0012997D01*
X0190904Y0013443D02*
X0190242Y0013443D01*
X0189963Y0014042D02*
X0190625Y0014042D01*
X0190346Y0014640D02*
X0189684Y0014640D01*
X0189405Y0015239D02*
X0190067Y0015239D01*
X0189788Y0015837D02*
X0189126Y0015837D01*
X0188564Y0015837D02*
X0187145Y0015837D01*
X0187281Y0015239D02*
X0172049Y0015239D01*
X0172887Y0013443D02*
X0172928Y0013443D01*
X0176165Y0011049D02*
X0201959Y0011049D01*
X0201862Y0010451D02*
X0176444Y0010451D01*
X0176723Y0009852D02*
X0202141Y0009852D01*
X0202420Y0009254D02*
X0177002Y0009254D01*
X0177281Y0008655D02*
X0192345Y0008655D01*
X0191247Y0008200D02*
X0191247Y0008200D01*
X0191103Y0008057D02*
X0177560Y0008057D01*
X0177839Y0007458D02*
X0190505Y0007458D01*
X0196082Y0008655D02*
X0202699Y0008655D01*
X0202978Y0008057D02*
X0197324Y0008057D01*
X0197922Y0007458D02*
X0203257Y0007458D01*
X0203536Y0006860D02*
X0198521Y0006860D01*
X0198846Y0006261D02*
X0203815Y0006261D01*
X0204094Y0005663D02*
X0199094Y0005663D01*
X0199342Y0005064D02*
X0204373Y0005064D01*
X0208009Y0005064D02*
X0229194Y0005064D01*
X0229793Y0005663D02*
X0209292Y0005663D01*
X0210576Y0006261D02*
X0230086Y0006261D01*
X0230281Y0006860D02*
X0211191Y0006860D01*
X0211304Y0007458D02*
X0230315Y0007458D01*
X0230315Y0008057D02*
X0211025Y0008057D01*
X0210746Y0008655D02*
X0230315Y0008655D01*
X0230315Y0009254D02*
X0210467Y0009254D01*
X0210187Y0009852D02*
X0230315Y0009852D01*
X0230315Y0010451D02*
X0209908Y0010451D01*
X0209629Y0011049D02*
X0230315Y0011049D01*
X0230315Y0011648D02*
X0209350Y0011648D01*
X0209071Y0012246D02*
X0220779Y0012246D01*
X0220865Y0012061D02*
X0221129Y0011820D01*
X0221466Y0011697D01*
X0221823Y0011713D01*
X0224033Y0012743D01*
X0222490Y0016052D01*
X0223034Y0016306D01*
X0222780Y0016850D01*
X0222236Y0016596D01*
X0222490Y0016052D01*
X0219627Y0014717D01*
X0220865Y0012061D01*
X0222967Y0012246D02*
X0230315Y0012246D01*
X0230315Y0012845D02*
X0223986Y0012845D01*
X0224577Y0012997D02*
X0226786Y0014027D01*
X0227028Y0014291D01*
X0227151Y0014627D01*
X0227135Y0014985D01*
X0225897Y0017641D01*
X0223034Y0016306D01*
X0224577Y0012997D01*
X0224368Y0013443D02*
X0223707Y0013443D01*
X0223427Y0014042D02*
X0224089Y0014042D01*
X0223810Y0014640D02*
X0223148Y0014640D01*
X0222869Y0015239D02*
X0223531Y0015239D01*
X0223252Y0015837D02*
X0222590Y0015837D01*
X0222029Y0015837D02*
X0220609Y0015837D01*
X0220745Y0015239D02*
X0205351Y0015239D01*
X0205055Y0015837D02*
X0219105Y0015837D01*
X0219373Y0015261D02*
X0222236Y0016596D01*
X0220693Y0019905D01*
X0218484Y0018875D01*
X0218242Y0018611D01*
X0218119Y0018274D01*
X0218135Y0017917D01*
X0219373Y0015261D01*
X0219663Y0014640D02*
X0205648Y0014640D01*
X0205945Y0014042D02*
X0219942Y0014042D01*
X0220221Y0013443D02*
X0208513Y0013443D01*
X0208792Y0012845D02*
X0220500Y0012845D01*
X0225534Y0013443D02*
X0230315Y0013443D01*
X0230315Y0014042D02*
X0226800Y0014042D01*
X0227150Y0014640D02*
X0230315Y0014640D01*
X0230315Y0015239D02*
X0227017Y0015239D01*
X0226738Y0015837D02*
X0230315Y0015837D01*
X0230315Y0016436D02*
X0226459Y0016436D01*
X0226180Y0017034D02*
X0229790Y0017034D01*
X0229192Y0017633D02*
X0225901Y0017633D01*
X0225880Y0017633D02*
X0224460Y0017633D01*
X0224596Y0017034D02*
X0223176Y0017034D01*
X0222780Y0016850D02*
X0225643Y0018185D01*
X0224405Y0020840D01*
X0224141Y0021082D01*
X0223804Y0021205D01*
X0223447Y0021189D01*
X0221237Y0020159D01*
X0222780Y0016850D01*
X0222694Y0017034D02*
X0222032Y0017034D01*
X0221893Y0016436D02*
X0222311Y0016436D01*
X0222973Y0016436D02*
X0223312Y0016436D01*
X0222415Y0017633D02*
X0221753Y0017633D01*
X0221474Y0018231D02*
X0222136Y0018231D01*
X0221857Y0018830D02*
X0221195Y0018830D01*
X0220916Y0019428D02*
X0221578Y0019428D01*
X0221298Y0020027D02*
X0214916Y0020027D01*
X0215515Y0020625D02*
X0222238Y0020625D01*
X0224505Y0020625D02*
X0228346Y0020625D01*
X0228346Y0020027D02*
X0224784Y0020027D01*
X0225063Y0019428D02*
X0228346Y0019428D01*
X0228346Y0018830D02*
X0225342Y0018830D01*
X0225621Y0018231D02*
X0228593Y0018231D01*
X0219671Y0019428D02*
X0214318Y0019428D01*
X0214482Y0018830D02*
X0218443Y0018830D01*
X0218121Y0018231D02*
X0214725Y0018231D01*
X0214617Y0017633D02*
X0218267Y0017633D01*
X0218546Y0017034D02*
X0213672Y0017034D01*
X0212920Y0017034D02*
X0212258Y0017034D01*
X0212389Y0016436D02*
X0218825Y0016436D01*
X0212641Y0017633D02*
X0211979Y0017633D01*
X0209858Y0017034D02*
X0204461Y0017034D01*
X0204758Y0016436D02*
X0210137Y0016436D01*
X0204868Y0017633D02*
X0204164Y0017633D01*
X0200695Y0017034D02*
X0192715Y0017034D01*
X0192994Y0016436D02*
X0200991Y0016436D01*
X0201288Y0015837D02*
X0193273Y0015837D01*
X0193552Y0015239D02*
X0201585Y0015239D01*
X0201881Y0014640D02*
X0193686Y0014640D01*
X0193335Y0014042D02*
X0202178Y0014042D01*
X0206241Y0013443D02*
X0206392Y0013443D01*
X0191131Y0017034D02*
X0189712Y0017034D01*
X0189229Y0017034D02*
X0188567Y0017034D01*
X0188428Y0016436D02*
X0188846Y0016436D01*
X0189509Y0016436D02*
X0189848Y0016436D01*
X0188950Y0017633D02*
X0188288Y0017633D01*
X0188009Y0018231D02*
X0188671Y0018231D01*
X0188392Y0018830D02*
X0187730Y0018830D01*
X0187451Y0019428D02*
X0188113Y0019428D01*
X0187834Y0020027D02*
X0181452Y0020027D01*
X0182050Y0020625D02*
X0188773Y0020625D01*
X0191041Y0020625D02*
X0199713Y0020625D01*
X0199781Y0020027D02*
X0191320Y0020027D01*
X0191599Y0019428D02*
X0199850Y0019428D01*
X0199805Y0018830D02*
X0191878Y0018830D01*
X0192157Y0018231D02*
X0199987Y0018231D01*
X0200398Y0017633D02*
X0192436Y0017633D01*
X0192415Y0017633D02*
X0190995Y0017633D01*
X0186206Y0019428D02*
X0180853Y0019428D01*
X0181018Y0018830D02*
X0184978Y0018830D01*
X0184657Y0018231D02*
X0181260Y0018231D01*
X0181152Y0017633D02*
X0184803Y0017633D01*
X0185082Y0017034D02*
X0180208Y0017034D01*
X0179455Y0017034D02*
X0178793Y0017034D01*
X0178924Y0016436D02*
X0185361Y0016436D01*
X0179176Y0017633D02*
X0178514Y0017633D01*
X0182649Y0021224D02*
X0199644Y0021224D01*
X0199540Y0021822D02*
X0182981Y0021822D01*
X0183229Y0022421D02*
X0199292Y0022421D01*
X0199044Y0023019D02*
X0195981Y0023019D01*
X0196955Y0023618D02*
X0198796Y0023618D01*
X0198549Y0024216D02*
X0197554Y0024216D01*
X0197957Y0024815D02*
X0198301Y0024815D01*
X0198244Y0025413D02*
X0198205Y0025413D01*
X0190873Y0024216D02*
X0183973Y0024216D01*
X0183725Y0023618D02*
X0191472Y0023618D01*
X0192446Y0023019D02*
X0183477Y0023019D01*
X0184221Y0024815D02*
X0190470Y0024815D01*
X0190222Y0025413D02*
X0184277Y0025413D01*
X0184277Y0026012D02*
X0189974Y0026012D01*
X0189961Y0026610D02*
X0184277Y0026610D01*
X0184277Y0027209D02*
X0189961Y0027209D01*
X0189990Y0027807D02*
X0184277Y0027807D01*
X0184277Y0028406D02*
X0190238Y0028406D01*
X0190486Y0029004D02*
X0184205Y0029004D01*
X0183957Y0029603D02*
X0190912Y0029603D01*
X0191510Y0030202D02*
X0183709Y0030202D01*
X0183461Y0030800D02*
X0192539Y0030800D01*
X0195888Y0030800D02*
X0199060Y0030800D01*
X0198812Y0030202D02*
X0196917Y0030202D01*
X0197515Y0029603D02*
X0198564Y0029603D01*
X0198316Y0029004D02*
X0197941Y0029004D01*
X0198189Y0028406D02*
X0198244Y0028406D01*
X0199308Y0031399D02*
X0183213Y0031399D01*
X0182965Y0031997D02*
X0199556Y0031997D01*
X0199911Y0032596D02*
X0192990Y0032596D01*
X0191581Y0032596D02*
X0182610Y0032596D01*
X0182012Y0033194D02*
X0191256Y0033194D01*
X0190977Y0033793D02*
X0181413Y0033793D01*
X0180815Y0034391D02*
X0190698Y0034391D01*
X0190419Y0034990D02*
X0180216Y0034990D01*
X0179005Y0035588D02*
X0190140Y0035588D01*
X0189861Y0036187D02*
X0177561Y0036187D01*
X0172852Y0036785D02*
X0189582Y0036785D01*
X0189302Y0037384D02*
X0172573Y0037384D01*
X0172059Y0037982D02*
X0189023Y0037982D01*
X0188744Y0038581D02*
X0163327Y0038581D01*
X0163047Y0039179D02*
X0188645Y0039179D01*
X0188863Y0039778D02*
X0162768Y0039778D01*
X0162489Y0040376D02*
X0174230Y0040376D01*
X0174173Y0040428D02*
X0174437Y0040186D01*
X0174773Y0040064D01*
X0175131Y0040079D01*
X0177341Y0041110D01*
X0175798Y0044419D01*
X0176341Y0044672D01*
X0177885Y0041363D01*
X0180094Y0042394D01*
X0180336Y0042658D01*
X0180459Y0042994D01*
X0180443Y0043352D01*
X0179205Y0046008D01*
X0176342Y0044672D01*
X0176088Y0045216D01*
X0175544Y0044963D01*
X0174001Y0048272D01*
X0171791Y0047241D01*
X0171550Y0046977D01*
X0171427Y0046641D01*
X0171443Y0046283D01*
X0172681Y0043628D01*
X0175544Y0044963D01*
X0175798Y0044419D01*
X0172935Y0043084D01*
X0174173Y0040428D01*
X0173918Y0040975D02*
X0162210Y0040975D01*
X0161931Y0041573D02*
X0173639Y0041573D01*
X0173360Y0042172D02*
X0161362Y0042172D01*
X0160476Y0042172D02*
X0150708Y0042172D01*
X0150110Y0042770D02*
X0173081Y0042770D01*
X0173546Y0043369D02*
X0149511Y0043369D01*
X0148913Y0043967D02*
X0172523Y0043967D01*
X0172244Y0044566D02*
X0148314Y0044566D01*
X0147716Y0045164D02*
X0171965Y0045164D01*
X0171685Y0045763D02*
X0147117Y0045763D01*
X0146923Y0046361D02*
X0171439Y0046361D01*
X0171543Y0046960D02*
X0147171Y0046960D01*
X0147229Y0047558D02*
X0172471Y0047558D01*
X0173755Y0048157D02*
X0147229Y0048157D01*
X0147229Y0048755D02*
X0173402Y0048755D01*
X0174055Y0048157D02*
X0174717Y0048157D01*
X0174996Y0047558D02*
X0174334Y0047558D01*
X0174613Y0046960D02*
X0175275Y0046960D01*
X0175554Y0046361D02*
X0174892Y0046361D01*
X0175171Y0045763D02*
X0175833Y0045763D01*
X0175976Y0045164D02*
X0175450Y0045164D01*
X0175729Y0044566D02*
X0174693Y0044566D01*
X0174829Y0043967D02*
X0173410Y0043967D01*
X0176008Y0043967D02*
X0176670Y0043967D01*
X0176949Y0043369D02*
X0176287Y0043369D01*
X0176567Y0042770D02*
X0177228Y0042770D01*
X0177508Y0042172D02*
X0176846Y0042172D01*
X0177125Y0041573D02*
X0177787Y0041573D01*
X0178335Y0041573D02*
X0191835Y0041573D01*
X0192352Y0042172D02*
X0179618Y0042172D01*
X0180377Y0042770D02*
X0192951Y0042770D01*
X0195476Y0042770D02*
X0206545Y0042770D01*
X0206825Y0042172D02*
X0196075Y0042172D01*
X0196591Y0041573D02*
X0207104Y0041573D01*
X0210310Y0042172D02*
X0210972Y0042172D01*
X0210693Y0042770D02*
X0210031Y0042770D01*
X0209752Y0043369D02*
X0210414Y0043369D01*
X0210135Y0043967D02*
X0209473Y0043967D01*
X0209577Y0044566D02*
X0209856Y0044566D01*
X0209577Y0045164D02*
X0210861Y0045164D01*
X0210725Y0045763D02*
X0212144Y0045763D01*
X0212008Y0046361D02*
X0215620Y0046361D01*
X0215567Y0045763D02*
X0212783Y0045763D01*
X0213062Y0045164D02*
X0215567Y0045164D01*
X0215567Y0044566D02*
X0213341Y0044566D01*
X0213621Y0043967D02*
X0215567Y0043967D01*
X0215567Y0043369D02*
X0213900Y0043369D01*
X0213842Y0042770D02*
X0215654Y0042770D01*
X0215902Y0042172D02*
X0213083Y0042172D01*
X0211799Y0041573D02*
X0216150Y0041573D01*
X0216398Y0040975D02*
X0210516Y0040975D01*
X0209232Y0040376D02*
X0216646Y0040376D01*
X0217011Y0039778D02*
X0196591Y0039778D01*
X0196591Y0040376D02*
X0207694Y0040376D01*
X0207383Y0040975D02*
X0196591Y0040975D01*
X0191374Y0040975D02*
X0177051Y0040975D01*
X0175768Y0040376D02*
X0190090Y0040376D01*
X0196512Y0039179D02*
X0217609Y0039179D01*
X0218208Y0038581D02*
X0196791Y0038581D01*
X0197070Y0037982D02*
X0204519Y0037982D01*
X0205524Y0037982D02*
X0218806Y0037982D01*
X0219820Y0037384D02*
X0206037Y0037384D01*
X0206316Y0036785D02*
X0221265Y0036785D01*
X0226217Y0036785D02*
X0228346Y0036785D01*
X0228346Y0036187D02*
X0211025Y0036187D01*
X0212470Y0035588D02*
X0228346Y0035588D01*
X0228346Y0034990D02*
X0213681Y0034990D01*
X0214279Y0034391D02*
X0228346Y0034391D01*
X0228346Y0033793D02*
X0214878Y0033793D01*
X0215476Y0033194D02*
X0228346Y0033194D01*
X0228346Y0032596D02*
X0216075Y0032596D01*
X0216430Y0031997D02*
X0228346Y0031997D01*
X0228346Y0031399D02*
X0216678Y0031399D01*
X0216926Y0030800D02*
X0228346Y0030800D01*
X0228346Y0030202D02*
X0217174Y0030202D01*
X0217421Y0029603D02*
X0228346Y0029603D01*
X0228346Y0029004D02*
X0217669Y0029004D01*
X0217742Y0028406D02*
X0228346Y0028406D01*
X0228346Y0027807D02*
X0217742Y0027807D01*
X0217742Y0027209D02*
X0228346Y0027209D01*
X0228346Y0026610D02*
X0217742Y0026610D01*
X0217742Y0026012D02*
X0228346Y0026012D01*
X0228346Y0025413D02*
X0217742Y0025413D01*
X0217685Y0024815D02*
X0228346Y0024815D01*
X0228346Y0024216D02*
X0217437Y0024216D01*
X0217189Y0023618D02*
X0228346Y0023618D01*
X0228346Y0023019D02*
X0216941Y0023019D01*
X0216694Y0022421D02*
X0228346Y0022421D01*
X0228346Y0021822D02*
X0216446Y0021822D01*
X0216113Y0021224D02*
X0228346Y0021224D01*
X0200510Y0033194D02*
X0194273Y0033194D01*
X0197628Y0036785D02*
X0201952Y0036785D01*
X0203236Y0037384D02*
X0197349Y0037384D01*
X0210589Y0041573D02*
X0211251Y0041573D01*
X0207010Y0043369D02*
X0180435Y0043369D01*
X0180156Y0043967D02*
X0205987Y0043967D01*
X0205708Y0044566D02*
X0179877Y0044566D01*
X0179598Y0045164D02*
X0205429Y0045164D01*
X0205150Y0045763D02*
X0179319Y0045763D01*
X0178680Y0045763D02*
X0177260Y0045763D01*
X0177396Y0045164D02*
X0176112Y0045164D01*
X0176113Y0044566D02*
X0176391Y0044566D01*
X0178544Y0046361D02*
X0204904Y0046361D01*
X0205008Y0046960D02*
X0178761Y0046960D01*
X0178481Y0047558D02*
X0205936Y0047558D01*
X0207219Y0048157D02*
X0178202Y0048157D01*
X0177923Y0048755D02*
X0206867Y0048755D01*
X0207519Y0048157D02*
X0208181Y0048157D01*
X0208460Y0047558D02*
X0207798Y0047558D01*
X0208077Y0046960D02*
X0208739Y0046960D01*
X0209019Y0046361D02*
X0208357Y0046361D01*
X0208636Y0045763D02*
X0209298Y0045763D01*
X0209441Y0045164D02*
X0208915Y0045164D01*
X0209194Y0044566D02*
X0208158Y0044566D01*
X0208294Y0043967D02*
X0206874Y0043967D01*
X0212225Y0046960D02*
X0215868Y0046960D01*
X0216116Y0047558D02*
X0211946Y0047558D01*
X0211667Y0048157D02*
X0216364Y0048157D01*
X0216612Y0048755D02*
X0211388Y0048755D01*
X0211017Y0049354D02*
X0216928Y0049354D01*
X0217526Y0049952D02*
X0211394Y0049952D01*
X0211993Y0050551D02*
X0218125Y0050551D01*
X0218723Y0051149D02*
X0212498Y0051149D01*
X0212433Y0050991D02*
X0212433Y0050991D01*
X0212746Y0051748D02*
X0219621Y0051748D01*
X0221066Y0052346D02*
X0212994Y0052346D01*
X0213230Y0052945D02*
X0228564Y0052945D01*
X0229502Y0052346D02*
X0226416Y0052346D01*
X0227861Y0051748D02*
X0229966Y0051748D01*
X0230214Y0051149D02*
X0228758Y0051149D01*
X0229357Y0050551D02*
X0230311Y0050551D01*
X0230315Y0049952D02*
X0229955Y0049952D01*
X0205422Y0049354D02*
X0177552Y0049354D01*
X0177495Y0049518D02*
X0177495Y0049518D01*
X0177930Y0049952D02*
X0204592Y0049952D01*
X0203993Y0050551D02*
X0178528Y0050551D01*
X0178968Y0050991D02*
X0178968Y0050991D01*
X0179034Y0051149D02*
X0203488Y0051149D01*
X0203553Y0050991D02*
X0203553Y0050991D01*
X0203240Y0051748D02*
X0179282Y0051748D01*
X0179530Y0052346D02*
X0202992Y0052346D01*
X0202756Y0052945D02*
X0179765Y0052945D01*
X0170529Y0050551D02*
X0146588Y0050551D01*
X0146836Y0049952D02*
X0171127Y0049952D01*
X0171562Y0049518D02*
X0171562Y0049518D01*
X0171957Y0049354D02*
X0147084Y0049354D01*
X0146115Y0051149D02*
X0170023Y0051149D01*
X0170089Y0050991D02*
X0170089Y0050991D01*
X0169775Y0051748D02*
X0145516Y0051748D01*
X0144584Y0052346D02*
X0169527Y0052346D01*
X0169291Y0052945D02*
X0065592Y0052945D01*
X0065356Y0052346D02*
X0090773Y0052346D01*
X0090676Y0052315D02*
X0090031Y0051986D01*
X0089445Y0051561D01*
X0088933Y0051049D01*
X0088507Y0050463D01*
X0088179Y0049818D01*
X0087955Y0049129D01*
X0087842Y0048414D01*
X0087842Y0048352D01*
X0092142Y0048352D01*
X0092142Y0052652D01*
X0092080Y0052652D01*
X0091365Y0052539D01*
X0090676Y0052315D01*
X0089703Y0051748D02*
X0065108Y0051748D01*
X0064860Y0051149D02*
X0089034Y0051149D01*
X0088571Y0050551D02*
X0064355Y0050551D01*
X0064795Y0050991D02*
X0064795Y0050991D01*
X0063756Y0049952D02*
X0088247Y0049952D01*
X0088028Y0049354D02*
X0062926Y0049354D01*
X0063322Y0049518D02*
X0063322Y0049518D01*
X0061481Y0048755D02*
X0087896Y0048755D01*
X0087842Y0047752D02*
X0087842Y0047690D01*
X0087955Y0046975D01*
X0088179Y0046286D01*
X0088507Y0045641D01*
X0088933Y0045055D01*
X0089445Y0044543D01*
X0090031Y0044118D01*
X0090676Y0043789D01*
X0091365Y0043565D01*
X0092080Y0043452D01*
X0092142Y0043452D01*
X0092142Y0047752D01*
X0092742Y0047752D01*
X0092742Y0048352D01*
X0097042Y0048352D01*
X0097042Y0048414D01*
X0096928Y0049129D01*
X0096705Y0049818D01*
X0096376Y0050463D01*
X0095950Y0051049D01*
X0095438Y0051561D01*
X0094853Y0051986D01*
X0094208Y0052315D01*
X0093519Y0052539D01*
X0092804Y0052652D01*
X0092742Y0052652D01*
X0092742Y0048352D01*
X0092142Y0048352D01*
X0092142Y0047752D01*
X0087842Y0047752D01*
X0087863Y0047558D02*
X0062412Y0047558D01*
X0063092Y0047241D02*
X0060882Y0048272D01*
X0059339Y0044963D01*
X0062202Y0043628D01*
X0063441Y0046283D01*
X0063456Y0046641D01*
X0063334Y0046977D01*
X0063092Y0047241D01*
X0063340Y0046960D02*
X0087960Y0046960D01*
X0088154Y0046361D02*
X0063444Y0046361D01*
X0063198Y0045763D02*
X0088445Y0045763D01*
X0088854Y0045164D02*
X0062919Y0045164D01*
X0062640Y0044566D02*
X0089423Y0044566D01*
X0090326Y0043967D02*
X0062361Y0043967D01*
X0061474Y0043967D02*
X0060054Y0043967D01*
X0060190Y0044566D02*
X0059154Y0044566D01*
X0059086Y0044419D02*
X0061949Y0043084D01*
X0060710Y0040428D01*
X0060446Y0040186D01*
X0060110Y0040064D01*
X0059752Y0040079D01*
X0057543Y0041110D01*
X0059086Y0044419D01*
X0058771Y0044566D02*
X0058492Y0044566D01*
X0058542Y0044672D02*
X0056999Y0041363D01*
X0054789Y0042394D01*
X0054547Y0042658D01*
X0054425Y0042994D01*
X0054440Y0043352D01*
X0055679Y0046008D01*
X0058542Y0044672D01*
X0058771Y0045164D02*
X0057487Y0045164D01*
X0057623Y0045763D02*
X0056204Y0045763D01*
X0056340Y0046361D02*
X0029980Y0046361D01*
X0029976Y0046283D02*
X0029992Y0046641D01*
X0029869Y0046977D01*
X0029627Y0047241D01*
X0027418Y0048272D01*
X0025875Y0044963D01*
X0028738Y0043628D01*
X0029976Y0046283D01*
X0029733Y0045763D02*
X0055565Y0045763D01*
X0055286Y0045164D02*
X0029454Y0045164D01*
X0029175Y0044566D02*
X0055007Y0044566D01*
X0054727Y0043967D02*
X0028896Y0043967D01*
X0028009Y0043967D02*
X0026590Y0043967D01*
X0026726Y0044566D02*
X0025690Y0044566D01*
X0025306Y0044566D02*
X0025028Y0044566D01*
X0025077Y0044672D02*
X0023534Y0041363D01*
X0021325Y0042394D01*
X0021083Y0042658D01*
X0020960Y0042994D01*
X0020976Y0043352D01*
X0022214Y0046008D01*
X0025077Y0044672D01*
X0025307Y0045164D02*
X0024023Y0045164D01*
X0024159Y0045763D02*
X0022739Y0045763D01*
X0022875Y0046361D02*
X0019263Y0046361D01*
X0019317Y0045763D02*
X0022100Y0045763D01*
X0021821Y0045164D02*
X0019317Y0045164D01*
X0019317Y0044566D02*
X0021542Y0044566D01*
X0021263Y0043967D02*
X0019317Y0043967D01*
X0019317Y0043369D02*
X0020984Y0043369D01*
X0021042Y0042770D02*
X0019229Y0042770D01*
X0018981Y0042172D02*
X0021801Y0042172D01*
X0023084Y0041573D02*
X0018733Y0041573D01*
X0018485Y0040975D02*
X0024368Y0040975D01*
X0025651Y0040376D02*
X0018238Y0040376D01*
X0017873Y0039778D02*
X0038292Y0039778D01*
X0038292Y0040376D02*
X0027189Y0040376D01*
X0027501Y0040975D02*
X0038292Y0040975D01*
X0038292Y0041573D02*
X0027780Y0041573D01*
X0028059Y0042172D02*
X0038809Y0042172D01*
X0039407Y0042770D02*
X0028338Y0042770D01*
X0027873Y0043369D02*
X0054448Y0043369D01*
X0054506Y0042770D02*
X0041933Y0042770D01*
X0042531Y0042172D02*
X0055265Y0042172D01*
X0056549Y0041573D02*
X0043048Y0041573D01*
X0043510Y0040975D02*
X0057832Y0040975D01*
X0059116Y0040376D02*
X0044793Y0040376D01*
X0046021Y0039778D02*
X0072115Y0039778D01*
X0072394Y0040376D02*
X0060654Y0040376D01*
X0060965Y0040975D02*
X0072673Y0040975D01*
X0072952Y0041573D02*
X0061244Y0041573D01*
X0061523Y0042172D02*
X0073521Y0042172D01*
X0074407Y0042172D02*
X0104175Y0042172D01*
X0104774Y0042770D02*
X0061803Y0042770D01*
X0061338Y0043369D02*
X0101238Y0043369D01*
X0101489Y0043265D02*
X0099730Y0043993D01*
X0098383Y0045340D01*
X0097654Y0047100D01*
X0097654Y0049004D01*
X0098383Y0050764D01*
X0099730Y0052111D01*
X0101489Y0052839D01*
X0103394Y0052839D01*
X0105154Y0052111D01*
X0106500Y0050764D01*
X0107229Y0049004D01*
X0107229Y0047100D01*
X0106500Y0045340D01*
X0105154Y0043993D01*
X0103394Y0043265D01*
X0101489Y0043265D01*
X0103646Y0043369D02*
X0105372Y0043369D01*
X0105090Y0043967D02*
X0105971Y0043967D01*
X0105726Y0044566D02*
X0106569Y0044566D01*
X0106324Y0045164D02*
X0107168Y0045164D01*
X0106675Y0045763D02*
X0107766Y0045763D01*
X0107960Y0046361D02*
X0106923Y0046361D01*
X0107171Y0046960D02*
X0107712Y0046960D01*
X0107654Y0047558D02*
X0107229Y0047558D01*
X0107229Y0048157D02*
X0107654Y0048157D01*
X0107654Y0048755D02*
X0107229Y0048755D01*
X0107084Y0049354D02*
X0107799Y0049354D01*
X0108047Y0049952D02*
X0106836Y0049952D01*
X0106588Y0050551D02*
X0108295Y0050551D01*
X0108769Y0051149D02*
X0106115Y0051149D01*
X0105516Y0051748D02*
X0109367Y0051748D01*
X0110299Y0052346D02*
X0104584Y0052346D01*
X0100299Y0052346D02*
X0094111Y0052346D01*
X0095181Y0051748D02*
X0099367Y0051748D01*
X0098769Y0051149D02*
X0095850Y0051149D01*
X0096312Y0050551D02*
X0098295Y0050551D01*
X0098047Y0049952D02*
X0096636Y0049952D01*
X0096855Y0049354D02*
X0097799Y0049354D01*
X0097654Y0048755D02*
X0096988Y0048755D01*
X0097654Y0048157D02*
X0092742Y0048157D01*
X0092742Y0047752D02*
X0097042Y0047752D01*
X0097042Y0047690D01*
X0096928Y0046975D01*
X0096705Y0046286D01*
X0096376Y0045641D01*
X0095950Y0045055D01*
X0095438Y0044543D01*
X0094853Y0044118D01*
X0094208Y0043789D01*
X0093519Y0043565D01*
X0092804Y0043452D01*
X0092742Y0043452D01*
X0092742Y0047752D01*
X0092742Y0047558D02*
X0092142Y0047558D01*
X0092142Y0046960D02*
X0092742Y0046960D01*
X0092742Y0046361D02*
X0092142Y0046361D01*
X0092142Y0045763D02*
X0092742Y0045763D01*
X0092742Y0045164D02*
X0092142Y0045164D01*
X0092142Y0044566D02*
X0092742Y0044566D01*
X0092742Y0043967D02*
X0092142Y0043967D01*
X0094557Y0043967D02*
X0099793Y0043967D01*
X0099158Y0044566D02*
X0095461Y0044566D01*
X0096030Y0045164D02*
X0098559Y0045164D01*
X0098208Y0045763D02*
X0096438Y0045763D01*
X0096729Y0046361D02*
X0097960Y0046361D01*
X0097712Y0046960D02*
X0096924Y0046960D01*
X0097021Y0047558D02*
X0097654Y0047558D01*
X0092742Y0048755D02*
X0092142Y0048755D01*
X0092142Y0048157D02*
X0061129Y0048157D01*
X0060829Y0048157D02*
X0060167Y0048157D01*
X0059888Y0047558D02*
X0060550Y0047558D01*
X0060271Y0046960D02*
X0059609Y0046960D01*
X0059329Y0046361D02*
X0059991Y0046361D01*
X0059712Y0045763D02*
X0059050Y0045763D01*
X0058907Y0045164D02*
X0059433Y0045164D01*
X0058875Y0043967D02*
X0058213Y0043967D01*
X0057934Y0043369D02*
X0058596Y0043369D01*
X0058317Y0042770D02*
X0057655Y0042770D01*
X0057376Y0042172D02*
X0058038Y0042172D01*
X0057759Y0041573D02*
X0057097Y0041573D01*
X0046239Y0039179D02*
X0071836Y0039179D01*
X0071557Y0038581D02*
X0046139Y0038581D01*
X0045860Y0037982D02*
X0062824Y0037982D01*
X0062311Y0037384D02*
X0045581Y0037384D01*
X0045302Y0036785D02*
X0062032Y0036785D01*
X0063829Y0037982D02*
X0071278Y0037982D01*
X0079325Y0037982D02*
X0099986Y0037982D01*
X0100584Y0038581D02*
X0079604Y0038581D01*
X0079703Y0039179D02*
X0101183Y0039179D01*
X0101781Y0039778D02*
X0079485Y0039778D01*
X0078258Y0040376D02*
X0102380Y0040376D01*
X0102978Y0040975D02*
X0076974Y0040975D01*
X0075691Y0041573D02*
X0103577Y0041573D01*
X0107751Y0040975D02*
X0147133Y0040975D01*
X0147731Y0040376D02*
X0120501Y0040376D01*
X0119068Y0040970D02*
X0115816Y0040970D01*
X0112812Y0039726D01*
X0110512Y0037426D01*
X0109268Y0034422D01*
X0109268Y0031170D01*
X0110512Y0028166D01*
X0112812Y0025866D01*
X0115816Y0024622D01*
X0119068Y0024622D01*
X0122072Y0025866D01*
X0124371Y0028166D01*
X0125616Y0031170D01*
X0125616Y0034422D01*
X0124371Y0037426D01*
X0122072Y0039726D01*
X0119068Y0040970D01*
X0121946Y0039778D02*
X0148330Y0039778D01*
X0148928Y0039179D02*
X0122618Y0039179D01*
X0123217Y0038581D02*
X0149527Y0038581D01*
X0150125Y0037982D02*
X0123815Y0037982D01*
X0124389Y0037384D02*
X0150724Y0037384D01*
X0151322Y0036785D02*
X0124637Y0036785D01*
X0124885Y0036187D02*
X0151921Y0036187D01*
X0152519Y0035588D02*
X0125133Y0035588D01*
X0125381Y0034990D02*
X0153118Y0034990D01*
X0153716Y0034391D02*
X0125616Y0034391D01*
X0125616Y0033793D02*
X0157512Y0033793D01*
X0157792Y0033194D02*
X0125616Y0033194D01*
X0125616Y0032596D02*
X0158116Y0032596D01*
X0159525Y0032596D02*
X0160232Y0032596D01*
X0160511Y0031997D02*
X0125616Y0031997D01*
X0125616Y0031399D02*
X0160790Y0031399D01*
X0161069Y0030800D02*
X0125462Y0030800D01*
X0125215Y0030202D02*
X0161349Y0030202D01*
X0161628Y0029603D02*
X0124967Y0029603D01*
X0124719Y0029004D02*
X0161907Y0029004D01*
X0162186Y0028406D02*
X0124471Y0028406D01*
X0124013Y0027807D02*
X0162465Y0027807D01*
X0162744Y0027209D02*
X0123414Y0027209D01*
X0122816Y0026610D02*
X0163023Y0026610D01*
X0163302Y0026012D02*
X0122217Y0026012D01*
X0120978Y0025413D02*
X0163581Y0025413D01*
X0163860Y0024815D02*
X0119533Y0024815D01*
X0115350Y0024815D02*
X0071023Y0024815D01*
X0070744Y0024216D02*
X0088751Y0024216D01*
X0087306Y0023618D02*
X0070465Y0023618D01*
X0070186Y0023019D02*
X0086479Y0023019D01*
X0086916Y0023456D02*
X0086916Y0023456D01*
X0085881Y0022421D02*
X0069907Y0022421D01*
X0069628Y0021822D02*
X0085376Y0021822D01*
X0085443Y0021983D02*
X0085443Y0021983D01*
X0085443Y0021983D01*
X0085128Y0021224D02*
X0079845Y0021224D01*
X0081290Y0020625D02*
X0084881Y0020625D01*
X0084646Y0020027D02*
X0082716Y0020027D01*
X0083314Y0019428D02*
X0084646Y0019428D01*
X0084646Y0018830D02*
X0083913Y0018830D01*
X0084511Y0018231D02*
X0084646Y0018231D01*
X0076298Y0021224D02*
X0069349Y0021224D01*
X0069069Y0020625D02*
X0074853Y0020625D01*
X0073428Y0020027D02*
X0068790Y0020027D01*
X0068511Y0019428D02*
X0072829Y0019428D01*
X0072231Y0018830D02*
X0068232Y0018830D01*
X0067953Y0018231D02*
X0071632Y0018231D01*
X0071097Y0017633D02*
X0067674Y0017633D01*
X0067395Y0017034D02*
X0070849Y0017034D01*
X0070601Y0016436D02*
X0067116Y0016436D01*
X0066837Y0015837D02*
X0070353Y0015837D01*
X0070105Y0015239D02*
X0066558Y0015239D01*
X0066279Y0014640D02*
X0069898Y0014640D01*
X0069898Y0014042D02*
X0065999Y0014042D01*
X0065720Y0013443D02*
X0069898Y0013443D01*
X0069898Y0012845D02*
X0065441Y0012845D01*
X0065162Y0012246D02*
X0069898Y0012246D01*
X0069898Y0011648D02*
X0065806Y0011648D01*
X0066389Y0011049D02*
X0070078Y0011049D01*
X0070326Y0010451D02*
X0066486Y0010451D01*
X0066207Y0009852D02*
X0070574Y0009852D01*
X0070822Y0009254D02*
X0065928Y0009254D01*
X0065649Y0008655D02*
X0071070Y0008655D01*
X0071566Y0008057D02*
X0065370Y0008057D01*
X0065091Y0007458D02*
X0072165Y0007458D01*
X0072763Y0006860D02*
X0064812Y0006860D01*
X0064533Y0006261D02*
X0073362Y0006261D01*
X0074694Y0005663D02*
X0064254Y0005663D01*
X0063975Y0005064D02*
X0076139Y0005064D01*
X0080004Y0005064D02*
X0083525Y0005064D01*
X0084123Y0005663D02*
X0081449Y0005663D01*
X0082781Y0006261D02*
X0084417Y0006261D01*
X0084612Y0006860D02*
X0083380Y0006860D01*
X0083979Y0007458D02*
X0084646Y0007458D01*
X0084646Y0008057D02*
X0084577Y0008057D01*
X0061997Y0013443D02*
X0061956Y0013443D01*
X0062276Y0014042D02*
X0048406Y0014042D01*
X0048685Y0014640D02*
X0062555Y0014640D01*
X0062834Y0015239D02*
X0047603Y0015239D01*
X0047739Y0015837D02*
X0046319Y0015837D01*
X0045858Y0016052D02*
X0046112Y0016596D01*
X0048975Y0015261D01*
X0050213Y0017917D01*
X0050229Y0018274D01*
X0050106Y0018611D01*
X0049864Y0018875D01*
X0047655Y0019905D01*
X0046112Y0016596D01*
X0045568Y0016850D01*
X0047111Y0020159D01*
X0044901Y0021189D01*
X0044544Y0021205D01*
X0044207Y0021082D01*
X0043943Y0020840D01*
X0042705Y0018185D01*
X0045568Y0016849D01*
X0045314Y0016306D01*
X0042451Y0017641D01*
X0041213Y0014985D01*
X0041197Y0014627D01*
X0041320Y0014291D01*
X0041562Y0014027D01*
X0043771Y0012997D01*
X0045314Y0016306D01*
X0045858Y0016052D01*
X0044315Y0012743D01*
X0046525Y0011713D01*
X0046882Y0011697D01*
X0047219Y0011820D01*
X0047483Y0012061D01*
X0048721Y0014717D01*
X0045858Y0016052D01*
X0045758Y0015837D02*
X0045096Y0015837D01*
X0045036Y0016436D02*
X0045375Y0016436D01*
X0045172Y0017034D02*
X0043752Y0017034D01*
X0043888Y0017633D02*
X0042468Y0017633D01*
X0042447Y0017633D02*
X0034268Y0017633D01*
X0034551Y0018231D02*
X0042727Y0018231D01*
X0043006Y0018830D02*
X0034905Y0018830D01*
X0035109Y0019428D02*
X0043285Y0019428D01*
X0043564Y0020027D02*
X0035052Y0020027D01*
X0035126Y0020625D02*
X0043843Y0020625D01*
X0046110Y0020625D02*
X0052833Y0020625D01*
X0052235Y0021224D02*
X0035200Y0021224D01*
X0035343Y0021822D02*
X0051902Y0021822D01*
X0051654Y0022421D02*
X0035591Y0022421D01*
X0035839Y0023019D02*
X0038903Y0023019D01*
X0037928Y0023618D02*
X0036087Y0023618D01*
X0036335Y0024216D02*
X0037330Y0024216D01*
X0036927Y0024815D02*
X0036583Y0024815D01*
X0036639Y0025413D02*
X0036679Y0025413D01*
X0044010Y0024216D02*
X0050911Y0024216D01*
X0051159Y0023618D02*
X0043412Y0023618D01*
X0042437Y0023019D02*
X0051407Y0023019D01*
X0050663Y0024815D02*
X0044413Y0024815D01*
X0044661Y0025413D02*
X0050606Y0025413D01*
X0050606Y0026012D02*
X0044909Y0026012D01*
X0044923Y0026610D02*
X0050606Y0026610D01*
X0050606Y0027209D02*
X0044923Y0027209D01*
X0044893Y0027807D02*
X0050606Y0027807D01*
X0050606Y0028406D02*
X0044646Y0028406D01*
X0044398Y0029004D02*
X0050679Y0029004D01*
X0050927Y0029603D02*
X0043972Y0029603D01*
X0043373Y0030202D02*
X0051175Y0030202D01*
X0051422Y0030800D02*
X0042345Y0030800D01*
X0038995Y0030800D02*
X0035823Y0030800D01*
X0035575Y0031399D02*
X0051670Y0031399D01*
X0051918Y0031997D02*
X0035327Y0031997D01*
X0034972Y0032596D02*
X0041894Y0032596D01*
X0043302Y0032596D02*
X0052273Y0032596D01*
X0052872Y0033194D02*
X0043627Y0033194D01*
X0043906Y0033793D02*
X0053470Y0033793D01*
X0054069Y0034391D02*
X0044186Y0034391D01*
X0044465Y0034990D02*
X0054667Y0034990D01*
X0055878Y0035588D02*
X0044744Y0035588D01*
X0045023Y0036187D02*
X0057323Y0036187D01*
X0040610Y0033194D02*
X0034374Y0033194D01*
X0036071Y0030202D02*
X0037967Y0030202D01*
X0037368Y0029603D02*
X0036319Y0029603D01*
X0036567Y0029004D02*
X0036943Y0029004D01*
X0036695Y0028406D02*
X0036639Y0028406D01*
X0018809Y0032596D02*
X0006537Y0032596D01*
X0006537Y0033194D02*
X0019407Y0033194D01*
X0020006Y0033793D02*
X0006537Y0033793D01*
X0006537Y0034391D02*
X0020604Y0034391D01*
X0021203Y0034990D02*
X0006537Y0034990D01*
X0006537Y0035588D02*
X0022413Y0035588D01*
X0023858Y0036187D02*
X0006537Y0036187D01*
X0006537Y0036785D02*
X0008667Y0036785D01*
X0007222Y0037384D02*
X0006537Y0037384D01*
X0013618Y0036785D02*
X0028567Y0036785D01*
X0028846Y0037384D02*
X0015063Y0037384D01*
X0016077Y0037982D02*
X0029360Y0037982D01*
X0030364Y0037982D02*
X0037813Y0037982D01*
X0037534Y0037384D02*
X0031648Y0037384D01*
X0032931Y0036785D02*
X0037255Y0036785D01*
X0038092Y0038581D02*
X0016676Y0038581D01*
X0017274Y0039179D02*
X0038371Y0039179D01*
X0024573Y0042172D02*
X0023911Y0042172D01*
X0024190Y0042770D02*
X0024852Y0042770D01*
X0025131Y0043369D02*
X0024469Y0043369D01*
X0024749Y0043967D02*
X0025411Y0043967D01*
X0025442Y0045164D02*
X0025969Y0045164D01*
X0026248Y0045763D02*
X0025586Y0045763D01*
X0025865Y0046361D02*
X0026527Y0046361D01*
X0026806Y0046960D02*
X0026144Y0046960D01*
X0026423Y0047558D02*
X0027085Y0047558D01*
X0027364Y0048157D02*
X0026702Y0048157D01*
X0027664Y0048157D02*
X0056681Y0048157D01*
X0056960Y0048755D02*
X0028016Y0048755D01*
X0029461Y0049354D02*
X0057331Y0049354D01*
X0057389Y0049518D02*
X0057389Y0049518D01*
X0056954Y0049952D02*
X0030292Y0049952D01*
X0029857Y0049518D02*
X0029857Y0049518D01*
X0030890Y0050551D02*
X0056355Y0050551D01*
X0055915Y0050991D02*
X0055915Y0050991D01*
X0055850Y0051149D02*
X0031396Y0051149D01*
X0031330Y0050991D02*
X0031330Y0050991D01*
X0031644Y0051748D02*
X0055602Y0051748D01*
X0055354Y0052346D02*
X0031892Y0052346D01*
X0032128Y0052945D02*
X0055118Y0052945D01*
X0056402Y0047558D02*
X0028948Y0047558D01*
X0029876Y0046960D02*
X0056123Y0046960D01*
X0024294Y0041573D02*
X0023632Y0041573D01*
X0022658Y0046960D02*
X0019015Y0046960D01*
X0018768Y0047558D02*
X0022937Y0047558D01*
X0023217Y0048157D02*
X0018520Y0048157D01*
X0018272Y0048755D02*
X0023496Y0048755D01*
X0023867Y0049354D02*
X0017956Y0049354D01*
X0017357Y0049952D02*
X0023489Y0049952D01*
X0022891Y0050551D02*
X0016759Y0050551D01*
X0016160Y0051149D02*
X0022385Y0051149D01*
X0022137Y0051748D02*
X0015263Y0051748D01*
X0013818Y0052346D02*
X0021889Y0052346D01*
X0021654Y0052916D02*
X0021654Y0052916D01*
X0021654Y0052945D02*
X0006319Y0052945D01*
X0005382Y0052346D02*
X0008467Y0052346D01*
X0007022Y0051748D02*
X0004918Y0051748D01*
X0004670Y0051149D02*
X0006125Y0051149D01*
X0005527Y0050551D02*
X0004572Y0050551D01*
X0004568Y0049952D02*
X0004928Y0049952D01*
X0074651Y0032596D02*
X0075358Y0032596D01*
X0074372Y0031997D02*
X0109268Y0031997D01*
X0109268Y0031399D02*
X0074093Y0031399D01*
X0073814Y0030800D02*
X0109421Y0030800D01*
X0109669Y0030202D02*
X0073535Y0030202D01*
X0073256Y0029603D02*
X0109917Y0029603D01*
X0110165Y0029004D02*
X0072977Y0029004D01*
X0072698Y0028406D02*
X0110413Y0028406D01*
X0110871Y0027807D02*
X0072419Y0027807D01*
X0072139Y0027209D02*
X0111469Y0027209D01*
X0112068Y0026610D02*
X0071860Y0026610D01*
X0071581Y0026012D02*
X0112666Y0026012D01*
X0113905Y0025413D02*
X0071302Y0025413D01*
X0053432Y0020027D02*
X0047049Y0020027D01*
X0046770Y0019428D02*
X0047432Y0019428D01*
X0047153Y0018830D02*
X0046491Y0018830D01*
X0046212Y0018231D02*
X0046874Y0018231D01*
X0046595Y0017633D02*
X0045933Y0017633D01*
X0045654Y0017034D02*
X0046316Y0017034D01*
X0046455Y0016436D02*
X0046037Y0016436D01*
X0049243Y0015837D02*
X0063113Y0015837D01*
X0063392Y0016436D02*
X0058211Y0016436D01*
X0058490Y0017034D02*
X0063671Y0017034D01*
X0063480Y0017633D02*
X0063950Y0017633D01*
X0056369Y0017633D02*
X0055707Y0017633D01*
X0055428Y0017034D02*
X0056090Y0017034D01*
X0055959Y0016436D02*
X0049523Y0016436D01*
X0049802Y0017034D02*
X0054676Y0017034D01*
X0053731Y0017633D02*
X0050081Y0017633D01*
X0050227Y0018231D02*
X0053624Y0018231D01*
X0053866Y0018830D02*
X0049905Y0018830D01*
X0048677Y0019428D02*
X0054030Y0019428D01*
X0042168Y0017034D02*
X0033985Y0017034D01*
X0033702Y0016436D02*
X0041889Y0016436D01*
X0041610Y0015837D02*
X0033420Y0015837D01*
X0033137Y0015239D02*
X0041331Y0015239D01*
X0041198Y0014640D02*
X0032854Y0014640D01*
X0032571Y0014042D02*
X0041548Y0014042D01*
X0042814Y0013443D02*
X0032288Y0013443D01*
X0032005Y0012845D02*
X0044362Y0012845D01*
X0044641Y0013443D02*
X0043980Y0013443D01*
X0044259Y0014042D02*
X0044921Y0014042D01*
X0045200Y0014640D02*
X0044538Y0014640D01*
X0044817Y0015239D02*
X0045479Y0015239D01*
X0048127Y0013443D02*
X0059835Y0013443D01*
X0059556Y0012845D02*
X0047848Y0012845D01*
X0047569Y0012246D02*
X0059277Y0012246D01*
X0058998Y0011648D02*
X0032342Y0011648D01*
X0032925Y0011049D02*
X0058719Y0011049D01*
X0058440Y0010451D02*
X0033022Y0010451D01*
X0032743Y0009852D02*
X0058161Y0009852D01*
X0057881Y0009254D02*
X0032464Y0009254D01*
X0032185Y0008655D02*
X0038801Y0008655D01*
X0037560Y0008057D02*
X0031906Y0008057D01*
X0031626Y0007458D02*
X0036961Y0007458D01*
X0036363Y0006860D02*
X0031347Y0006860D01*
X0031068Y0006261D02*
X0036037Y0006261D01*
X0036230Y0006727D02*
X0036230Y0006727D01*
X0035789Y0005663D02*
X0030789Y0005663D01*
X0030510Y0005064D02*
X0035541Y0005064D01*
X0026875Y0005064D02*
X0005689Y0005064D01*
X0005091Y0005663D02*
X0025591Y0005663D01*
X0024308Y0006261D02*
X0004797Y0006261D01*
X0004603Y0006860D02*
X0023692Y0006860D01*
X0023580Y0007458D02*
X0004568Y0007458D01*
X0004568Y0008057D02*
X0023859Y0008057D01*
X0024138Y0008655D02*
X0004568Y0008655D01*
X0004568Y0009254D02*
X0024417Y0009254D01*
X0024696Y0009852D02*
X0004568Y0009852D01*
X0004568Y0010451D02*
X0024975Y0010451D01*
X0025254Y0011049D02*
X0004568Y0011049D01*
X0004568Y0011648D02*
X0025533Y0011648D01*
X0025812Y0012246D02*
X0014104Y0012246D01*
X0014018Y0012061D02*
X0015257Y0014717D01*
X0012394Y0016052D01*
X0012647Y0016596D01*
X0012103Y0016850D01*
X0013646Y0020159D01*
X0011437Y0021189D01*
X0011079Y0021205D01*
X0010743Y0021082D01*
X0010479Y0020840D01*
X0009240Y0018185D01*
X0012103Y0016849D01*
X0011850Y0016306D01*
X0008987Y0017641D01*
X0007748Y0014985D01*
X0007733Y0014627D01*
X0007855Y0014291D01*
X0008097Y0014027D01*
X0010307Y0012997D01*
X0011850Y0016306D01*
X0012393Y0016052D01*
X0010850Y0012743D01*
X0013060Y0011713D01*
X0013418Y0011697D01*
X0013754Y0011820D01*
X0014018Y0012061D01*
X0011916Y0012246D02*
X0004568Y0012246D01*
X0004568Y0012845D02*
X0010898Y0012845D01*
X0011177Y0013443D02*
X0010515Y0013443D01*
X0010794Y0014042D02*
X0011456Y0014042D01*
X0011735Y0014640D02*
X0011073Y0014640D01*
X0011352Y0015239D02*
X0012014Y0015239D01*
X0012293Y0015837D02*
X0011631Y0015837D01*
X0011571Y0016436D02*
X0011910Y0016436D01*
X0011707Y0017034D02*
X0010287Y0017034D01*
X0010423Y0017633D02*
X0009004Y0017633D01*
X0008983Y0017633D02*
X0005692Y0017633D01*
X0006290Y0018231D02*
X0009262Y0018231D01*
X0009541Y0018830D02*
X0006537Y0018830D01*
X0006537Y0019428D02*
X0009820Y0019428D01*
X0010099Y0020027D02*
X0006537Y0020027D01*
X0006537Y0020625D02*
X0010378Y0020625D01*
X0012645Y0020625D02*
X0019369Y0020625D01*
X0019967Y0020027D02*
X0013585Y0020027D01*
X0014190Y0019905D02*
X0012647Y0016596D01*
X0015510Y0015261D01*
X0016749Y0017917D01*
X0016764Y0018274D01*
X0016642Y0018611D01*
X0016400Y0018875D01*
X0014190Y0019905D01*
X0013968Y0019428D02*
X0013306Y0019428D01*
X0013027Y0018830D02*
X0013689Y0018830D01*
X0013410Y0018231D02*
X0012748Y0018231D01*
X0012469Y0017633D02*
X0013131Y0017633D01*
X0012851Y0017034D02*
X0012189Y0017034D01*
X0012572Y0016436D02*
X0012991Y0016436D01*
X0012854Y0015837D02*
X0014274Y0015837D01*
X0014138Y0015239D02*
X0029404Y0015239D01*
X0029687Y0015837D02*
X0015779Y0015837D01*
X0016058Y0016436D02*
X0022495Y0016436D01*
X0022625Y0017034D02*
X0021963Y0017034D01*
X0022243Y0017633D02*
X0022905Y0017633D01*
X0021211Y0017034D02*
X0016337Y0017034D01*
X0016616Y0017633D02*
X0020267Y0017633D01*
X0020159Y0018231D02*
X0016762Y0018231D01*
X0016441Y0018830D02*
X0020401Y0018830D01*
X0020566Y0019428D02*
X0015212Y0019428D01*
X0018770Y0021224D02*
X0006537Y0021224D01*
X0006537Y0021822D02*
X0018438Y0021822D01*
X0018190Y0022421D02*
X0006537Y0022421D01*
X0006537Y0023019D02*
X0017942Y0023019D01*
X0017694Y0023618D02*
X0006537Y0023618D01*
X0006537Y0024216D02*
X0017446Y0024216D01*
X0017198Y0024815D02*
X0006537Y0024815D01*
X0006537Y0025413D02*
X0017142Y0025413D01*
X0017142Y0026012D02*
X0006537Y0026012D01*
X0006537Y0026610D02*
X0017142Y0026610D01*
X0017142Y0027209D02*
X0006537Y0027209D01*
X0006537Y0027807D02*
X0017142Y0027807D01*
X0017142Y0028406D02*
X0006537Y0028406D01*
X0006537Y0029004D02*
X0017214Y0029004D01*
X0017462Y0029603D02*
X0006537Y0029603D01*
X0006537Y0030202D02*
X0017710Y0030202D01*
X0017958Y0030800D02*
X0006537Y0030800D01*
X0006537Y0031399D02*
X0018206Y0031399D01*
X0018454Y0031997D02*
X0006537Y0031997D01*
X0030015Y0017633D02*
X0030535Y0017633D01*
X0030253Y0017034D02*
X0025025Y0017034D01*
X0024746Y0016436D02*
X0029970Y0016436D01*
X0029121Y0014640D02*
X0015221Y0014640D01*
X0014942Y0014042D02*
X0028838Y0014042D01*
X0028556Y0013443D02*
X0028491Y0013443D01*
X0026371Y0013443D02*
X0014663Y0013443D01*
X0014383Y0012845D02*
X0026091Y0012845D01*
X0031723Y0012246D02*
X0045381Y0012246D01*
X0042539Y0008655D02*
X0057602Y0008655D01*
X0057323Y0008057D02*
X0043780Y0008057D01*
X0044379Y0007458D02*
X0057044Y0007458D01*
X0057157Y0006860D02*
X0044977Y0006860D01*
X0045110Y0006727D02*
X0045110Y0006727D01*
X0045303Y0006261D02*
X0057772Y0006261D01*
X0059056Y0005663D02*
X0045551Y0005663D01*
X0045799Y0005064D02*
X0060339Y0005064D01*
X0009349Y0013443D02*
X0004568Y0013443D01*
X0004568Y0014042D02*
X0008084Y0014042D01*
X0007733Y0014640D02*
X0004568Y0014640D01*
X0004568Y0015239D02*
X0007867Y0015239D01*
X0008146Y0015837D02*
X0004568Y0015837D01*
X0004568Y0016436D02*
X0008425Y0016436D01*
X0008704Y0017034D02*
X0005093Y0017034D01*
X0076767Y0032596D02*
X0109268Y0032596D01*
X0109268Y0033194D02*
X0077092Y0033194D01*
X0077371Y0033793D02*
X0109268Y0033793D01*
X0109268Y0034391D02*
X0101167Y0034391D01*
X0101766Y0034990D02*
X0109503Y0034990D01*
X0109751Y0035588D02*
X0102364Y0035588D01*
X0102963Y0036187D02*
X0109999Y0036187D01*
X0110247Y0036785D02*
X0103561Y0036785D01*
X0104160Y0037384D02*
X0110494Y0037384D01*
X0111068Y0037982D02*
X0104758Y0037982D01*
X0105357Y0038581D02*
X0111667Y0038581D01*
X0112265Y0039179D02*
X0105955Y0039179D01*
X0106554Y0039778D02*
X0112937Y0039778D01*
X0114382Y0040376D02*
X0107152Y0040376D01*
X0108349Y0041573D02*
X0146534Y0041573D01*
X0145936Y0042172D02*
X0108948Y0042172D01*
X0109546Y0042770D02*
X0145337Y0042770D01*
X0144739Y0043369D02*
X0143646Y0043369D01*
X0141238Y0043369D02*
X0133646Y0043369D01*
X0133394Y0043265D02*
X0131489Y0043265D01*
X0129730Y0043993D01*
X0128383Y0045340D01*
X0127654Y0047100D01*
X0127654Y0049004D01*
X0128383Y0050764D01*
X0129730Y0052111D01*
X0131489Y0052839D01*
X0133394Y0052839D01*
X0135154Y0052111D01*
X0136500Y0050764D01*
X0137229Y0049004D01*
X0137229Y0047100D01*
X0136500Y0045340D01*
X0135154Y0043993D01*
X0133394Y0043265D01*
X0131238Y0043369D02*
X0113646Y0043369D01*
X0115090Y0043967D02*
X0120326Y0043967D01*
X0120031Y0044118D02*
X0120676Y0043789D01*
X0121365Y0043565D01*
X0122080Y0043452D01*
X0122142Y0043452D01*
X0122142Y0047752D01*
X0122742Y0047752D01*
X0122742Y0048352D01*
X0127042Y0048352D01*
X0127042Y0048414D01*
X0126928Y0049129D01*
X0126705Y0049818D01*
X0126376Y0050463D01*
X0125950Y0051049D01*
X0125438Y0051561D01*
X0124853Y0051986D01*
X0124208Y0052315D01*
X0123519Y0052539D01*
X0122804Y0052652D01*
X0122742Y0052652D01*
X0122742Y0048352D01*
X0122142Y0048352D01*
X0122142Y0052652D01*
X0122080Y0052652D01*
X0121365Y0052539D01*
X0120676Y0052315D01*
X0120031Y0051986D01*
X0119445Y0051561D01*
X0118933Y0051049D01*
X0118507Y0050463D01*
X0118179Y0049818D01*
X0117955Y0049129D01*
X0117842Y0048414D01*
X0117842Y0048352D01*
X0122142Y0048352D01*
X0122142Y0047752D01*
X0117842Y0047752D01*
X0117842Y0047690D01*
X0117955Y0046975D01*
X0118179Y0046286D01*
X0118507Y0045641D01*
X0118933Y0045055D01*
X0119445Y0044543D01*
X0120031Y0044118D01*
X0119423Y0044566D02*
X0115726Y0044566D01*
X0116324Y0045164D02*
X0118854Y0045164D01*
X0118445Y0045763D02*
X0116675Y0045763D01*
X0116923Y0046361D02*
X0118154Y0046361D01*
X0117960Y0046960D02*
X0117171Y0046960D01*
X0117229Y0047558D02*
X0117863Y0047558D01*
X0117229Y0048157D02*
X0122142Y0048157D01*
X0122142Y0048755D02*
X0122742Y0048755D01*
X0122742Y0048157D02*
X0127654Y0048157D01*
X0127654Y0048755D02*
X0126988Y0048755D01*
X0126855Y0049354D02*
X0127799Y0049354D01*
X0128047Y0049952D02*
X0126636Y0049952D01*
X0126312Y0050551D02*
X0128295Y0050551D01*
X0128769Y0051149D02*
X0125850Y0051149D01*
X0125181Y0051748D02*
X0129367Y0051748D01*
X0130299Y0052346D02*
X0124111Y0052346D01*
X0122742Y0052346D02*
X0122142Y0052346D01*
X0122142Y0051748D02*
X0122742Y0051748D01*
X0122742Y0051149D02*
X0122142Y0051149D01*
X0122142Y0050551D02*
X0122742Y0050551D01*
X0122742Y0049952D02*
X0122142Y0049952D01*
X0122142Y0049354D02*
X0122742Y0049354D01*
X0118571Y0050551D02*
X0116588Y0050551D01*
X0116836Y0049952D02*
X0118247Y0049952D01*
X0118028Y0049354D02*
X0117084Y0049354D01*
X0117229Y0048755D02*
X0117896Y0048755D01*
X0122142Y0047558D02*
X0122742Y0047558D01*
X0122742Y0047752D02*
X0122742Y0043452D01*
X0122804Y0043452D01*
X0123519Y0043565D01*
X0124208Y0043789D01*
X0124853Y0044118D01*
X0125438Y0044543D01*
X0125950Y0045055D01*
X0126376Y0045641D01*
X0126705Y0046286D01*
X0126928Y0046975D01*
X0127042Y0047690D01*
X0127042Y0047752D01*
X0122742Y0047752D01*
X0122742Y0046960D02*
X0122142Y0046960D01*
X0122142Y0046361D02*
X0122742Y0046361D01*
X0122742Y0045763D02*
X0122142Y0045763D01*
X0122142Y0045164D02*
X0122742Y0045164D01*
X0122742Y0044566D02*
X0122142Y0044566D01*
X0122142Y0043967D02*
X0122742Y0043967D01*
X0124557Y0043967D02*
X0129793Y0043967D01*
X0129158Y0044566D02*
X0125461Y0044566D01*
X0126030Y0045164D02*
X0128559Y0045164D01*
X0128208Y0045763D02*
X0126438Y0045763D01*
X0126729Y0046361D02*
X0127960Y0046361D01*
X0127712Y0046960D02*
X0126924Y0046960D01*
X0127021Y0047558D02*
X0127654Y0047558D01*
X0136324Y0045164D02*
X0138559Y0045164D01*
X0138208Y0045763D02*
X0136675Y0045763D01*
X0136923Y0046361D02*
X0137960Y0046361D01*
X0137712Y0046960D02*
X0137171Y0046960D01*
X0137229Y0047558D02*
X0137654Y0047558D01*
X0137654Y0048157D02*
X0137229Y0048157D01*
X0137229Y0048755D02*
X0137654Y0048755D01*
X0137799Y0049354D02*
X0137084Y0049354D01*
X0136836Y0049952D02*
X0138047Y0049952D01*
X0138295Y0050551D02*
X0136588Y0050551D01*
X0136115Y0051149D02*
X0138769Y0051149D01*
X0139367Y0051748D02*
X0135516Y0051748D01*
X0134584Y0052346D02*
X0140299Y0052346D01*
X0120773Y0052346D02*
X0114584Y0052346D01*
X0115516Y0051748D02*
X0119703Y0051748D01*
X0119034Y0051149D02*
X0116115Y0051149D01*
X0092742Y0051149D02*
X0092142Y0051149D01*
X0092142Y0050551D02*
X0092742Y0050551D01*
X0092742Y0049952D02*
X0092142Y0049952D01*
X0092142Y0049354D02*
X0092742Y0049354D01*
X0092742Y0051748D02*
X0092142Y0051748D01*
X0092142Y0052346D02*
X0092742Y0052346D01*
X0110145Y0043369D02*
X0111238Y0043369D01*
X0135090Y0043967D02*
X0139793Y0043967D01*
X0139158Y0044566D02*
X0135726Y0044566D01*
X0151307Y0041573D02*
X0159193Y0041573D01*
X0157909Y0040975D02*
X0151905Y0040975D01*
X0152504Y0040376D02*
X0156626Y0040376D01*
X0155398Y0039778D02*
X0153102Y0039778D01*
X0153701Y0039179D02*
X0155180Y0039179D01*
X0155280Y0038581D02*
X0154299Y0038581D01*
X0154898Y0037982D02*
X0155559Y0037982D01*
X0163606Y0037982D02*
X0171055Y0037982D01*
X0227662Y0037384D02*
X0228346Y0037384D01*
X0150306Y0008057D02*
X0150238Y0008057D01*
X0150238Y0007458D02*
X0150905Y0007458D01*
X0151503Y0006860D02*
X0150272Y0006860D01*
X0150467Y0006261D02*
X0152102Y0006261D01*
X0153434Y0005663D02*
X0150760Y0005663D01*
X0151359Y0005064D02*
X0154879Y0005064D01*
D16*
X0182402Y0011143D03*
X0215867Y0011143D03*
X0156812Y0028859D03*
X0194213Y0040670D03*
X0156812Y0046576D03*
X0076103Y0046576D03*
X0040670Y0040670D03*
X0076103Y0028859D03*
X0052481Y0011143D03*
X0019017Y0011143D03*
D17*
X0028305Y0008964D02*
X0033288Y0019509D01*
X0034056Y0025721D01*
X0030634Y0034919D02*
X0039121Y0034919D01*
X0041533Y0037330D01*
X0041533Y0039807D01*
X0040670Y0040670D01*
X0064099Y0034919D02*
X0064929Y0035749D01*
X0076103Y0035749D01*
X0074997Y0036855D01*
X0074997Y0037330D01*
X0061770Y0008964D01*
X0076103Y0035749D02*
X0100139Y0035749D01*
X0112442Y0048052D01*
X0142442Y0048052D02*
X0154745Y0035749D01*
X0160749Y0035749D01*
X0159886Y0036611D01*
X0159886Y0037330D01*
X0173114Y0008964D01*
X0201595Y0019017D02*
X0206578Y0008964D01*
X0201595Y0019017D02*
X0200828Y0025721D01*
X0204249Y0034919D02*
X0195762Y0034919D01*
X0193351Y0037330D01*
X0193351Y0039807D01*
X0194213Y0040670D01*
X0170785Y0034919D02*
X0169955Y0035749D01*
X0160749Y0035749D01*
M02*
