%
M48
M72
T01C0.01181
T02C0.04000
T03C0.05906
T04C0.08268
%
T01
X19017Y11143
X52481Y11143
X76103Y28859
X40670Y40670
X76103Y46576
X156812Y46576
X194213Y40670
X156812Y28859
X182402Y11143
X215867Y11143
T02
X142442Y48052
X132442Y48052
X122442Y48052
X112442Y48052
X102442Y48052
X92442Y48052
T03
X40670Y26891
X194213Y26891
T04
X156812Y13111
X78072Y13111
X117442Y32796
X223741Y44607
X11143Y44607
M30
